<?xml version="1.0" encoding="utf-8" standalone="no"?>
<!DOCTYPE svg PUBLIC "-//W3C//DTD SVG 1.1//EN"
  "http://www.w3.org/Graphics/SVG/1.1/DTD/svg11.dtd">
<svg xmlns:xlink="http://www.w3.org/1999/xlink" width="395.577245pt" height="263.711151pt" viewBox="0 0 395.577245 263.711151" xmlns="http://www.w3.org/2000/svg" version="1.1">
 <metadata>
  <rdf:RDF xmlns:dc="http://purl.org/dc/elements/1.1/" xmlns:cc="http://creativecommons.org/ns#" xmlns:rdf="http://www.w3.org/1999/02/22-rdf-syntax-ns#">
   <cc:Work>
    <dc:type rdf:resource="http://purl.org/dc/dcmitype/StillImage"/>
    <dc:date>2024-11-29T17:14:24.897018</dc:date>
    <dc:format>image/svg+xml</dc:format>
    <dc:creator>
     <cc:Agent>
      <dc:title>Matplotlib v3.9.2, https://matplotlib.org/</dc:title>
     </cc:Agent>
    </dc:creator>
   </cc:Work>
  </rdf:RDF>
 </metadata>
 <defs>
  <style type="text/css">*{stroke-linejoin: round; stroke-linecap: butt}</style>
 </defs>
 <g id="figure_1">
  <g id="patch_1">
   <path d="M 0 263.711151 
L 395.577245 263.711151 
L 395.577245 0 
L 0 0 
z
" style="fill: #ffffff"/>
  </g>
  <g id="axes_1">
   <g id="patch_2">
    <path d="M 35.398817 244.213246 
L 391.977245 244.213246 
L 391.977245 3.6 
L 35.398817 3.6 
z
" style="fill: #ffffff"/>
   </g>
   <g id="matplotlib.axis_1">
    <g id="xtick_1">
     <g id="line2d_1">
      <defs>
       <path id="m2c7f4bd92d" d="M 0 0 
L 0 -3 
" style="stroke: #000000; stroke-width: 0.5"/>
      </defs>
      <g>
       <use xlink:href="#m2c7f4bd92d" x="65.113686" y="244.213246" style="stroke: #000000; stroke-width: 0.5"/>
      </g>
     </g>
     <g id="line2d_2">
      <defs>
       <path id="me6dca4b83a" d="M 0 0 
L 0 3 
" style="stroke: #000000; stroke-width: 0.5"/>
      </defs>
      <g>
       <use xlink:href="#me6dca4b83a" x="65.113686" y="3.6" style="stroke: #000000; stroke-width: 0.5"/>
      </g>
     </g>
     <g id="text_1">
      <!-- $\mathdefault{−0.02}$ -->
      <g transform="translate(47.550033 257.399122) scale(0.14 -0.14)">
       <defs>
        <path id="CMSY10-0" d="M 4218 1472 
C 4326 1472 4442 1472 4442 1600 
C 4442 1728 4326 1728 4218 1728 
L 755 1728 
C 646 1728 531 1728 531 1600 
C 531 1472 646 1472 755 1472 
L 4218 1472 
z
" transform="scale(0.015625)"/>
        <path id="CMR17-30" d="M 2688 2025 
C 2688 2416 2682 3080 2413 3591 
C 2176 4039 1798 4198 1466 4198 
C 1158 4198 768 4058 525 3597 
C 269 3118 243 2524 243 2025 
C 243 1661 250 1106 448 619 
C 723 -39 1216 -128 1466 -128 
C 1760 -128 2208 -7 2470 600 
C 2662 1042 2688 1559 2688 2025 
z
M 1466 -26 
C 1056 -26 813 325 723 812 
C 653 1188 653 1738 653 2096 
C 653 2588 653 2997 736 3387 
C 858 3929 1216 4096 1466 4096 
C 1728 4096 2067 3923 2189 3400 
C 2272 3036 2278 2607 2278 2096 
C 2278 1680 2278 1169 2202 792 
C 2067 95 1690 -26 1466 -26 
z
" transform="scale(0.015625)"/>
        <path id="CMMI12-3a" d="M 1178 307 
C 1178 492 1024 619 870 619 
C 685 619 557 466 557 313 
C 557 128 710 0 864 0 
C 1050 0 1178 153 1178 307 
z
" transform="scale(0.015625)"/>
        <path id="CMR17-32" d="M 2669 989 
L 2554 989 
C 2490 536 2438 459 2413 420 
C 2381 369 1920 369 1830 369 
L 602 369 
C 832 619 1280 1072 1824 1597 
C 2214 1967 2669 2402 2669 3035 
C 2669 3790 2067 4224 1395 4224 
C 691 4224 262 3604 262 3030 
C 262 2780 448 2748 525 2748 
C 589 2748 781 2787 781 3010 
C 781 3207 614 3264 525 3264 
C 486 3264 448 3258 422 3245 
C 544 3790 915 4058 1306 4058 
C 1862 4058 2227 3617 2227 3035 
C 2227 2479 1901 2000 1536 1584 
L 262 146 
L 262 0 
L 2515 0 
L 2669 989 
z
" transform="scale(0.015625)"/>
       </defs>
       <use xlink:href="#CMSY10-0" transform="scale(0.996264)"/>
       <use xlink:href="#CMR17-30" transform="translate(77.487468 0) scale(0.996264)"/>
       <use xlink:href="#CMMI12-3a" transform="translate(123.177945 0) scale(0.996264)"/>
       <use xlink:href="#CMR17-30" transform="translate(150.275122 0) scale(0.996264)"/>
       <use xlink:href="#CMR17-32" transform="translate(195.965599 0) scale(0.996264)"/>
      </g>
     </g>
    </g>
    <g id="xtick_2">
     <g id="line2d_3">
      <g>
       <use xlink:href="#m2c7f4bd92d" x="139.400859" y="244.213246" style="stroke: #000000; stroke-width: 0.5"/>
      </g>
     </g>
     <g id="line2d_4">
      <g>
       <use xlink:href="#me6dca4b83a" x="139.400859" y="3.6" style="stroke: #000000; stroke-width: 0.5"/>
      </g>
     </g>
     <g id="text_2">
      <!-- $\mathdefault{−0.01}$ -->
      <g transform="translate(121.837206 257.399122) scale(0.14 -0.14)">
       <defs>
        <path id="CMR17-31" d="M 1702 4058 
C 1702 4192 1696 4192 1606 4192 
C 1357 3916 979 3827 621 3827 
C 602 3827 570 3827 563 3808 
C 557 3795 557 3782 557 3648 
C 755 3648 1088 3686 1344 3839 
L 1344 461 
C 1344 236 1331 160 781 160 
L 589 160 
L 589 0 
C 896 0 1216 0 1523 0 
C 1830 0 2150 0 2458 0 
L 2458 160 
L 2266 160 
C 1715 160 1702 230 1702 458 
L 1702 4058 
z
" transform="scale(0.015625)"/>
       </defs>
       <use xlink:href="#CMSY10-0" transform="scale(0.996264)"/>
       <use xlink:href="#CMR17-30" transform="translate(77.487468 0) scale(0.996264)"/>
       <use xlink:href="#CMMI12-3a" transform="translate(123.177945 0) scale(0.996264)"/>
       <use xlink:href="#CMR17-30" transform="translate(150.275122 0) scale(0.996264)"/>
       <use xlink:href="#CMR17-31" transform="translate(195.965599 0) scale(0.996264)"/>
      </g>
     </g>
    </g>
    <g id="xtick_3">
     <g id="line2d_5">
      <g>
       <use xlink:href="#m2c7f4bd92d" x="213.688031" y="244.213246" style="stroke: #000000; stroke-width: 0.5"/>
      </g>
     </g>
     <g id="line2d_6">
      <g>
       <use xlink:href="#me6dca4b83a" x="213.688031" y="3.6" style="stroke: #000000; stroke-width: 0.5"/>
      </g>
     </g>
     <g id="text_3">
      <!-- $\mathdefault{0.00}$ -->
      <g transform="translate(201.548496 257.399122) scale(0.14 -0.14)">
       <use xlink:href="#CMR17-30" transform="scale(0.996264)"/>
       <use xlink:href="#CMMI12-3a" transform="translate(45.690477 0) scale(0.996264)"/>
       <use xlink:href="#CMR17-30" transform="translate(72.787654 0) scale(0.996264)"/>
       <use xlink:href="#CMR17-30" transform="translate(118.478131 0) scale(0.996264)"/>
      </g>
     </g>
    </g>
    <g id="xtick_4">
     <g id="line2d_7">
      <g>
       <use xlink:href="#m2c7f4bd92d" x="287.975204" y="244.213246" style="stroke: #000000; stroke-width: 0.5"/>
      </g>
     </g>
     <g id="line2d_8">
      <g>
       <use xlink:href="#me6dca4b83a" x="287.975204" y="3.6" style="stroke: #000000; stroke-width: 0.5"/>
      </g>
     </g>
     <g id="text_4">
      <!-- $\mathdefault{0.01}$ -->
      <g transform="translate(275.835668 257.399122) scale(0.14 -0.14)">
       <use xlink:href="#CMR17-30" transform="scale(0.996264)"/>
       <use xlink:href="#CMMI12-3a" transform="translate(45.690477 0) scale(0.996264)"/>
       <use xlink:href="#CMR17-30" transform="translate(72.787654 0) scale(0.996264)"/>
       <use xlink:href="#CMR17-31" transform="translate(118.478131 0) scale(0.996264)"/>
      </g>
     </g>
    </g>
    <g id="xtick_5">
     <g id="line2d_9">
      <g>
       <use xlink:href="#m2c7f4bd92d" x="362.262376" y="244.213246" style="stroke: #000000; stroke-width: 0.5"/>
      </g>
     </g>
     <g id="line2d_10">
      <g>
       <use xlink:href="#me6dca4b83a" x="362.262376" y="3.6" style="stroke: #000000; stroke-width: 0.5"/>
      </g>
     </g>
     <g id="text_5">
      <!-- $\mathdefault{0.02}$ -->
      <g transform="translate(350.122841 257.399122) scale(0.14 -0.14)">
       <use xlink:href="#CMR17-30" transform="scale(0.996264)"/>
       <use xlink:href="#CMMI12-3a" transform="translate(45.690477 0) scale(0.996264)"/>
       <use xlink:href="#CMR17-30" transform="translate(72.787654 0) scale(0.996264)"/>
       <use xlink:href="#CMR17-32" transform="translate(118.478131 0) scale(0.996264)"/>
      </g>
     </g>
    </g>
    <g id="xtick_6">
     <g id="line2d_11">
      <defs>
       <path id="m186f05dd08" d="M 0 0 
L 0 -1.5 
" style="stroke: #000000; stroke-width: 0.5"/>
      </defs>
      <g>
       <use xlink:href="#m186f05dd08" x="35.398817" y="244.213246" style="stroke: #000000; stroke-width: 0.5"/>
      </g>
     </g>
     <g id="line2d_12">
      <defs>
       <path id="mc469fbd8c6" d="M 0 0 
L 0 1.5 
" style="stroke: #000000; stroke-width: 0.5"/>
      </defs>
      <g>
       <use xlink:href="#mc469fbd8c6" x="35.398817" y="3.6" style="stroke: #000000; stroke-width: 0.5"/>
      </g>
     </g>
    </g>
    <g id="xtick_7">
     <g id="line2d_13">
      <g>
       <use xlink:href="#m186f05dd08" x="50.256252" y="244.213246" style="stroke: #000000; stroke-width: 0.5"/>
      </g>
     </g>
     <g id="line2d_14">
      <g>
       <use xlink:href="#mc469fbd8c6" x="50.256252" y="3.6" style="stroke: #000000; stroke-width: 0.5"/>
      </g>
     </g>
    </g>
    <g id="xtick_8">
     <g id="line2d_15">
      <g>
       <use xlink:href="#m186f05dd08" x="79.971121" y="244.213246" style="stroke: #000000; stroke-width: 0.5"/>
      </g>
     </g>
     <g id="line2d_16">
      <g>
       <use xlink:href="#mc469fbd8c6" x="79.971121" y="3.6" style="stroke: #000000; stroke-width: 0.5"/>
      </g>
     </g>
    </g>
    <g id="xtick_9">
     <g id="line2d_17">
      <g>
       <use xlink:href="#m186f05dd08" x="94.828555" y="244.213246" style="stroke: #000000; stroke-width: 0.5"/>
      </g>
     </g>
     <g id="line2d_18">
      <g>
       <use xlink:href="#mc469fbd8c6" x="94.828555" y="3.6" style="stroke: #000000; stroke-width: 0.5"/>
      </g>
     </g>
    </g>
    <g id="xtick_10">
     <g id="line2d_19">
      <g>
       <use xlink:href="#m186f05dd08" x="109.68599" y="244.213246" style="stroke: #000000; stroke-width: 0.5"/>
      </g>
     </g>
     <g id="line2d_20">
      <g>
       <use xlink:href="#mc469fbd8c6" x="109.68599" y="3.6" style="stroke: #000000; stroke-width: 0.5"/>
      </g>
     </g>
    </g>
    <g id="xtick_11">
     <g id="line2d_21">
      <g>
       <use xlink:href="#m186f05dd08" x="124.543424" y="244.213246" style="stroke: #000000; stroke-width: 0.5"/>
      </g>
     </g>
     <g id="line2d_22">
      <g>
       <use xlink:href="#mc469fbd8c6" x="124.543424" y="3.6" style="stroke: #000000; stroke-width: 0.5"/>
      </g>
     </g>
    </g>
    <g id="xtick_12">
     <g id="line2d_23">
      <g>
       <use xlink:href="#m186f05dd08" x="154.258293" y="244.213246" style="stroke: #000000; stroke-width: 0.5"/>
      </g>
     </g>
     <g id="line2d_24">
      <g>
       <use xlink:href="#mc469fbd8c6" x="154.258293" y="3.6" style="stroke: #000000; stroke-width: 0.5"/>
      </g>
     </g>
    </g>
    <g id="xtick_13">
     <g id="line2d_25">
      <g>
       <use xlink:href="#m186f05dd08" x="169.115728" y="244.213246" style="stroke: #000000; stroke-width: 0.5"/>
      </g>
     </g>
     <g id="line2d_26">
      <g>
       <use xlink:href="#mc469fbd8c6" x="169.115728" y="3.6" style="stroke: #000000; stroke-width: 0.5"/>
      </g>
     </g>
    </g>
    <g id="xtick_14">
     <g id="line2d_27">
      <g>
       <use xlink:href="#m186f05dd08" x="183.973162" y="244.213246" style="stroke: #000000; stroke-width: 0.5"/>
      </g>
     </g>
     <g id="line2d_28">
      <g>
       <use xlink:href="#mc469fbd8c6" x="183.973162" y="3.6" style="stroke: #000000; stroke-width: 0.5"/>
      </g>
     </g>
    </g>
    <g id="xtick_15">
     <g id="line2d_29">
      <g>
       <use xlink:href="#m186f05dd08" x="198.830597" y="244.213246" style="stroke: #000000; stroke-width: 0.5"/>
      </g>
     </g>
     <g id="line2d_30">
      <g>
       <use xlink:href="#mc469fbd8c6" x="198.830597" y="3.6" style="stroke: #000000; stroke-width: 0.5"/>
      </g>
     </g>
    </g>
    <g id="xtick_16">
     <g id="line2d_31">
      <g>
       <use xlink:href="#m186f05dd08" x="228.545466" y="244.213246" style="stroke: #000000; stroke-width: 0.5"/>
      </g>
     </g>
     <g id="line2d_32">
      <g>
       <use xlink:href="#mc469fbd8c6" x="228.545466" y="3.6" style="stroke: #000000; stroke-width: 0.5"/>
      </g>
     </g>
    </g>
    <g id="xtick_17">
     <g id="line2d_33">
      <g>
       <use xlink:href="#m186f05dd08" x="243.4029" y="244.213246" style="stroke: #000000; stroke-width: 0.5"/>
      </g>
     </g>
     <g id="line2d_34">
      <g>
       <use xlink:href="#mc469fbd8c6" x="243.4029" y="3.6" style="stroke: #000000; stroke-width: 0.5"/>
      </g>
     </g>
    </g>
    <g id="xtick_18">
     <g id="line2d_35">
      <g>
       <use xlink:href="#m186f05dd08" x="258.260335" y="244.213246" style="stroke: #000000; stroke-width: 0.5"/>
      </g>
     </g>
     <g id="line2d_36">
      <g>
       <use xlink:href="#mc469fbd8c6" x="258.260335" y="3.6" style="stroke: #000000; stroke-width: 0.5"/>
      </g>
     </g>
    </g>
    <g id="xtick_19">
     <g id="line2d_37">
      <g>
       <use xlink:href="#m186f05dd08" x="273.117769" y="244.213246" style="stroke: #000000; stroke-width: 0.5"/>
      </g>
     </g>
     <g id="line2d_38">
      <g>
       <use xlink:href="#mc469fbd8c6" x="273.117769" y="3.6" style="stroke: #000000; stroke-width: 0.5"/>
      </g>
     </g>
    </g>
    <g id="xtick_20">
     <g id="line2d_39">
      <g>
       <use xlink:href="#m186f05dd08" x="302.832638" y="244.213246" style="stroke: #000000; stroke-width: 0.5"/>
      </g>
     </g>
     <g id="line2d_40">
      <g>
       <use xlink:href="#mc469fbd8c6" x="302.832638" y="3.6" style="stroke: #000000; stroke-width: 0.5"/>
      </g>
     </g>
    </g>
    <g id="xtick_21">
     <g id="line2d_41">
      <g>
       <use xlink:href="#m186f05dd08" x="317.690073" y="244.213246" style="stroke: #000000; stroke-width: 0.5"/>
      </g>
     </g>
     <g id="line2d_42">
      <g>
       <use xlink:href="#mc469fbd8c6" x="317.690073" y="3.6" style="stroke: #000000; stroke-width: 0.5"/>
      </g>
     </g>
    </g>
    <g id="xtick_22">
     <g id="line2d_43">
      <g>
       <use xlink:href="#m186f05dd08" x="332.547507" y="244.213246" style="stroke: #000000; stroke-width: 0.5"/>
      </g>
     </g>
     <g id="line2d_44">
      <g>
       <use xlink:href="#mc469fbd8c6" x="332.547507" y="3.6" style="stroke: #000000; stroke-width: 0.5"/>
      </g>
     </g>
    </g>
    <g id="xtick_23">
     <g id="line2d_45">
      <g>
       <use xlink:href="#m186f05dd08" x="347.404942" y="244.213246" style="stroke: #000000; stroke-width: 0.5"/>
      </g>
     </g>
     <g id="line2d_46">
      <g>
       <use xlink:href="#mc469fbd8c6" x="347.404942" y="3.6" style="stroke: #000000; stroke-width: 0.5"/>
      </g>
     </g>
    </g>
    <g id="xtick_24">
     <g id="line2d_47">
      <g>
       <use xlink:href="#m186f05dd08" x="377.119811" y="244.213246" style="stroke: #000000; stroke-width: 0.5"/>
      </g>
     </g>
     <g id="line2d_48">
      <g>
       <use xlink:href="#mc469fbd8c6" x="377.119811" y="3.6" style="stroke: #000000; stroke-width: 0.5"/>
      </g>
     </g>
    </g>
    <g id="xtick_25">
     <g id="line2d_49">
      <g>
       <use xlink:href="#m186f05dd08" x="391.977245" y="244.213246" style="stroke: #000000; stroke-width: 0.5"/>
      </g>
     </g>
     <g id="line2d_50">
      <g>
       <use xlink:href="#mc469fbd8c6" x="391.977245" y="3.6" style="stroke: #000000; stroke-width: 0.5"/>
      </g>
     </g>
    </g>
   </g>
   <g id="matplotlib.axis_2">
    <g id="ytick_1">
     <g id="line2d_51">
      <defs>
       <path id="mdb6e9783db" d="M 0 0 
L 3 0 
" style="stroke: #000000; stroke-width: 0.5"/>
      </defs>
      <g>
       <use xlink:href="#mdb6e9783db" x="35.398817" y="212.280699" style="stroke: #000000; stroke-width: 0.5"/>
      </g>
     </g>
     <g id="line2d_52">
      <defs>
       <path id="m093c8b9adb" d="M 0 0 
L -3 0 
" style="stroke: #000000; stroke-width: 0.5"/>
      </defs>
      <g>
       <use xlink:href="#m093c8b9adb" x="391.977245" y="212.280699" style="stroke: #000000; stroke-width: 0.5"/>
      </g>
     </g>
     <g id="text_6">
      <!-- $\mathdefault{−1.0}$ -->
      <g transform="translate(3.6 217.123637) scale(0.14 -0.14)">
       <use xlink:href="#CMSY10-0" transform="scale(0.996264)"/>
       <use xlink:href="#CMR17-31" transform="translate(77.487468 0) scale(0.996264)"/>
       <use xlink:href="#CMMI12-3a" transform="translate(123.177945 0) scale(0.996264)"/>
       <use xlink:href="#CMR17-30" transform="translate(150.275122 0) scale(0.996264)"/>
      </g>
     </g>
    </g>
    <g id="ytick_2">
     <g id="line2d_53">
      <g>
       <use xlink:href="#mdb6e9783db" x="35.398817" y="168.093661" style="stroke: #000000; stroke-width: 0.5"/>
      </g>
     </g>
     <g id="line2d_54">
      <g>
       <use xlink:href="#m093c8b9adb" x="391.977245" y="168.093661" style="stroke: #000000; stroke-width: 0.5"/>
      </g>
     </g>
     <g id="text_7">
      <!-- $\mathdefault{−0.5}$ -->
      <g transform="translate(3.6 172.936599) scale(0.14 -0.14)">
       <defs>
        <path id="CMR17-35" d="M 730 3692 
C 794 3666 1056 3584 1325 3584 
C 1920 3584 2246 3911 2432 4100 
C 2432 4157 2432 4192 2394 4192 
C 2387 4192 2374 4192 2323 4163 
C 2099 4058 1837 3973 1517 3973 
C 1325 3973 1037 3999 723 4139 
C 653 4171 640 4171 634 4171 
C 602 4171 595 4164 595 4037 
L 595 2203 
C 595 2089 595 2057 659 2057 
C 691 2057 704 2070 736 2114 
C 941 2401 1222 2522 1542 2522 
C 1766 2522 2246 2382 2246 1289 
C 2246 1085 2246 715 2054 421 
C 1894 159 1645 25 1370 25 
C 947 25 518 320 403 814 
C 429 807 480 795 506 795 
C 589 795 749 840 749 1038 
C 749 1210 627 1280 506 1280 
C 358 1280 262 1190 262 1011 
C 262 454 704 -128 1382 -128 
C 2042 -128 2669 440 2669 1264 
C 2669 2030 2170 2624 1549 2624 
C 1222 2624 947 2503 730 2274 
L 730 3692 
z
" transform="scale(0.015625)"/>
       </defs>
       <use xlink:href="#CMSY10-0" transform="scale(0.996264)"/>
       <use xlink:href="#CMR17-30" transform="translate(77.487468 0) scale(0.996264)"/>
       <use xlink:href="#CMMI12-3a" transform="translate(123.177945 0) scale(0.996264)"/>
       <use xlink:href="#CMR17-35" transform="translate(150.275122 0) scale(0.996264)"/>
      </g>
     </g>
    </g>
    <g id="ytick_3">
     <g id="line2d_55">
      <g>
       <use xlink:href="#mdb6e9783db" x="35.398817" y="123.906623" style="stroke: #000000; stroke-width: 0.5"/>
      </g>
     </g>
     <g id="line2d_56">
      <g>
       <use xlink:href="#m093c8b9adb" x="391.977245" y="123.906623" style="stroke: #000000; stroke-width: 0.5"/>
      </g>
     </g>
     <g id="text_8">
      <!-- $\mathdefault{0.0}$ -->
      <g transform="translate(14.448235 128.749561) scale(0.14 -0.14)">
       <use xlink:href="#CMR17-30" transform="scale(0.996264)"/>
       <use xlink:href="#CMMI12-3a" transform="translate(45.690477 0) scale(0.996264)"/>
       <use xlink:href="#CMR17-30" transform="translate(72.787654 0) scale(0.996264)"/>
      </g>
     </g>
    </g>
    <g id="ytick_4">
     <g id="line2d_57">
      <g>
       <use xlink:href="#mdb6e9783db" x="35.398817" y="79.719585" style="stroke: #000000; stroke-width: 0.5"/>
      </g>
     </g>
     <g id="line2d_58">
      <g>
       <use xlink:href="#m093c8b9adb" x="391.977245" y="79.719585" style="stroke: #000000; stroke-width: 0.5"/>
      </g>
     </g>
     <g id="text_9">
      <!-- $\mathdefault{0.5}$ -->
      <g transform="translate(14.448235 84.562523) scale(0.14 -0.14)">
       <use xlink:href="#CMR17-30" transform="scale(0.996264)"/>
       <use xlink:href="#CMMI12-3a" transform="translate(45.690477 0) scale(0.996264)"/>
       <use xlink:href="#CMR17-35" transform="translate(72.787654 0) scale(0.996264)"/>
      </g>
     </g>
    </g>
    <g id="ytick_5">
     <g id="line2d_59">
      <g>
       <use xlink:href="#mdb6e9783db" x="35.398817" y="35.532547" style="stroke: #000000; stroke-width: 0.5"/>
      </g>
     </g>
     <g id="line2d_60">
      <g>
       <use xlink:href="#m093c8b9adb" x="391.977245" y="35.532547" style="stroke: #000000; stroke-width: 0.5"/>
      </g>
     </g>
     <g id="text_10">
      <!-- $\mathdefault{1.0}$ -->
      <g transform="translate(14.448235 40.375485) scale(0.14 -0.14)">
       <use xlink:href="#CMR17-31" transform="scale(0.996264)"/>
       <use xlink:href="#CMMI12-3a" transform="translate(45.690477 0) scale(0.996264)"/>
       <use xlink:href="#CMR17-30" transform="translate(72.787654 0) scale(0.996264)"/>
      </g>
     </g>
    </g>
    <g id="ytick_6">
     <g id="line2d_61">
      <defs>
       <path id="m6858bcfbff" d="M 0 0 
L 1.5 0 
" style="stroke: #000000; stroke-width: 0.5"/>
      </defs>
      <g>
       <use xlink:href="#m6858bcfbff" x="35.398817" y="238.792921" style="stroke: #000000; stroke-width: 0.5"/>
      </g>
     </g>
     <g id="line2d_62">
      <defs>
       <path id="mf565fede02" d="M 0 0 
L -1.5 0 
" style="stroke: #000000; stroke-width: 0.5"/>
      </defs>
      <g>
       <use xlink:href="#mf565fede02" x="391.977245" y="238.792921" style="stroke: #000000; stroke-width: 0.5"/>
      </g>
     </g>
    </g>
    <g id="ytick_7">
     <g id="line2d_63">
      <g>
       <use xlink:href="#m6858bcfbff" x="35.398817" y="229.955514" style="stroke: #000000; stroke-width: 0.5"/>
      </g>
     </g>
     <g id="line2d_64">
      <g>
       <use xlink:href="#mf565fede02" x="391.977245" y="229.955514" style="stroke: #000000; stroke-width: 0.5"/>
      </g>
     </g>
    </g>
    <g id="ytick_8">
     <g id="line2d_65">
      <g>
       <use xlink:href="#m6858bcfbff" x="35.398817" y="221.118106" style="stroke: #000000; stroke-width: 0.5"/>
      </g>
     </g>
     <g id="line2d_66">
      <g>
       <use xlink:href="#mf565fede02" x="391.977245" y="221.118106" style="stroke: #000000; stroke-width: 0.5"/>
      </g>
     </g>
    </g>
    <g id="ytick_9">
     <g id="line2d_67">
      <g>
       <use xlink:href="#m6858bcfbff" x="35.398817" y="203.443291" style="stroke: #000000; stroke-width: 0.5"/>
      </g>
     </g>
     <g id="line2d_68">
      <g>
       <use xlink:href="#mf565fede02" x="391.977245" y="203.443291" style="stroke: #000000; stroke-width: 0.5"/>
      </g>
     </g>
    </g>
    <g id="ytick_10">
     <g id="line2d_69">
      <g>
       <use xlink:href="#m6858bcfbff" x="35.398817" y="194.605884" style="stroke: #000000; stroke-width: 0.5"/>
      </g>
     </g>
     <g id="line2d_70">
      <g>
       <use xlink:href="#mf565fede02" x="391.977245" y="194.605884" style="stroke: #000000; stroke-width: 0.5"/>
      </g>
     </g>
    </g>
    <g id="ytick_11">
     <g id="line2d_71">
      <g>
       <use xlink:href="#m6858bcfbff" x="35.398817" y="185.768476" style="stroke: #000000; stroke-width: 0.5"/>
      </g>
     </g>
     <g id="line2d_72">
      <g>
       <use xlink:href="#mf565fede02" x="391.977245" y="185.768476" style="stroke: #000000; stroke-width: 0.5"/>
      </g>
     </g>
    </g>
    <g id="ytick_12">
     <g id="line2d_73">
      <g>
       <use xlink:href="#m6858bcfbff" x="35.398817" y="176.931068" style="stroke: #000000; stroke-width: 0.5"/>
      </g>
     </g>
     <g id="line2d_74">
      <g>
       <use xlink:href="#mf565fede02" x="391.977245" y="176.931068" style="stroke: #000000; stroke-width: 0.5"/>
      </g>
     </g>
    </g>
    <g id="ytick_13">
     <g id="line2d_75">
      <g>
       <use xlink:href="#m6858bcfbff" x="35.398817" y="159.256253" style="stroke: #000000; stroke-width: 0.5"/>
      </g>
     </g>
     <g id="line2d_76">
      <g>
       <use xlink:href="#mf565fede02" x="391.977245" y="159.256253" style="stroke: #000000; stroke-width: 0.5"/>
      </g>
     </g>
    </g>
    <g id="ytick_14">
     <g id="line2d_77">
      <g>
       <use xlink:href="#m6858bcfbff" x="35.398817" y="150.418846" style="stroke: #000000; stroke-width: 0.5"/>
      </g>
     </g>
     <g id="line2d_78">
      <g>
       <use xlink:href="#mf565fede02" x="391.977245" y="150.418846" style="stroke: #000000; stroke-width: 0.5"/>
      </g>
     </g>
    </g>
    <g id="ytick_15">
     <g id="line2d_79">
      <g>
       <use xlink:href="#m6858bcfbff" x="35.398817" y="141.581438" style="stroke: #000000; stroke-width: 0.5"/>
      </g>
     </g>
     <g id="line2d_80">
      <g>
       <use xlink:href="#mf565fede02" x="391.977245" y="141.581438" style="stroke: #000000; stroke-width: 0.5"/>
      </g>
     </g>
    </g>
    <g id="ytick_16">
     <g id="line2d_81">
      <g>
       <use xlink:href="#m6858bcfbff" x="35.398817" y="132.744031" style="stroke: #000000; stroke-width: 0.5"/>
      </g>
     </g>
     <g id="line2d_82">
      <g>
       <use xlink:href="#mf565fede02" x="391.977245" y="132.744031" style="stroke: #000000; stroke-width: 0.5"/>
      </g>
     </g>
    </g>
    <g id="ytick_17">
     <g id="line2d_83">
      <g>
       <use xlink:href="#m6858bcfbff" x="35.398817" y="115.069215" style="stroke: #000000; stroke-width: 0.5"/>
      </g>
     </g>
     <g id="line2d_84">
      <g>
       <use xlink:href="#mf565fede02" x="391.977245" y="115.069215" style="stroke: #000000; stroke-width: 0.5"/>
      </g>
     </g>
    </g>
    <g id="ytick_18">
     <g id="line2d_85">
      <g>
       <use xlink:href="#m6858bcfbff" x="35.398817" y="106.231808" style="stroke: #000000; stroke-width: 0.5"/>
      </g>
     </g>
     <g id="line2d_86">
      <g>
       <use xlink:href="#mf565fede02" x="391.977245" y="106.231808" style="stroke: #000000; stroke-width: 0.5"/>
      </g>
     </g>
    </g>
    <g id="ytick_19">
     <g id="line2d_87">
      <g>
       <use xlink:href="#m6858bcfbff" x="35.398817" y="97.3944" style="stroke: #000000; stroke-width: 0.5"/>
      </g>
     </g>
     <g id="line2d_88">
      <g>
       <use xlink:href="#mf565fede02" x="391.977245" y="97.3944" style="stroke: #000000; stroke-width: 0.5"/>
      </g>
     </g>
    </g>
    <g id="ytick_20">
     <g id="line2d_89">
      <g>
       <use xlink:href="#m6858bcfbff" x="35.398817" y="88.556993" style="stroke: #000000; stroke-width: 0.5"/>
      </g>
     </g>
     <g id="line2d_90">
      <g>
       <use xlink:href="#mf565fede02" x="391.977245" y="88.556993" style="stroke: #000000; stroke-width: 0.5"/>
      </g>
     </g>
    </g>
    <g id="ytick_21">
     <g id="line2d_91">
      <g>
       <use xlink:href="#m6858bcfbff" x="35.398817" y="70.882177" style="stroke: #000000; stroke-width: 0.5"/>
      </g>
     </g>
     <g id="line2d_92">
      <g>
       <use xlink:href="#mf565fede02" x="391.977245" y="70.882177" style="stroke: #000000; stroke-width: 0.5"/>
      </g>
     </g>
    </g>
    <g id="ytick_22">
     <g id="line2d_93">
      <g>
       <use xlink:href="#m6858bcfbff" x="35.398817" y="62.04477" style="stroke: #000000; stroke-width: 0.5"/>
      </g>
     </g>
     <g id="line2d_94">
      <g>
       <use xlink:href="#mf565fede02" x="391.977245" y="62.04477" style="stroke: #000000; stroke-width: 0.5"/>
      </g>
     </g>
    </g>
    <g id="ytick_23">
     <g id="line2d_95">
      <g>
       <use xlink:href="#m6858bcfbff" x="35.398817" y="53.207362" style="stroke: #000000; stroke-width: 0.5"/>
      </g>
     </g>
     <g id="line2d_96">
      <g>
       <use xlink:href="#mf565fede02" x="391.977245" y="53.207362" style="stroke: #000000; stroke-width: 0.5"/>
      </g>
     </g>
    </g>
    <g id="ytick_24">
     <g id="line2d_97">
      <g>
       <use xlink:href="#m6858bcfbff" x="35.398817" y="44.369955" style="stroke: #000000; stroke-width: 0.5"/>
      </g>
     </g>
     <g id="line2d_98">
      <g>
       <use xlink:href="#mf565fede02" x="391.977245" y="44.369955" style="stroke: #000000; stroke-width: 0.5"/>
      </g>
     </g>
    </g>
    <g id="ytick_25">
     <g id="line2d_99">
      <g>
       <use xlink:href="#m6858bcfbff" x="35.398817" y="26.69514" style="stroke: #000000; stroke-width: 0.5"/>
      </g>
     </g>
     <g id="line2d_100">
      <g>
       <use xlink:href="#mf565fede02" x="391.977245" y="26.69514" style="stroke: #000000; stroke-width: 0.5"/>
      </g>
     </g>
    </g>
    <g id="ytick_26">
     <g id="line2d_101">
      <g>
       <use xlink:href="#m6858bcfbff" x="35.398817" y="17.857732" style="stroke: #000000; stroke-width: 0.5"/>
      </g>
     </g>
     <g id="line2d_102">
      <g>
       <use xlink:href="#mf565fede02" x="391.977245" y="17.857732" style="stroke: #000000; stroke-width: 0.5"/>
      </g>
     </g>
    </g>
    <g id="ytick_27">
     <g id="line2d_103">
      <g>
       <use xlink:href="#m6858bcfbff" x="35.398817" y="9.020324" style="stroke: #000000; stroke-width: 0.5"/>
      </g>
     </g>
     <g id="line2d_104">
      <g>
       <use xlink:href="#mf565fede02" x="391.977245" y="9.020324" style="stroke: #000000; stroke-width: 0.5"/>
      </g>
     </g>
    </g>
   </g>
   <g id="line2d_105">
    <path d="M 35.398817 123.906623 
L 391.977245 123.906623 
" clip-path="url(#p1d256dc146)" style="fill: none; stroke: #000000; stroke-opacity: 0.5; stroke-linecap: square"/>
   </g>
   <g id="line2d_106">
    <path d="M 213.688031 244.213246 
L 213.688031 3.6 
" clip-path="url(#p1d256dc146)" style="fill: none; stroke: #000000; stroke-opacity: 0.5; stroke-linecap: square"/>
   </g>
   <g id="LineCollection_1">
    <path d="M 217.680294 244.213246 
L 217.503179 239.233203 
L 217.286643 234.337129 
L 216.988544 230.17648 
L 216.599206 227.242964 
L 216.140581 225.516829 
L 216.140581 225.516829 
L 215.502411 224.451704 
L 214.86584 223.98994 
L 214.229918 223.767453 
L 213.594225 223.649382 
L 212.958563 223.58117 
L 212.322826 223.538801 
L 211.686958 223.51085 
L 211.050924 223.491502 
L 210.414702 223.477635 
L 209.778277 223.467498 
L 209.141642 223.460017 
L 208.504788 223.45435 
L 207.867713 223.449669 
L 207.224928 223.44811 
L 206.56453 223.449962 
L 205.878207 223.452037 
L 205.162643 223.454383 
L 204.413747 223.457066 
L 203.626372 223.46018 
L 202.793896 223.463853 
L 201.907542 223.468284 
L 200.95525 223.473781 
L 199.919646 223.480864 
L 198.774021 223.490506 
L 197.473263 223.504778 
L 195.928528 223.529249 
L 194.098959 223.55077 
L 192.050439 223.561752 
L 189.840808 223.575558 
L 187.424638 223.593677 
L 184.729918 223.619014 
L 181.696666 223.647225 
L 178.346252 223.668061 
L 174.697387 223.695197 
L 170.651864 223.732609 
L 166.210158 223.761321 
L 161.392823 223.797394 
L 156.143231 223.838044 
L 150.455596 223.877797 
L 144.325082 223.924719 
L 137.743486 223.970991 
L 130.727901 224.023507 
L 123.274254 224.079982 
L 115.411493 224.141998 
L 107.155357 224.2162 
L 98.525115 224.307904 
L 89.555714 224.434639 
L 80.267483 224.631911 
L 72.249023 224.978467 
L 65.762823 225.546258 
L 60.468213 226.37624 
L 55.085602 227.732181 
L 49.499514 230.013416 
L 44.946184 232.988387 
L 44.946184 232.988387 
L 40.655207 237.062759 
L 40.655207 237.062759 
L 35.398817 244.213246 
L 35.398817 244.213246 
" clip-path="url(#p1d256dc146)" style="fill: none; stroke: #add8e6"/>
    <path d="M 232.131743 244.213246 
L 232.131743 244.213246 
L 231.624451 236.200641 
L 230.631122 228.218371 
L 230.631122 228.218371 
L 230.255473 226.429355 
L 229.811275 225.11568 
L 229.396583 224.358445 
L 228.888429 223.859492 
L 228.267934 223.58504 
L 227.475427 223.471174 
L 226.450803 223.46742 
L 225.507063 223.462985 
L 224.627615 223.458279 
L 223.80087 223.453523 
L 223.018351 223.448844 
L 222.273638 223.444311 
L 221.561729 223.439966 
L 220.878636 223.435829 
L 220.221118 223.431909 
L 219.582092 223.422494 
L 218.949585 223.401487 
L 218.316849 223.375705 
L 217.683897 223.351986 
L 217.050742 223.332079 
L 216.417399 223.313746 
L 215.78388 223.293323 
L 215.150209 223.266604 
L 214.516423 223.227816 
L 213.88259 223.166903 
" clip-path="url(#p1d256dc146)" style="fill: none; stroke: #add8e6"/>
    <path d="M 244.427551 244.213246 
L 244.427551 244.213246 
L 243.581239 236.214317 
L 241.893493 228.29816 
L 241.893493 228.29816 
L 241.218344 226.463514 
L 240.373794 225.075791 
L 239.597794 224.298757 
L 238.633406 223.786396 
" clip-path="url(#p1d256dc146)" style="fill: none; stroke: #add8e6"/>
    <path d="M 269.019167 244.213246 
L 269.019167 244.213246 
L 267.54055 236.25829 
L 267.54055 236.25829 
L 265.466793 229.741036 
L 265.466793 229.741036 
L 264.200248 227.300111 
L 264.200248 227.300111 
L 262.870771 225.671298 
L 261.519569 224.628381 
L 259.914308 223.920332 
L 257.970972 223.494879 
L 255.529368 223.285433 
L 252.424434 223.229015 
L 248.939632 223.239231 
L 245.718739 223.246892 
L 242.780823 223.264154 
L 240.151812 223.28131 
" clip-path="url(#p1d256dc146)" style="fill: none; stroke: #add8e6"/>
    <path d="M 293.610782 244.213246 
L 293.610782 244.213246 
L 291.552197 236.319887 
L 291.552197 236.319887 
L 289.17031 230.569014 
L 289.17031 230.569014 
L 287.260897 227.669085 
L 287.260897 227.669085 
L 285.407566 225.874482 
L 283.469149 224.686243 
L 281.23085 223.887977 
L 278.557614 223.401464 
L 275.263334 223.153739 
L 271.024557 223.07366 
L 266.058684 223.088513 
" clip-path="url(#p1d256dc146)" style="fill: none; stroke: #add8e6"/>
    <path d="M 318.202398 244.213246 
L 318.202398 244.213246 
L 315.616263 236.393863 
L 315.616263 236.393863 
L 312.91231 231.040378 
L 312.91231 231.040378 
L 310.413039 227.872163 
L 310.413039 227.872163 
L 308.013782 225.931073 
L 305.428527 224.622664 
L 302.587022 223.779879 
L 299.19455 223.262253 
L 294.999958 222.996184 
L 289.611081 222.915471 
" clip-path="url(#p1d256dc146)" style="fill: none; stroke: #add8e6"/>
    <path d="M 355.089822 244.213246 
L 355.089822 244.213246 
L 351.807477 236.518265 
L 351.807477 236.518265 
L 348.630318 231.467528 
L 348.630318 231.467528 
L 345.411826 228.104692 
L 345.411826 228.104692 
L 342.260244 225.980703 
L 338.816999 224.530488 
L 335.143164 223.614538 
L 330.76114 223.045008 
L 325.375977 222.75096 
L 318.506066 222.656269 
L 310.821091 222.664723 
L 303.489605 222.693393 
" clip-path="url(#p1d256dc146)" style="fill: none; stroke: #add8e6"/>
    <path d="M 367.38563 244.213246 
L 367.38563 244.213246 
L 363.895221 236.56149 
L 363.895221 236.56149 
L 360.565694 231.569588 
L 360.565694 231.569588 
L 357.148493 228.173173 
L 357.148493 228.173173 
L 353.767525 225.994702 
L 350.067349 224.501955 
" clip-path="url(#p1d256dc146)" style="fill: none; stroke: #add8e6"/>
    <path d="M 379.681438 244.213246 
L 379.681438 244.213246 
L 375.994259 236.60498 
L 375.994259 236.60498 
L 372.515601 231.65853 
L 372.515601 231.65853 
L 368.915488 228.236777 
L 368.915488 228.236777 
L 365.315785 226.007136 
L 361.373231 224.47397 
" clip-path="url(#p1d256dc146)" style="fill: none; stroke: #add8e6"/>
    <path d="M 391.977245 235.916237 
L 391.977245 235.916237 
L 391.977245 235.916237 
L 388.35942 231.309395 
L 388.35942 231.309395 
L 384.478669 227.982049 
L 384.478669 227.982049 
L 380.595786 225.803898 
L 376.429673 224.32078 
L 371.856358 223.35315 
L 366.447828 222.752641 
L 359.814951 222.441952 
L 351.338338 222.347939 
L 342.460689 222.348847 
" clip-path="url(#p1d256dc146)" style="fill: none; stroke: #add8e6"/>
    <path d="M 391.977245 194.431195 
L 391.977245 194.431195 
L 389.478783 202.265052 
L 385.63312 209.813032 
L 385.63312 209.813032 
L 382.461096 213.786779 
L 382.461096 213.786779 
L 378.837168 216.730102 
L 374.024998 219.036339 
" clip-path="url(#p1d256dc146)" style="fill: none; stroke: #add8e6"/>
    <path d="M 391.977245 152.946153 
L 391.977245 152.946153 
L 391.447436 160.958427 
L 390.741792 168.964397 
L 389.817486 176.959961 
L 388.604965 184.93736 
" clip-path="url(#p1d256dc146)" style="fill: none; stroke: #add8e6"/>
    <path d="M 213.69781 24.671708 
L 214.331634 24.601352 
L 214.965439 24.557841 
L 215.599143 24.529237 
L 216.232701 24.509498 
L 216.866085 24.495395 
L 217.499277 24.485139 
L 218.132267 24.477655 
L 218.765047 24.472107 
L 219.397611 24.467626 
L 220.033378 24.465194 
L 220.683944 24.467165 
L 221.359252 24.469364 
L 222.062362 24.471836 
L 222.797019 24.474647 
L 223.567896 24.477883 
L 224.380947 24.481667 
L 225.243963 24.486179 
L 226.167478 24.491695 
L 227.166356 24.498667 
L 228.262785 24.507901 
L 229.492648 24.521009 
L 230.921604 24.541877 
L 232.63107 24.570531 
L 234.584171 24.581709 
L 236.675571 24.595438 
L 238.939697 24.61289 
L 241.428244 24.636166 
L 244.225557 24.669551 
L 247.322974 24.692754 
L 250.670487 24.719059 
L 254.317852 24.753353 
L 258.317439 24.792013 
L 262.660376 24.827179 
L 267.351969 24.872061 
L 272.421573 24.917963 
L 277.864501 24.967723 
L 283.693205 25.024032 
L 289.909461 25.082386 
L 296.504734 25.148194 
L 303.480416 25.219068 
L 310.818082 25.297121 
L 318.515269 25.387288 
L 326.551809 25.487859 
L 334.903051 25.612354 
L 343.565937 25.774429 
L 351.374273 26.019497 
L 357.350207 26.422969 
L 361.872144 27.014957 
L 366.230044 27.98455 
L 370.785752 29.677988 
L 374.612549 32.115978 
L 374.612549 32.115978 
L 377.937873 35.460843 
L 377.937873 35.460843 
L 381.020523 40.203824 
L 381.020523 40.203824 
L 384.258716 47.882269 
L 386.428862 55.759033 
L 387.994062 63.70658 
L 389.168046 71.686471 
L 390.063789 79.683422 
L 390.74705 87.690206 
L 391.258513 95.702967 
L 391.624143 103.71944 
L 391.860439 111.738167 
L 391.977245 119.758119 
L 391.977245 119.758119 
" clip-path="url(#p1d256dc146)" style="fill: none; stroke: #add8e6"/>
    <path d="M 372.730975 23.367318 
L 376.901811 21.795761 
L 380.70966 19.518241 
L 380.70966 19.518241 
L 384.479762 16.076427 
L 384.479762 16.076427 
L 388.104128 11.16481 
L 388.104128 11.16481 
L 391.977245 3.6 
L 391.977245 3.6 
" clip-path="url(#p1d256dc146)" style="fill: none; stroke: #add8e6"/>
    <path d="M 346.138022 24.253164 
L 350.067349 23.311291 
L 353.767525 21.818544 
L 357.148493 19.640073 
L 357.148493 19.640073 
L 360.565694 16.243658 
L 360.565694 16.243658 
L 363.895221 11.251756 
L 363.895221 11.251756 
L 367.38563 3.6 
L 367.38563 3.6 
" clip-path="url(#p1d256dc146)" style="fill: none; stroke: #add8e6"/>
    <path d="M 313.367815 24.088776 
L 316.49672 23.222564 
L 319.382252 21.86387 
L 322.04223 19.858313 
L 322.04223 19.858313 
L 324.803712 16.604343 
L 324.803712 16.604343 
L 327.667612 11.379212 
L 327.667612 11.379212 
L 330.498206 3.6 
L 330.498206 3.6 
" clip-path="url(#p1d256dc146)" style="fill: none; stroke: #add8e6"/>
    <path d="M 291.875713 23.978636 
L 294.419853 23.158509 
L 296.688494 21.906479 
L 298.818453 20.03551 
L 298.818453 20.03551 
L 301.034897 16.98058 
L 301.034897 16.98058 
L 303.57772 11.457614 
L 303.57772 11.457614 
L 305.90659 3.6 
L 305.90659 3.6 
" clip-path="url(#p1d256dc146)" style="fill: none; stroke: #add8e6"/>
    <path d="M 270.588363 23.890925 
L 272.509886 23.127139 
L 274.143688 22.004714 
L 275.729445 20.286969 
L 275.729445 20.286969 
L 277.316135 17.59157 
L 277.316135 17.59157 
L 279.539807 11.52602 
L 279.539807 11.52602 
L 281.314975 3.6 
L 281.314975 3.6 
" clip-path="url(#p1d256dc146)" style="fill: none; stroke: #add8e6"/>
    <path d="M 248.575026 24.097098 
L 249.957765 23.572058 
L 251.066173 22.775927 
L 252.302219 21.31567 
L 253.262433 19.409986 
L 253.262433 19.409986 
L 255.554344 11.579491 
L 256.723359 3.6 
L 256.723359 3.6 
" clip-path="url(#p1d256dc146)" style="fill: none; stroke: #add8e6"/>
    <path d="M 227.475427 24.342072 
L 228.267934 24.228205 
L 228.888429 23.953754 
L 229.396583 23.454801 
L 229.811275 22.697566 
L 230.255473 21.38389 
L 230.631122 19.594875 
L 230.631122 19.594875 
L 231.624451 11.612605 
L 232.131743 3.6 
L 232.131743 3.6 
" clip-path="url(#p1d256dc146)" style="fill: none; stroke: #add8e6"/>
    <path d="M 217.437872 24.318612 
L 217.983937 24.146277 
L 218.36485 23.825772 
L 218.651678 23.294311 
L 218.862667 22.550411 
L 219.103482 21.115295 
L 219.284623 19.180171 
L 219.284623 19.180171 
L 219.657604 11.530515 
L 219.835935 3.6 
L 219.835935 3.6 
" clip-path="url(#p1d256dc146)" style="fill: none; stroke: #add8e6"/>
    <path d="M 207.540127 3.6 
L 207.540127 3.6 
L 207.72087 11.52676 
L 208.101134 19.154624 
L 208.101134 19.154624 
L 208.286197 21.074281 
L 208.530169 22.480062 
L 208.742818 23.203753 
L 209.033627 23.720574 
L 209.420823 24.027152 
L 209.977347 24.181325 
L 210.614031 24.251461 
L 211.250383 24.27585 
L 211.886472 24.272339 
L 212.522361 24.24871 
L 213.158113 24.203168 
" clip-path="url(#p1d256dc146)" style="fill: none; stroke: #add8e6"/>
    <path d="M 195.244319 3.6 
L 195.244319 3.6 
L 195.771093 11.61196 
L 196.820153 19.588649 
L 196.820153 19.588649 
L 197.211413 21.339154 
L 197.65284 22.574691 
L 198.070735 23.300856 
L 198.587228 23.786314 
L 199.2215 24.05823 
L 200.03402 24.176938 
L 201.059838 24.195287 
" clip-path="url(#p1d256dc146)" style="fill: none; stroke: #add8e6"/>
    <path d="M 182.948512 3.6 
L 182.948512 3.6 
L 183.851386 11.595857 
L 185.709875 19.485403 
L 185.709875 19.485403 
L 186.440385 21.253234 
L 187.288651 22.504653 
L 188.078748 23.221221 
L 189.077474 23.705215 
" clip-path="url(#p1d256dc146)" style="fill: none; stroke: #add8e6"/>
    <path d="M 158.356896 3.6 
L 158.356896 3.6 
L 160.016609 11.537389 
L 160.016609 11.537389 
L 162.011312 17.301758 
L 162.011312 17.301758 
L 163.458225 19.883042 
L 163.458225 19.883042 
L 164.882902 21.478706 
L 166.321223 22.499425 
L 167.926389 23.179013 
L 169.924568 23.619423 
L 172.435904 23.866907 
L 175.644748 23.979783 
" clip-path="url(#p1d256dc146)" style="fill: none; stroke: #add8e6"/>
    <path d="M 133.76528 3.6 
L 133.76528 3.6 
L 136.187857 11.442654 
L 136.187857 11.442654 
L 138.534422 16.354133 
L 138.534422 16.354133 
L 140.719821 19.269732 
L 140.719821 19.269732 
L 142.889143 21.072857 
L 145.290367 22.275356 
L 147.558635 22.971421 
L 150.436473 23.445306 
" clip-path="url(#p1d256dc146)" style="fill: none; stroke: #add8e6"/>
    <path d="M 109.173664 3.6 
L 109.173664 3.6 
L 112.350477 11.312503 
L 112.350477 11.312503 
L 115.102225 15.78015 
L 115.102225 15.78015 
L 117.982508 18.828343 
L 117.982508 18.828343 
L 120.937467 20.774186 
L 124.23403 22.067065 
L 127.188977 22.787527 
" clip-path="url(#p1d256dc146)" style="fill: none; stroke: #add8e6"/>
    <path d="M 84.582049 3.6 
L 84.582049 3.6 
L 88.489985 11.150192 
L 88.489985 11.150192 
L 91.695556 15.377243 
L 91.695556 15.377243 
L 95.085919 18.377226 
L 95.085919 18.377226 
L 98.812811 20.452949 
L 102.926975 21.821402 
L 106.569082 22.580147 
L 111.202366 23.111228 
" clip-path="url(#p1d256dc146)" style="fill: none; stroke: #add8e6"/>
    <path d="M 59.990433 3.6 
L 59.990433 3.6 
L 64.594397 10.960816 
L 64.594397 10.960816 
L 68.358579 15.111754 
L 68.358579 15.111754 
L 72.34635 18.097133 
L 77.427012 20.401665 
L 82.171709 21.707521 
L 86.658614 22.474734 
" clip-path="url(#p1d256dc146)" style="fill: none; stroke: #add8e6"/>
    <path d="M 35.398817 3.6 
L 35.398817 3.6 
L 40.655207 10.750487 
L 40.655207 10.750487 
L 44.946184 14.824859 
L 44.946184 14.824859 
L 49.499514 17.79983 
L 55.085602 20.081065 
L 60.468213 21.437006 
L 65.762823 22.266987 
" clip-path="url(#p1d256dc146)" style="fill: none; stroke: #add8e6"/>
    <path d="M 35.398817 45.085042 
L 35.398817 45.085042 
L 39.516814 37.591436 
L 39.516814 37.591436 
L 43.190949 33.147355 
L 43.190949 33.147355 
L 47.296997 29.814608 
L 52.393313 27.256699 
L 57.066279 25.788546 
L 62.030658 24.839446 
" clip-path="url(#p1d256dc146)" style="fill: none; stroke: #add8e6"/>
    <path d="M 35.398817 78.273076 
L 35.398817 78.273076 
L 36.501275 70.28784 
L 37.929564 62.326809 
L 39.806053 54.409959 
L 42.352211 46.584189 
" clip-path="url(#p1d256dc146)" style="fill: none; stroke: #add8e6"/>
    <path d="M 35.398817 119.758119 
L 35.398817 119.758119 
L 35.537412 111.738366 
L 35.817321 103.720329 
L 36.249207 95.705424 
L 36.850788 87.695602 
" clip-path="url(#p1d256dc146)" style="fill: none; stroke: #add8e6"/>
    <path d="M 73.235819 223.312298 
L 67.975827 222.532441 
L 63.753768 221.44498 
L 58.931063 219.476035 
L 54.810842 216.715804 
L 54.810842 216.715804 
L 51.085972 212.912224 
L 51.085972 212.912224 
L 47.539081 207.513434 
L 47.539081 207.513434 
L 44.16681 199.854095 
L 41.793367 192.004134 
L 40.032492 184.075662 
L 38.68794 176.108331 
L 37.649585 168.11943 
L 36.850788 160.117644 
L 36.249207 152.107822 
L 35.817321 144.092917 
L 35.537412 136.07488 
L 35.398817 128.055127 
L 35.398817 128.055127 
" clip-path="url(#p1d256dc146)" style="fill: none; stroke: #add8e6"/>
    <path d="M 378.906533 50.479577 
L 380.779393 58.39328 
L 382.151781 66.357513 
L 383.188935 74.346113 
L 383.981571 82.347995 
L 384.583732 90.357692 
L 385.029297 98.372185 
L 385.339943 106.389652 
L 385.529271 114.408883 
L 385.605012 122.42899 
L 385.57016 130.449232 
L 385.423375 138.468889 
L 385.158806 146.48715 
L 384.765265 154.502959 
L 384.224494 162.514787 
L 383.507919 170.520204 
L 382.570495 178.514991 
L 381.338353 186.491096 
L 379.681438 194.431195 
L 377.341544 202.288247 
" clip-path="url(#p1d256dc146)" style="fill: none; stroke: #add8e6"/>
    <path d="M 41.868471 93.258684 
L 42.504575 85.250157 
L 43.341972 77.250227 
L 44.427613 69.264171 
L 45.836354 61.301622 
L 47.694625 53.382051 
" clip-path="url(#p1d256dc146)" style="fill: none; stroke: #add8e6"/>
    <path d="M 51.445023 183.264982 
L 50.227596 175.288211 
L 49.287759 167.293703 
L 48.565991 159.288566 
L 48.024441 151.276793 
L 47.638541 143.260828 
L 47.392575 135.242301 
L 47.277159 127.222403 
L 47.288023 119.202113 
L 47.425511 111.182348 
L 47.694625 103.164102 
" clip-path="url(#p1d256dc146)" style="fill: none; stroke: #add8e6"/>
    <path d="M 373.308247 170.936707 
L 372.410424 178.933528 
L 371.229637 186.91304 
L 369.638906 194.858795 
L 367.38563 202.728204 
L 363.857943 210.357376 
L 363.857943 210.357376 
L 360.969658 214.300561 
L 360.969658 214.300561 
" clip-path="url(#p1d256dc146)" style="fill: none; stroke: #add8e6"/>
    <path d="M 356.551681 35.835368 
L 356.551681 35.835368 
L 359.496792 41.388624 
L 359.496792 41.388624 
L 362.140843 49.18241 
L 363.934867 57.10457 
L 365.239664 65.074196 
L 366.222857 73.066075 
L 366.974216 81.069897 
L 367.5465 89.080685 
L 367.972508 97.095736 
L 368.273315 105.113433 
L 368.462295 113.132721 
L 368.547249 121.152838 
L 368.531554 129.173162 
L 368.414634 137.193107 
L 368.191878 145.212025 
L 367.854001 153.229098 
L 367.38563 161.243161 
" clip-path="url(#p1d256dc146)" style="fill: none; stroke: #add8e6"/>
    <path d="M 54.437092 68.824914 
L 55.778252 60.857207 
L 57.552115 52.929405 
L 59.990433 45.085042 
L 63.596505 37.46635 
L 63.596505 37.46635 
L 66.860327 32.948303 
L 66.860327 32.948303 
L 70.543768 29.589579 
L 70.543768 29.589579 
L 74.304299 27.384132 
L 78.458547 25.870826 
L 82.693218 24.933859 
" clip-path="url(#p1d256dc146)" style="fill: none; stroke: #add8e6"/>
    <path d="M 71.107942 212.299882 
L 71.107942 212.299882 
L 67.775206 206.071732 
L 67.775206 206.071732 
L 65.032595 198.289126 
L 63.092694 190.382687 
L 61.647575 182.424371 
L 60.542076 174.439981 
L 59.688931 166.440953 
L 59.035239 158.433113 
L 58.547031 150.419763 
L 58.202131 142.402943 
L 57.986413 134.384021 
L 57.89163 126.364006 
L 57.91428 118.34374 
L 58.055152 110.324022 
L 58.319422 102.305735 
L 58.717336 94.289982 
L 59.265669 86.27831 
L 59.990433 78.273076 
" clip-path="url(#p1d256dc146)" style="fill: none; stroke: #add8e6"/>
    <path d="M 106.801277 223.036886 
L 103.013299 222.220283 
L 99.857815 221.055573 
L 96.877857 219.32222 
L 96.877857 219.32222 
L 96.877857 219.32222 
L 92.698467 215.247031 
L 90.090661 211.028683 
L 87.663964 205.256385 
L 85.397809 197.396361 
L 83.791935 189.453622 
L 82.594992 181.475721 
L 81.68014 173.47999 
L 80.975336 165.474203 
L 80.436779 157.462351 
L 80.036598 149.446707 
L 79.756763 141.428679 
L 79.585874 133.409224 
L 79.517415 125.389056 
L 79.548859 117.368778 
L 79.681335 109.348975 
L 79.919778 101.330306 
L 80.273585 93.31361 
L 80.757993 85.300081 
L 81.396623 77.29157 
L 82.226234 69.291203 
L 83.306073 61.304759 
L 84.738091 53.344184 
L 86.715069 45.439389 
L 89.671327 37.689465 
L 89.671327 37.689465 
L 92.545586 32.859067 
L 92.545586 32.859067 
L 95.697859 29.453396 
L 95.697859 29.453396 
L 98.813743 27.319196 
L 102.311463 25.852655 
L 105.83661 24.963957 
L 110.194716 24.377763 
" clip-path="url(#p1d256dc146)" style="fill: none; stroke: #add8e6"/>
    <path d="M 132.883351 223.432174 
L 129.270418 222.940918 
L 126.292568 222.149331 
L 123.80837 221.013611 
L 121.469472 219.32222 
L 121.469472 219.32222 
L 121.469472 219.32222 
L 117.863862 214.85591 
L 115.790298 210.418411 
L 113.767852 203.935893 
L 112.097146 196.000801 
L 110.907789 188.02258 
L 110.017831 180.025526 
L 109.336144 172.018745 
L 108.811373 164.006402 
L 108.412069 155.990678 
L 108.117941 147.972833 
L 107.915839 139.953663 
L 107.797552 131.933716 
L 107.758565 123.913407 
L 107.797433 115.893098 
L 107.915598 107.873149 
L 108.11757 99.853978 
L 108.411554 91.836131 
L 108.810694 83.820403 
L 109.335322 75.808057 
L 110.016799 67.801271 
L 110.906524 59.804212 
L 112.095715 51.826005 
L 113.766986 43.891123 
L 116.369252 36.094498 
L 116.369252 36.094498 
L 118.764952 31.637867 
L 118.764952 31.637867 
L 121.359028 28.602575 
L 121.359028 28.602575 
L 123.781886 26.829759 
L 126.304671 25.670965 
L 129.26836 24.878367 
L 132.874889 24.384526 
" clip-path="url(#p1d256dc146)" style="fill: none; stroke: #add8e6"/>
    <path d="M 154.356805 223.308299 
L 151.73465 222.834232 
L 149.572377 222.069138 
L 147.769368 220.970371 
L 146.061088 219.32222 
L 146.061088 219.32222 
L 146.061088 219.32222 
L 143.071549 214.236501 
L 141.504978 209.333152 
L 139.886029 201.497046 
L 138.799835 193.511934 
L 138.016362 185.50957 
L 137.426513 177.499293 
L 136.974145 169.484806 
L 136.626809 161.467874 
L 136.364459 153.449448 
L 136.174344 145.43008 
L 136.048307 137.41013 
L 135.981389 129.389852 
L 135.971097 121.36945 
L 136.017069 113.349108 
L 136.12103 105.329019 
L 136.287014 97.309419 
L 136.521947 89.290626 
L 136.836749 81.273119 
L 137.248399 73.257687 
L 137.783933 65.245744 
L 138.488876 57.240144 
L 139.44756 49.247642 
L 140.84329 41.289198 
L 143.206027 33.484743 
L 143.206027 33.484743 
L 144.891751 30.087901 
L 144.891751 30.087901 
L 146.704219 27.776796 
L 146.704219 27.776796 
L 148.616936 26.274801 
L 150.54347 25.349936 
L 152.90464 24.726507 
L 155.806181 24.365928 
" clip-path="url(#p1d256dc146)" style="fill: none; stroke: #add8e6"/>
    <path d="M 177.890574 223.414626 
L 175.84139 223.174664 
L 174.209254 222.717179 
L 172.860868 221.980354 
L 171.740092 220.929332 
L 170.652704 219.32222 
L 170.652704 219.32222 
L 170.652704 219.32222 
L 168.367567 213.10772 
L 167.295636 207.11121 
L 166.384679 199.117362 
L 165.768458 191.108544 
L 165.318713 183.09419 
L 164.978443 175.077208 
L 164.717429 167.058798 
L 164.517913 159.039545 
L 164.368817 151.019773 
L 164.263035 142.999674 
L 164.196058 134.979378 
L 164.165238 126.958978 
L 164.1694 118.938549 
L 164.208686 110.918165 
L 164.284575 102.897902 
L 164.400082 94.877858 
L 164.560254 86.858175 
L 164.773002 78.839069 
L 165.050672 70.820902 
L 165.413273 62.804354 
L 165.895559 54.790851 
L 166.565374 46.784016 
L 167.585599 38.796613 
L 169.566398 30.932676 
L 169.566398 30.932676 
L 170.651017 28.433678 
L 170.651017 28.433678 
L 171.766887 26.820021 
L 172.894002 25.789272 
L 174.256243 25.06719 
L 175.906531 24.621937 
L 177.982138 24.391107 
" clip-path="url(#p1d256dc146)" style="fill: none; stroke: #add8e6"/>
    <path d="M 201.13978 223.349021 
L 200.121579 223.345965 
L 198.999435 223.344188 
L 198.046653 223.259874 
L 197.291678 223.028086 
L 196.674265 222.588775 
L 196.149964 221.883633 
L 195.706312 220.891742 
L 195.244319 219.32222 
L 195.244319 219.32222 
L 194.019858 211.354576 
L 193.515897 203.342422 
L 193.203304 195.325016 
L 192.983867 187.306051 
L 192.821013 179.28642 
L 192.697035 171.266448 
L 192.602073 163.246283 
L 192.530165 155.226001 
L 192.477539 147.205647 
L 192.44178 139.185247 
L 192.421396 131.164821 
L 192.415588 123.144384 
L 192.424135 115.123947 
L 192.447367 107.103525 
L 192.486205 99.083133 
L 192.5423 91.06279 
L 192.618287 83.042527 
L 192.718287 75.022393 
L 192.84885 67.002476 
L 193.020953 58.982948 
L 193.254754 50.96421 
L 193.593564 42.947466 
L 194.163884 34.939418 
L 194.163884 34.939418 
L 194.758114 30.281608 
L 194.758114 30.281608 
L 195.222178 28.075783 
L 195.222178 28.075783 
L 195.713203 26.606825 
L 196.179753 25.70469 
L 196.735304 25.077493 
L 197.393299 24.701613 
L 198.204083 24.516735 
L 199.231855 24.464158 
L 200.330846 24.462395 
L 201.331678 24.459501 
" clip-path="url(#p1d256dc146)" style="fill: none; stroke: #add8e6"/>
    <path d="M 361.196854 162.885403 
L 360.562529 170.894038 
L 359.733041 178.894326 
L 358.642266 186.879863 
L 357.172807 194.83664 
L 355.089822 202.728204 
" clip-path="url(#p1d256dc146)" style="fill: none; stroke: #add8e6"/>
    <path d="M 351.413095 56.805314 
L 352.628894 64.781674 
L 353.544257 72.777379 
L 354.243727 80.783431 
L 354.776819 88.795508 
L 355.174287 96.811267 
L 355.455743 104.829316 
L 355.633663 112.848746 
L 355.715394 120.868902 
L 355.704185 128.889252 
L 355.599636 136.909299 
L 355.397642 144.928495 
L 355.089822 152.946153 
" clip-path="url(#p1d256dc146)" style="fill: none; stroke: #add8e6"/>
    <path d="M 66.251656 76.870586 
L 67.194618 68.876172 
L 68.420889 60.89979 
L 70.04552 52.956981 
L 72.286241 45.085042 
" clip-path="url(#p1d256dc146)" style="fill: none; stroke: #add8e6"/>
    <path d="M 75.851422 190.699816 
L 74.519259 182.732154 
L 73.502217 174.742216 
L 72.717908 166.739859 
L 72.116667 158.730061 
L 71.667079 150.71562 
L 71.348637 142.698252 
L 71.148174 134.679109 
L 71.057965 126.659033 
L 71.074654 118.638724 
L 71.198816 110.618843 
L 71.435026 102.600114 
L 71.792467 94.583441 
L 72.286241 86.570085 
" clip-path="url(#p1d256dc146)" style="fill: none; stroke: #add8e6"/>
    <path d="M 158.356896 211.025212 
L 158.356896 211.025212 
L 156.942221 203.065553 
L 156.04299 195.069286 
L 155.405043 187.060894 
L 154.928773 179.047141 
L 154.564863 171.030603 
L 154.285502 163.012468 
" clip-path="url(#p1d256dc146)" style="fill: none; stroke: #add8e6"/>
    <path d="M 182.948512 211.025212 
L 182.162147 203.023567 
L 181.668067 195.01044 
L 181.31927 186.993615 
L 181.059625 178.975173 
L 180.861634 170.955894 
L 180.709878 162.936138 
L 180.594993 154.916093 
L 180.51104 146.895866 
L 180.454217 138.875527 
L 180.42218 130.855123 
L 180.413684 122.834691 
L 180.42841 114.814264 
L 180.466922 106.793874 
L 180.530742 98.773561 
L 180.62257 90.753377 
L 180.746709 82.733399 
L 180.909876 74.713755 
L 181.122757 66.69467 
L 181.403268 58.676593 
L 181.784371 50.660569 
L 182.337084 42.649756 
L 183.268585 34.662009 
L 183.268585 34.662009 
" clip-path="url(#p1d256dc146)" style="fill: none; stroke: #add8e6"/>
    <path d="M 207.540127 211.025212 
L 207.383604 203.00552 
L 207.286741 194.985363 
L 207.218923 186.965061 
L 207.168717 178.944696 
L 207.130587 170.924299 
L 207.101451 162.903883 
L 207.079446 154.883456 
L 207.063397 146.863023 
L 207.052552 138.842585 
L 207.046449 130.822145 
L 207.044844 122.801704 
L 207.047675 114.781263 
L 207.055054 106.760823 
L 207.067281 98.740387 
L 207.084892 90.719955 
L 207.108738 82.699531 
L 207.140158 74.67912 
L 207.181287 66.65873 
L 207.235728 58.63838 
L 207.310171 50.61811 
L 207.41924 42.598048 
L 207.607326 34.585793 
L 207.607326 34.585793 
" clip-path="url(#p1d256dc146)" style="fill: none; stroke: #add8e6"/>
    <path d="M 219.768578 34.585674 
L 219.768578 34.585674 
L 219.956772 42.598037 
L 220.065544 50.6181 
L 220.139686 58.638372 
L 220.193868 66.658723 
L 220.234781 74.679113 
L 220.266027 82.699525 
L 220.289737 90.719949 
L 220.307243 98.740381 
L 220.319397 106.760818 
L 220.326731 114.781257 
L 220.329545 122.801698 
L 220.32795 130.822139 
L 220.321885 138.84258 
L 220.311105 146.863017 
L 220.29515 154.883451 
L 220.273273 162.903878 
L 220.2443 170.924293 
L 220.206373 178.944691 
L 220.156415 186.965057 
L 220.088888 194.985361 
L 219.992334 203.005519 
L 219.835935 211.025212 
" clip-path="url(#p1d256dc146)" style="fill: none; stroke: #add8e6"/>
    <path d="M 231.933423 34.606736 
L 231.933423 34.606736 
L 232.495746 42.614862 
L 232.82335 50.631896 
L 233.047372 58.650802 
L 233.211474 66.670429 
L 233.335618 74.690406 
L 233.430562 82.710576 
L 233.502684 90.73086 
L 233.555978 98.751214 
L 233.592997 106.771612 
L 233.615337 114.792036 
L 233.623899 122.812473 
L 233.619018 130.832911 
L 233.600506 138.85334 
L 233.567631 146.873747 
L 233.51901 154.894116 
L 233.452395 162.914423 
L 233.364266 170.934632 
L 233.249055 178.954677 
L 233.09755 186.974434 
L 232.8932 194.993627 
L 232.601828 203.011513 
L 232.131743 211.025212 
" clip-path="url(#p1d256dc146)" style="fill: none; stroke: #add8e6"/>
    <path d="M 244.103548 34.66185 
L 244.103548 34.66185 
L 245.037456 42.648345 
L 245.582556 50.659381 
L 245.9558 58.67558 
L 246.229452 66.693772 
L 246.436604 74.71293 
L 246.595106 82.732619 
L 246.71555 90.752625 
L 246.804566 98.772825 
L 246.866396 106.793146 
L 246.903693 114.813539 
L 246.917953 122.833968 
L 246.909729 130.8544 
L 246.878708 138.874806 
L 246.823668 146.895152 
L 246.742306 154.915392 
L 246.630877 162.935461 
L 246.483522 170.955257 
L 246.290971 178.974599 
L 246.037891 186.993142 
L 245.696745 195.010123 
L 245.210689 203.023475 
L 244.427551 211.025212 
" clip-path="url(#p1d256dc146)" style="fill: none; stroke: #add8e6"/>
    <path d="M 256.286409 34.74301 
L 256.286409 34.74301 
L 257.583409 42.698118 
L 258.343289 50.700307 
L 258.864103 58.712511 
L 259.246124 66.728582 
L 259.53539 74.74653 
L 259.756758 82.765512 
L 259.924981 90.785107 
L 260.049302 98.80508 
L 260.135629 106.825288 
L 260.187661 114.845636 
L 260.20748 122.866052 
L 260.195852 130.886475 
L 260.152335 138.906848 
L 260.075219 146.927102 
L 259.96128 154.94715 
L 259.805282 162.966866 
L 259.599028 170.986048 
L 259.329554 179.004345 
L 258.975412 187.021081 
L 258.498079 195.034763 
L 257.818074 203.041342 
L 256.723359 211.025212 
L 256.723359 211.025212 
" clip-path="url(#p1d256dc146)" style="fill: none; stroke: #add8e6"/>
    <path d="M 268.486089 34.848429 
L 268.486089 34.848429 
L 270.135168 42.763732 
L 271.10627 50.754392 
L 271.772532 58.761373 
L 272.261413 66.774672 
L 272.631646 74.79104 
L 272.914983 82.809097 
L 273.130282 90.828155 
L 273.289359 98.847832 
L 273.399771 106.867893 
L 273.466241 114.888182 
L 273.49143 122.908581 
L 273.476311 130.928993 
L 273.42031 138.949321 
L 273.321224 146.969454 
L 273.174911 154.989249 
L 272.974642 163.008498 
L 272.709887 171.026869 
L 272.363989 179.043785 
L 271.909381 187.058131 
L 271.296555 195.067443 
L 270.423441 203.065026 
L 269.019167 211.025212 
L 269.019167 211.025212 
" clip-path="url(#p1d256dc146)" style="fill: none; stroke: #add8e6"/>
    <path d="M 280.706282 34.975954 
L 280.706282 34.975954 
L 282.694232 42.844689 
L 283.872323 50.821331 
L 284.681585 58.821935 
L 285.275612 66.831847 
L 285.725515 74.846283 
L 286.069811 82.863209 
L 286.33139 90.881613 
L 286.524603 98.900929 
L 286.658624 106.920811 
L 286.739189 114.941029 
L 286.769522 122.961409 
L 286.750797 130.981806 
L 286.682301 139.002077 
L 286.561337 147.02206 
L 286.38284 155.041541 
L 286.138592 163.060212 
L 285.815726 171.07758 
L 285.393889 179.092785 
L 284.83939 187.104166 
L 284.091729 195.108045 
L 283.026331 203.094419 
L 281.314975 211.025212 
L 281.314975 211.025212 
" clip-path="url(#p1d256dc146)" style="fill: none; stroke: #add8e6"/>
    <path d="M 292.949946 35.12326 
L 292.949946 35.12326 
L 295.262006 42.940445 
L 296.642279 50.900808 
L 297.591828 58.893958 
L 298.289126 66.899905 
L 298.817294 74.912081 
L 299.221455 82.927685 
L 299.528455 90.945323 
L 299.755129 98.964218 
L 299.912241 106.983891 
L 300.00652 115.004026 
L 300.04174 123.024383 
L 300.019264 131.044763 
L 299.938235 139.064967 
L 299.795458 147.08477 
L 299.584944 155.103878 
L 299.296978 163.121861 
L 298.916357 171.138035 
L 298.419023 179.151204 
L 297.76515 187.159051 
L 296.883239 195.15644 
L 295.626331 203.129391 
L 293.610782 211.025212 
L 293.610782 211.025212 
" clip-path="url(#p1d256dc146)" style="fill: none; stroke: #add8e6"/>
    <path d="M 305.21954 35.287986 
L 305.21954 35.287986 
L 307.839784 43.050426 
L 309.416948 50.992492 
L 310.503839 58.977199 
L 311.3024 66.978645 
L 311.907338 74.988252 
L 312.370205 83.002356 
L 312.721713 91.019126 
L 312.981131 99.037543 
L 313.16078 107.056981 
L 313.268359 115.077023 
L 313.308176 123.097355 
L 313.281776 131.117714 
L 313.18815 139.137839 
L 313.023596 147.157433 
L 312.781198 155.176108 
L 312.449742 163.193295 
L 312.011678 171.208088 
L 311.439234 179.218897 
L 310.686435 187.222644 
L 309.670769 195.212487 
L 308.223062 203.169796 
L 305.90659 211.025212 
L 305.90659 211.025212 
" clip-path="url(#p1d256dc146)" style="fill: none; stroke: #add8e6"/>
    <path d="M 317.516409 35.467936 
L 317.516409 35.467936 
L 320.428752 43.174029 
L 322.197104 51.096046 
L 323.418192 59.071409 
L 324.315892 67.067861 
L 324.996026 75.074616 
L 325.516383 83.087054 
L 325.911442 91.102861 
L 326.202849 99.12075 
L 326.404449 107.139928 
L 326.524884 115.159868 
L 326.568983 123.180172 
L 326.538459 131.200507 
L 326.432141 139.220542 
L 326.245817 147.239899 
L 325.971637 155.258081 
L 325.596877 163.274364 
L 325.101636 171.287588 
L 324.454411 179.295717 
L 323.603055 187.294799 
L 322.454038 195.276037 
L 320.816176 203.215475 
L 318.202398 211.025212 
L 318.202398 211.025212 
L 315.973942 215.105958 
L 315.973942 215.105958 
" clip-path="url(#p1d256dc146)" style="fill: none; stroke: #add8e6"/>
    <path d="M 329.84156 35.661086 
L 329.84156 35.661086 
L 333.029977 43.310638 
L 334.983485 51.211125 
L 336.335451 59.176338 
L 337.330061 67.167346 
L 338.083747 75.170991 
L 338.660327 83.181611 
L 339.097939 91.19637 
L 339.420548 99.213684 
L 339.643481 107.232582 
L 339.776302 115.252411 
L 339.824341 123.272686 
L 339.789466 131.292993 
L 339.670337 139.312926 
L 339.462221 147.332015 
L 339.156325 155.349645 
L 338.738411 163.364918 
L 338.18621 171.376386 
L 337.464473 179.381514 
L 336.514853 187.375365 
L 335.232792 195.346932 
L 333.405355 203.266252 
L 330.498206 211.025212 
L 330.498206 211.025212 
L 328.132511 214.934183 
L 328.132511 214.934183 
" clip-path="url(#p1d256dc146)" style="fill: none; stroke: #add8e6"/>
    <path d="M 346.051966 186.849079 
L 344.704802 194.816064 
L 342.794014 202.728204 
L 339.779745 210.465058 
L 339.779745 210.465058 
L 337.263446 214.518331 
L 337.263446 214.518331 
" clip-path="url(#p1d256dc146)" style="fill: none; stroke: #add8e6"/>
    <path d="M 337.263446 33.294915 
L 337.263446 33.294915 
L 339.779745 37.348188 
L 339.779745 37.348188 
L 342.794014 45.085042 
L 344.704802 52.997182 
L 346.051966 60.964166 
" clip-path="url(#p1d256dc146)" style="fill: none; stroke: #add8e6"/>
    <path d="M 154.285502 84.800778 
L 154.564863 76.782643 
L 154.928773 68.766105 
L 155.405043 60.752352 
L 156.04299 52.743959 
L 156.942221 44.747692 
L 158.356896 36.788034 
L 158.356896 36.788034 
" clip-path="url(#p1d256dc146)" style="fill: none; stroke: #add8e6"/>
    <path d="M 99.672841 210.508911 
L 99.672841 210.508911 
L 96.877857 202.728204 
L 95.032162 194.808302 
L 93.702279 186.839799 
L 92.701607 178.848673 
L 91.933564 170.845492 
L 91.342397 162.835301 
L 90.893657 154.820805 
" clip-path="url(#p1d256dc146)" style="fill: none; stroke: #add8e6"/>
    <path d="M 121.469472 202.728204 
L 120.01776 194.769865 
L 118.97762 186.781166 
L 118.197186 178.77855 
L 117.599222 170.768572 
L 117.139536 162.754332 
L 116.790966 154.73748 
L 116.536152 146.718988 
L 116.363926 138.699473 
L 116.267399 130.679371 
L 116.242926 122.659017 
L 116.289617 114.63871 
L 116.409212 106.618756 
L 116.606318 98.599518 
L 116.88905 90.581478 
L 117.270291 82.565351 
L 117.770038 74.552292 
L 118.419876 66.54434 
L 119.2722 58.545499 
L 120.421591 50.564884 
L 122.06324 42.628691 
" clip-path="url(#p1d256dc146)" style="fill: none; stroke: #add8e6"/>
    <path d="M 146.061088 202.728204 
L 145.001366 194.740827 
L 144.245934 186.737125 
L 143.680625 178.72604 
L 143.248209 170.711075 
L 142.916188 162.693873 
L 142.66467 154.675303 
L 142.480982 146.655876 
L 142.356988 138.635916 
L 142.287677 130.61565 
L 142.270408 122.595254 
L 142.304546 114.574883 
L 142.391377 106.554699 
L 142.534283 98.534891 
L 142.739214 90.515713 
L 143.015632 82.497544 
L 143.378254 74.480995 
L 143.850416 66.467156 
L 144.471073 58.45818 
L 145.311318 50.459041 
" clip-path="url(#p1d256dc146)" style="fill: none; stroke: #add8e6"/>
    <path d="M 90.893657 92.992441 
L 91.342397 84.977945 
L 91.933564 76.967754 
L 92.701607 68.964573 
L 93.702279 60.973447 
L 95.032162 53.004944 
L 96.877857 45.085042 
" clip-path="url(#p1d256dc146)" style="fill: none; stroke: #add8e6"/>
    <path d="M 96.83937 143.263718 
L 96.670225 135.244182 
L 96.590872 127.223997 
L 96.598323 119.203627 
L 96.692818 111.183506 
L 96.877857 103.164102 
" clip-path="url(#p1d256dc146)" style="fill: none; stroke: #add8e6"/>
    <path d="M 293.634753 104.547943 
L 293.740159 112.568033 
L 293.78957 120.588374 
L 293.784937 128.608788 
L 293.726103 136.629106 
L 293.610782 144.649144 
" clip-path="url(#p1d256dc146)" style="fill: none; stroke: #add8e6"/>
    <path d="M 170.652704 152.946153 
L 170.550494 144.926018 
L 170.483362 136.905714 
L 170.448602 128.885316 
L 170.444889 120.864885 
L 170.472092 112.844475 
L 170.531263 104.824145 
L 170.624777 96.803968 
" clip-path="url(#p1d256dc146)" style="fill: none; stroke: #add8e6"/>
   </g>
   <g id="patch_3">
    <path d="M 181.696666 223.647225 
Q 180.859063 223.652434 181.139472 223.65069 
" clip-path="url(#p1d256dc146)" style="fill: none; stroke: #add8e6; stroke-linecap: round"/>
    <path d="M 185.151832 225.625777 
L 181.139472 223.65069 
L 185.126957 221.625854 
z
" clip-path="url(#p1d256dc146)" style="fill: #add8e6; stroke: #add8e6; stroke-linecap: round"/>
   </g>
   <g id="patch_4">
    <path d="M 231.377574 234.216766 
Q 231.376354 234.206965 231.5132 235.306641 
" clip-path="url(#p1d256dc146)" style="fill: none; stroke: #add8e6; stroke-linecap: round"/>
    <path d="M 230.022466 239.523003 
L 231.5132 235.306641 
L 233.99185 239.029045 
z
" clip-path="url(#p1d256dc146)" style="fill: #add8e6; stroke: #add8e6; stroke-linecap: round"/>
   </g>
   <g id="patch_5">
    <path d="M 243.163423 234.254605 
Q 243.158846 234.233138 243.387398 235.305129 
" clip-path="url(#p1d256dc146)" style="fill: none; stroke: #add8e6; stroke-linecap: round"/>
    <path d="M 242.265425 239.634238 
L 243.387398 235.305129 
L 246.177501 238.800172 
z
" clip-path="url(#p1d256dc146)" style="fill: #add8e6; stroke: #add8e6; stroke-linecap: round"/>
   </g>
   <g id="patch_6">
    <path d="M 266.934017 234.352121 
Q 266.718844 233.675892 266.842676 234.065062 
" clip-path="url(#p1d256dc146)" style="fill: none; stroke: #add8e6; stroke-linecap: round"/>
    <path d="M 266.149692 238.483181 
L 266.842676 234.065062 
L 269.961381 237.270321 
z
" clip-path="url(#p1d256dc146)" style="fill: #add8e6; stroke: #add8e6; stroke-linecap: round"/>
   </g>
   <g id="patch_7">
    <path d="M 290.78576 234.469386 
Q 290.573507 233.956919 290.789076 234.477392 
" clip-path="url(#p1d256dc146)" style="fill: none; stroke: #add8e6; stroke-linecap: round"/>
    <path d="M 290.471916 238.938268 
L 290.789076 234.477392 
L 294.167481 237.407645 
z
" clip-path="url(#p1d256dc146)" style="fill: #add8e6; stroke: #add8e6; stroke-linecap: round"/>
   </g>
   <g id="patch_8">
    <path d="M 314.714505 234.608497 
Q 314.489396 234.162809 314.76834 234.715083 
" clip-path="url(#p1d256dc146)" style="fill: none; stroke: #add8e6; stroke-linecap: round"/>
    <path d="M 314.786488 239.187182 
L 314.76834 234.715083 
L 318.356908 237.383825 
z
" clip-path="url(#p1d256dc146)" style="fill: #add8e6; stroke: #add8e6; stroke-linecap: round"/>
   </g>
   <g id="patch_9">
    <path d="M 350.741702 234.823999 
Q 350.4803 234.408448 350.814207 234.939261 
" clip-path="url(#p1d256dc146)" style="fill: none; stroke: #add8e6; stroke-linecap: round"/>
    <path d="M 351.251142 239.390002 
L 350.814207 234.939261 
L 354.63696 237.260158 
z
" clip-path="url(#p1d256dc146)" style="fill: #add8e6; stroke: #add8e6; stroke-linecap: round"/>
   </g>
   <g id="patch_10">
    <path d="M 362.784837 234.89671 
Q 362.507647 234.481125 362.850836 234.995663 
" clip-path="url(#p1d256dc146)" style="fill: none; stroke: #add8e6; stroke-linecap: round"/>
    <path d="M 363.406517 239.433142 
L 362.850836 234.995663 
L 366.734228 237.213606 
z
" clip-path="url(#p1d256dc146)" style="fill: #add8e6; stroke: #add8e6; stroke-linecap: round"/>
   </g>
   <g id="patch_11">
    <path d="M 374.844331 234.969849 
Q 374.549631 234.550802 374.898082 235.046279 
" clip-path="url(#p1d256dc146)" style="fill: none; stroke: #add8e6; stroke-linecap: round"/>
    <path d="M 375.56314 239.468688 
L 374.898082 235.046279 
L 378.835044 237.167678 
z
" clip-path="url(#p1d256dc146)" style="fill: #add8e6; stroke: #add8e6; stroke-linecap: round"/>
   </g>
   <g id="patch_12">
    <path d="M 386.839712 230.006401 
Q 386.629378 229.826061 387.267812 230.373453 
" clip-path="url(#p1d256dc146)" style="fill: none; stroke: #add8e6; stroke-linecap: round"/>
    <path d="M 389.002651 234.495387 
L 387.267812 230.373453 
L 391.606262 231.458742 
z
" clip-path="url(#p1d256dc146)" style="fill: #add8e6; stroke: #add8e6; stroke-linecap: round"/>
   </g>
   <g id="patch_13">
    <path d="M 388.571823 204.045167 
Q 388.51726 204.15226 388.970249 203.263165 
" clip-path="url(#p1d256dc146)" style="fill: none; stroke: #add8e6; stroke-linecap: round"/>
    <path d="M 392.568162 200.607035 
L 388.970249 203.263165 
L 389.004093 198.791157 
z
" clip-path="url(#p1d256dc146)" style="fill: #add8e6; stroke: #add8e6; stroke-linecap: round"/>
   </g>
   <g id="patch_14">
    <path d="M 391.272059 162.948192 
Q 391.271192 162.958022 391.368489 161.854136 
" clip-path="url(#p1d256dc146)" style="fill: none; stroke: #add8e6; stroke-linecap: round"/>
    <path d="M 393.711962 158.045182 
L 391.368489 161.854136 
L 389.72741 157.693984 
z
" clip-path="url(#p1d256dc146)" style="fill: #add8e6; stroke: #add8e6; stroke-linecap: round"/>
   </g>
   <g id="patch_15">
    <path d="M 388.284692 65.682071 
Q 388.287296 65.699776 388.12717 64.611353 
" clip-path="url(#p1d256dc146)" style="fill: none; stroke: #add8e6; stroke-linecap: round"/>
    <path d="M 389.523667 60.362848 
L 388.12717 64.611353 
L 385.566264 60.945052 
z
" clip-path="url(#p1d256dc146)" style="fill: #add8e6; stroke: #add8e6; stroke-linecap: round"/>
   </g>
   <g id="patch_16">
    <path d="M 385.667237 14.467201 
Q 385.979591 14.04391 385.628101 14.520236 
" clip-path="url(#p1d256dc146)" style="fill: none; stroke: #add8e6; stroke-linecap: round"/>
    <path d="M 381.643778 16.551287 
L 385.628101 14.520236 
L 384.862349 18.926325 
z
" clip-path="url(#p1d256dc146)" style="fill: #add8e6; stroke: #add8e6; stroke-linecap: round"/>
   </g>
   <g id="patch_17">
    <path d="M 361.676078 14.578878 
Q 361.953268 14.163292 361.610078 14.67783 
" clip-path="url(#p1d256dc146)" style="fill: none; stroke: #add8e6; stroke-linecap: round"/>
    <path d="M 357.726687 16.895773 
L 361.610078 14.67783 
L 361.054398 19.115309 
z
" clip-path="url(#p1d256dc146)" style="fill: #add8e6; stroke: #add8e6; stroke-linecap: round"/>
   </g>
   <g id="patch_18">
    <path d="M 325.764405 14.851577 
Q 326.000034 14.421677 325.698291 14.972202 
" clip-path="url(#p1d256dc146)" style="fill: none; stroke: #add8e6; stroke-linecap: round"/>
    <path d="M 322.021895 17.518595 
L 325.698291 14.972202 
L 325.529568 19.441154 
z
" clip-path="url(#p1d256dc146)" style="fill: #add8e6; stroke: #add8e6; stroke-linecap: round"/>
   </g>
   <g id="patch_19">
    <path d="M 301.870502 15.16566 
Q 302.088405 14.692379 301.838733 15.234662 
" clip-path="url(#p1d256dc146)" style="fill: none; stroke: #add8e6; stroke-linecap: round"/>
    <path d="M 298.349185 18.031635 
L 301.838733 15.234662 
L 301.982582 19.704484 
z
" clip-path="url(#p1d256dc146)" style="fill: #add8e6; stroke: #add8e6; stroke-linecap: round"/>
   </g>
   <g id="patch_20">
    <path d="M 278.005603 15.710894 
Q 278.216787 15.134845 278.043138 15.608511 
" clip-path="url(#p1d256dc146)" style="fill: none; stroke: #add8e6; stroke-linecap: round"/>
    <path d="M 274.788528 18.675679 
L 278.043138 15.608511 
L 278.544106 20.052499 
z
" clip-path="url(#p1d256dc146)" style="fill: #add8e6; stroke: #add8e6; stroke-linecap: round"/>
   </g>
   <g id="patch_21">
    <path d="M 253.825339 17.486774 
Q 253.836157 17.449812 253.532913 18.485867 
" clip-path="url(#p1d256dc146)" style="fill: none; stroke: #add8e6; stroke-linecap: round"/>
    <path d="M 250.489821 21.762998 
L 253.532913 18.485867 
L 254.328762 22.88662 
z
" clip-path="url(#p1d256dc146)" style="fill: #add8e6; stroke: #add8e6; stroke-linecap: round"/>
   </g>
   <g id="patch_22">
    <path d="M 230.877999 17.611 
Q 230.879219 17.601199 230.742373 18.700874 
" clip-path="url(#p1d256dc146)" style="fill: none; stroke: #add8e6; stroke-linecap: round"/>
    <path d="M 228.263724 22.423279 
L 230.742373 18.700874 
L 232.233107 22.917237 
z
" clip-path="url(#p1d256dc146)" style="fill: #add8e6; stroke: #add8e6; stroke-linecap: round"/>
   </g>
   <g id="patch_23">
    <path d="M 219.382057 17.181848 
Q 219.426585 16.268595 219.416665 16.47205 
" clip-path="url(#p1d256dc146)" style="fill: none; stroke: #add8e6; stroke-linecap: round"/>
    <path d="M 217.224238 20.369904 
L 219.416665 16.47205 
L 221.219492 20.564704 
z
" clip-path="url(#p1d256dc146)" style="fill: #add8e6; stroke: #add8e6; stroke-linecap: round"/>
   </g>
   <g id="patch_24">
    <path d="M 207.820578 13.52684 
Q 207.86579 14.433766 207.855335 14.224045 
" clip-path="url(#p1d256dc146)" style="fill: none; stroke: #add8e6; stroke-linecap: round"/>
    <path d="M 209.653694 10.129426 
L 207.855335 14.224045 
L 205.658655 10.328586 
z
" clip-path="url(#p1d256dc146)" style="fill: #add8e6; stroke: #add8e6; stroke-linecap: round"/>
   </g>
   <g id="patch_25">
    <path d="M 196.031822 13.594448 
Q 196.03311 13.604242 195.888614 12.505548 
" clip-path="url(#p1d256dc146)" style="fill: none; stroke: #add8e6; stroke-linecap: round"/>
    <path d="M 197.349968 8.278912 
L 195.888614 12.505548 
L 193.384118 8.800484 
z
" clip-path="url(#p1d256dc146)" style="fill: #add8e6; stroke: #add8e6; stroke-linecap: round"/>
   </g>
   <g id="patch_26">
    <path d="M 184.309656 13.541277 
Q 184.315635 13.566659 184.065263 12.503794 
" clip-path="url(#p1d256dc146)" style="fill: none; stroke: #add8e6; stroke-linecap: round"/>
    <path d="M 185.09483 8.151784 
L 184.065263 12.503794 
L 181.201395 9.068934 
z
" clip-path="url(#p1d256dc146)" style="fill: #add8e6; stroke: #add8e6; stroke-linecap: round"/>
   </g>
   <g id="patch_27">
    <path d="M 160.670147 13.426008 
Q 160.842054 13.922791 160.648347 13.36301 
" clip-path="url(#p1d256dc146)" style="fill: none; stroke: #add8e6; stroke-linecap: round"/>
    <path d="M 161.230327 8.928904 
L 160.648347 13.36301 
L 157.45025 10.236962 
z
" clip-path="url(#p1d256dc146)" style="fill: #add8e6; stroke: #add8e6; stroke-linecap: round"/>
   </g>
   <g id="patch_28">
    <path d="M 137.050632 13.248486 
Q 137.205886 13.573439 136.87916 12.889584 
" clip-path="url(#p1d256dc146)" style="fill: none; stroke: #add8e6; stroke-linecap: round"/>
    <path d="M 136.959387 8.418168 
L 136.87916 12.889584 
L 133.350163 10.142553 
z
" clip-path="url(#p1d256dc146)" style="fill: #add8e6; stroke: #add8e6; stroke-linecap: round"/>
   </g>
   <g id="patch_29">
    <path d="M 113.399849 13.01623 
Q 113.5631 13.281278 113.140017 12.594375 
" clip-path="url(#p1d256dc146)" style="fill: none; stroke: #add8e6; stroke-linecap: round"/>
    <path d="M 112.745189 8.139702 
L 113.140017 12.594375 
L 109.339382 10.237434 
z
" clip-path="url(#p1d256dc146)" style="fill: #add8e6; stroke: #add8e6; stroke-linecap: round"/>
   </g>
   <g id="patch_30">
    <path d="M 89.6999 12.745656 
Q 89.896336 13.004687 89.417201 12.372872 
" clip-path="url(#p1d256dc146)" style="fill: none; stroke: #add8e6; stroke-linecap: round"/>
    <path d="M 88.593801 7.977191 
L 89.417201 12.372872 
L 85.406616 10.394183 
z
" clip-path="url(#p1d256dc146)" style="fill: #add8e6; stroke: #add8e6; stroke-linecap: round"/>
   </g>
   <g id="patch_31">
    <path d="M 65.93796 12.442425 
Q 66.207224 12.739355 65.725444 12.208074 
" clip-path="url(#p1d256dc146)" style="fill: none; stroke: #add8e6; stroke-linecap: round"/>
    <path d="M 64.519977 7.901469 
L 65.725444 12.208074 
L 61.55688 10.588485 
z
" clip-path="url(#p1d256dc146)" style="fill: #add8e6; stroke: #add8e6; stroke-linecap: round"/>
   </g>
   <g id="patch_32">
    <path d="M 42.107184 12.129168 
Q 42.45394 12.458421 41.989928 12.017832 
" clip-path="url(#p1d256dc146)" style="fill: none; stroke: #add8e6; stroke-linecap: round"/>
    <path d="M 40.46637 7.813219 
L 41.989928 12.017832 
L 37.712103 10.71391 
z
" clip-path="url(#p1d256dc146)" style="fill: #add8e6; stroke: #add8e6; stroke-linecap: round"/>
   </g>
   <g id="patch_33">
    <path d="M 40.792356 36.048594 
Q 41.073119 35.708995 40.641488 36.231078 
" clip-path="url(#p1d256dc146)" style="fill: none; stroke: #add8e6; stroke-linecap: round"/>
    <path d="M 36.551328 38.039555 
L 40.641488 36.231078 
L 39.634175 40.588292 
z
" clip-path="url(#p1d256dc146)" style="fill: #add8e6; stroke: #add8e6; stroke-linecap: round"/>
   </g>
   <g id="patch_34">
    <path d="M 36.85486 68.317018 
Q 36.858733 68.29543 36.665172 69.374305 
" clip-path="url(#p1d256dc146)" style="fill: none; stroke: #add8e6; stroke-linecap: round"/>
    <path d="M 33.990241 72.958261 
L 36.665172 69.374305 
L 37.927379 73.664623 
z
" clip-path="url(#p1d256dc146)" style="fill: #add8e6; stroke: #add8e6; stroke-linecap: round"/>
   </g>
   <g id="patch_35">
    <path d="M 35.607253 109.737772 
Q 35.607458 109.731888 35.568657 110.843357 
" clip-path="url(#p1d256dc146)" style="fill: none; stroke: #add8e6; stroke-linecap: round"/>
    <path d="M 33.430319 114.771145 
L 35.568657 110.843357 
L 37.427884 114.9107 
z
" clip-path="url(#p1d256dc146)" style="fill: #add8e6; stroke: #add8e6; stroke-linecap: round"/>
   </g>
   <g id="patch_36">
    <path d="M 38.429873 174.122808 
Q 38.428088 174.109075 38.570407 175.204051 
" clip-path="url(#p1d256dc146)" style="fill: none; stroke: #add8e6; stroke-linecap: round"/>
    <path d="M 37.102651 179.428467 
L 38.570407 175.204051 
L 41.069287 178.912905 
z
" clip-path="url(#p1d256dc146)" style="fill: #add8e6; stroke: #add8e6; stroke-linecap: round"/>
   </g>
   <g id="patch_37">
    <path d="M 385.596316 124.430134 
Q 385.596291 124.43602 385.601124 123.323882 
" clip-path="url(#p1d256dc146)" style="fill: none; stroke: #add8e6; stroke-linecap: round"/>
    <path d="M 387.618487 119.332611 
L 385.601124 123.323882 
L 383.618525 119.315229 
z
" clip-path="url(#p1d256dc146)" style="fill: #add8e6; stroke: #add8e6; stroke-linecap: round"/>
   </g>
   <g id="patch_38">
    <path d="M 43.611792 75.265411 
Q 43.613659 75.251683 43.464922 76.3458 
" clip-path="url(#p1d256dc146)" style="fill: none; stroke: #add8e6; stroke-linecap: round"/>
    <path d="M 40.944338 80.039937 
L 43.464922 76.3458 
L 44.907882 80.57875 
z
" clip-path="url(#p1d256dc146)" style="fill: #add8e6; stroke: #add8e6; stroke-linecap: round"/>
   </g>
   <g id="patch_39">
    <path d="M 47.57717 141.260112 
Q 47.576989 141.254227 47.611088 142.365851 
" clip-path="url(#p1d256dc146)" style="fill: none; stroke: #add8e6; stroke-linecap: round"/>
    <path d="M 45.734669 146.425291 
L 47.611088 142.365851 
L 49.732789 146.30265 
z
" clip-path="url(#p1d256dc146)" style="fill: #add8e6; stroke: #add8e6; stroke-linecap: round"/>
   </g>
   <g id="patch_40">
    <path d="M 370.837391 188.872321 
Q 370.832273 188.897884 371.04663 187.827166 
" clip-path="url(#p1d256dc146)" style="fill: none; stroke: #add8e6; stroke-linecap: round"/>
    <path d="M 373.79293 184.297601 
L 371.04663 187.827166 
L 369.870758 183.512387 
z
" clip-path="url(#p1d256dc146)" style="fill: #add8e6; stroke: #add8e6; stroke-linecap: round"/>
   </g>
   <g id="patch_41">
    <path d="M 368.047563 99.096245 
Q 368.047784 99.102129 368.006088 97.990765 
" clip-path="url(#p1d256dc146)" style="fill: none; stroke: #add8e6; stroke-linecap: round"/>
    <path d="M 369.854716 93.918594 
L 368.006088 97.990765 
L 365.857528 94.06856 
z
" clip-path="url(#p1d256dc146)" style="fill: #add8e6; stroke: #add8e6; stroke-linecap: round"/>
   </g>
   <g id="patch_42">
    <path d="M 58.146217 51.018108 
Q 58.161477 50.969014 57.844874 51.987565 
" clip-path="url(#p1d256dc146)" style="fill: none; stroke: #add8e6; stroke-linecap: round"/>
    <path d="M 54.7477 55.213633 
L 57.844874 51.987565 
L 58.567424 56.400945 
z
" clip-path="url(#p1d256dc146)" style="fill: #add8e6; stroke: #add8e6; stroke-linecap: round"/>
   </g>
   <g id="patch_43">
    <path d="M 58.460975 148.419473 
Q 58.460722 148.41359 58.508524 149.524707 
" clip-path="url(#p1d256dc146)" style="fill: none; stroke: #add8e6; stroke-linecap: round"/>
    <path d="M 56.682302 153.606975 
L 58.508524 149.524707 
L 60.678605 153.435046 
z
" clip-path="url(#p1d256dc146)" style="fill: #add8e6; stroke: #add8e6; stroke-linecap: round"/>
   </g>
   <g id="patch_44">
    <path d="M 79.525261 123.387903 
Q 79.525284 123.382017 79.520924 124.494157 
" clip-path="url(#p1d256dc146)" style="fill: none; stroke: #add8e6; stroke-linecap: round"/>
    <path d="M 77.505257 128.486285 
L 79.520924 124.494157 
L 81.505226 128.501967 
z
" clip-path="url(#p1d256dc146)" style="fill: #add8e6; stroke: #add8e6; stroke-linecap: round"/>
   </g>
   <g id="patch_45">
    <path d="M 107.768263 121.912246 
Q 107.768291 121.90636 107.762902 123.018495 
" clip-path="url(#p1d256dc146)" style="fill: none; stroke: #add8e6; stroke-linecap: round"/>
    <path d="M 105.74354 127.008756 
L 107.762902 123.018495 
L 109.743493 127.02814 
z
" clip-path="url(#p1d256dc146)" style="fill: #add8e6; stroke: #add8e6; stroke-linecap: round"/>
   </g>
   <g id="patch_46">
    <path d="M 135.978821 127.388668 
Q 135.978813 127.382782 135.98024 128.494929 
" clip-path="url(#p1d256dc146)" style="fill: none; stroke: #add8e6; stroke-linecap: round"/>
    <path d="M 133.985375 132.497492 
L 135.98024 128.494929 
L 137.985372 132.492359 
z
" clip-path="url(#p1d256dc146)" style="fill: #add8e6; stroke: #add8e6; stroke-linecap: round"/>
   </g>
   <g id="patch_47">
    <path d="M 164.166276 124.957787 
Q 164.166279 124.951901 164.165702 126.064049 
" clip-path="url(#p1d256dc146)" style="fill: none; stroke: #add8e6; stroke-linecap: round"/>
    <path d="M 162.163627 130.063011 
L 164.165702 126.064049 
L 166.163627 130.065087 
z
" clip-path="url(#p1d256dc146)" style="fill: #add8e6; stroke: #add8e6; stroke-linecap: round"/>
   </g>
   <g id="patch_48">
    <path d="M 192.419946 129.163628 
Q 192.419942 129.157742 192.420748 130.26989 
" clip-path="url(#p1d256dc146)" style="fill: none; stroke: #add8e6; stroke-linecap: round"/>
    <path d="M 190.423645 134.271337 
L 192.420748 130.26989 
L 194.423644 134.268441 
z
" clip-path="url(#p1d256dc146)" style="fill: #add8e6; stroke: #add8e6; stroke-linecap: round"/>
   </g>
   <g id="patch_49">
    <path d="M 359.461945 180.879013 
Q 359.46007 180.89274 359.609506 179.798719 
" clip-path="url(#p1d256dc146)" style="fill: none; stroke: #add8e6; stroke-linecap: round"/>
    <path d="M 362.132454 176.106195 
L 359.609506 179.798719 
L 358.169255 175.564847 
z
" clip-path="url(#p1d256dc146)" style="fill: #add8e6; stroke: #add8e6; stroke-linecap: round"/>
   </g>
   <g id="patch_50">
    <path d="M 355.500136 106.830258 
Q 355.500267 106.836143 355.475599 105.724269 
" clip-path="url(#p1d256dc146)" style="fill: none; stroke: #add8e6; stroke-linecap: round"/>
    <path d="M 357.386384 101.680892 
L 355.475599 105.724269 
L 353.387368 101.769615 
z
" clip-path="url(#p1d256dc146)" style="fill: #add8e6; stroke: #add8e6; stroke-linecap: round"/>
   </g>
   <g id="patch_51">
    <path d="M 67.498192 66.90155 
Q 67.500913 66.883853 67.333746 67.971207 
" clip-path="url(#p1d256dc146)" style="fill: none; stroke: #add8e6; stroke-linecap: round"/>
    <path d="M 64.74916 71.620853 
L 67.333746 67.971207 
L 68.702711 72.228663 
z
" clip-path="url(#p1d256dc146)" style="fill: #add8e6; stroke: #add8e6; stroke-linecap: round"/>
   </g>
   <g id="patch_52">
    <path d="M 71.298619 140.697382 
Q 71.298472 140.691497 71.326265 141.803297 
" clip-path="url(#p1d256dc146)" style="fill: none; stroke: #add8e6; stroke-linecap: round"/>
    <path d="M 69.426851 145.852028 
L 71.326265 141.803297 
L 73.425602 145.752067 
z
" clip-path="url(#p1d256dc146)" style="fill: #add8e6; stroke: #add8e6; stroke-linecap: round"/>
   </g>
   <g id="patch_53">
    <path d="M 155.286208 185.061369 
Q 155.285858 185.055488 155.351838 186.165672 
" clip-path="url(#p1d256dc146)" style="fill: none; stroke: #add8e6; stroke-linecap: round"/>
    <path d="M 153.592669 190.27728 
L 155.351838 186.165672 
L 157.585623 190.039972 
z
" clip-path="url(#p1d256dc146)" style="fill: #add8e6; stroke: #add8e6; stroke-linecap: round"/>
   </g>
   <g id="patch_54">
    <path d="M 180.42006 128.853932 
Q 180.420054 128.848046 180.421232 129.960193 
" clip-path="url(#p1d256dc146)" style="fill: none; stroke: #add8e6; stroke-linecap: round"/>
    <path d="M 178.42547 133.96231 
L 180.421232 129.960193 
L 182.425468 133.958072 
z
" clip-path="url(#p1d256dc146)" style="fill: #add8e6; stroke: #add8e6; stroke-linecap: round"/>
   </g>
   <g id="patch_55">
    <path d="M 207.046048 128.820951 
Q 207.046047 128.815065 207.04627 129.927213 
" clip-path="url(#p1d256dc146)" style="fill: none; stroke: #add8e6; stroke-linecap: round"/>
    <path d="M 205.04707 133.927614 
L 207.04627 129.927213 
L 209.04707 133.926813 
z
" clip-path="url(#p1d256dc146)" style="fill: #add8e6; stroke: #add8e6; stroke-linecap: round"/>
   </g>
   <g id="patch_56">
    <path d="M 220.329147 124.802892 
Q 220.329146 124.808778 220.329367 123.69663 
" clip-path="url(#p1d256dc146)" style="fill: none; stroke: #add8e6; stroke-linecap: round"/>
    <path d="M 222.330163 119.697028 
L 220.329367 123.69663 
L 218.330163 119.696232 
z
" clip-path="url(#p1d256dc146)" style="fill: #add8e6; stroke: #add8e6; stroke-linecap: round"/>
   </g>
   <g id="patch_57">
    <path d="M 233.622681 124.813666 
Q 233.622678 124.819552 233.623355 123.707404 
" clip-path="url(#p1d256dc146)" style="fill: none; stroke: #add8e6; stroke-linecap: round"/>
    <path d="M 235.625789 119.708622 
L 233.623355 123.707404 
L 231.62579 119.706188 
z
" clip-path="url(#p1d256dc146)" style="fill: #add8e6; stroke: #add8e6; stroke-linecap: round"/>
   </g>
   <g id="patch_58">
    <path d="M 246.915901 124.835159 
Q 246.915895 124.841045 246.917036 123.728898 
" clip-path="url(#p1d256dc146)" style="fill: none; stroke: #add8e6; stroke-linecap: round"/>
    <path d="M 248.921136 119.73095 
L 246.917036 123.728898 
L 244.921138 119.726849 
z
" clip-path="url(#p1d256dc146)" style="fill: #add8e6; stroke: #add8e6; stroke-linecap: round"/>
   </g>
   <g id="patch_59">
    <path d="M 260.204578 124.867241 
Q 260.20457 124.873127 260.206182 123.76098 
" clip-path="url(#p1d256dc146)" style="fill: none; stroke: #add8e6; stroke-linecap: round"/>
    <path d="M 262.211979 119.763884 
L 260.206182 123.76098 
L 258.211983 119.758085 
z
" clip-path="url(#p1d256dc146)" style="fill: #add8e6; stroke: #add8e6; stroke-linecap: round"/>
   </g>
   <g id="patch_60">
    <path d="M 273.487657 124.909768 
Q 273.487646 124.915654 273.489743 123.803508 
" clip-path="url(#p1d256dc146)" style="fill: none; stroke: #add8e6; stroke-linecap: round"/>
    <path d="M 275.497279 119.807285 
L 273.489743 123.803508 
L 271.497286 119.799745 
z
" clip-path="url(#p1d256dc146)" style="fill: #add8e6; stroke: #add8e6; stroke-linecap: round"/>
   </g>
   <g id="patch_61">
    <path d="M 286.76485 124.962592 
Q 286.764836 124.968478 286.767433 123.856332 
" clip-path="url(#p1d256dc146)" style="fill: none; stroke: #add8e6; stroke-linecap: round"/>
    <path d="M 288.776766 119.861013 
L 286.767433 123.856332 
L 284.776777 119.851674 
z
" clip-path="url(#p1d256dc146)" style="fill: #add8e6; stroke: #add8e6; stroke-linecap: round"/>
   </g>
   <g id="patch_62">
    <path d="M 300.036132 125.025562 
Q 300.036115 125.031448 300.039232 123.919304 
" clip-path="url(#p1d256dc146)" style="fill: none; stroke: #add8e6; stroke-linecap: round"/>
    <path d="M 302.050433 119.924924 
L 300.039232 123.919304 
L 298.050449 119.913715 
z
" clip-path="url(#p1d256dc146)" style="fill: #add8e6; stroke: #add8e6; stroke-linecap: round"/>
   </g>
   <g id="patch_63">
    <path d="M 313.301589 125.098528 
Q 313.30157 125.104414 313.305231 123.992272 
" clip-path="url(#p1d256dc146)" style="fill: none; stroke: #add8e6; stroke-linecap: round"/>
    <path d="M 315.318386 119.998877 
L 313.305231 123.992272 
L 311.318408 119.98571 
z
" clip-path="url(#p1d256dc146)" style="fill: #add8e6; stroke: #add8e6; stroke-linecap: round"/>
   </g>
   <g id="patch_64">
    <path d="M 326.561367 125.18134 
Q 326.561344 125.187225 326.565577 124.075085 
" clip-path="url(#p1d256dc146)" style="fill: none; stroke: #add8e6; stroke-linecap: round"/>
    <path d="M 328.580786 120.082726 
L 326.565577 124.075085 
L 324.580815 120.067503 
z
" clip-path="url(#p1d256dc146)" style="fill: #add8e6; stroke: #add8e6; stroke-linecap: round"/>
   </g>
   <g id="patch_65">
    <path d="M 339.81564 125.273847 
Q 339.815614 125.279732 339.82045 124.167595 
" clip-path="url(#p1d256dc146)" style="fill: none; stroke: #add8e6; stroke-linecap: round"/>
    <path d="M 341.837824 120.176329 
L 339.82045 124.167595 
L 337.837862 120.158936 
z
" clip-path="url(#p1d256dc146)" style="fill: #add8e6; stroke: #add8e6; stroke-linecap: round"/>
   </g>
   <g id="patch_66">
    <path d="M 344.235502 196.759329 
Q 344.227432 196.792745 344.481823 195.73937 
" clip-path="url(#p1d256dc146)" style="fill: none; stroke: #add8e6; stroke-linecap: round"/>
    <path d="M 347.364942 192.320653 
L 344.481823 195.73937 
L 343.476721 191.381644 
z
" clip-path="url(#p1d256dc146)" style="fill: #add8e6; stroke: #add8e6; stroke-linecap: round"/>
   </g>
   <g id="patch_67">
    <path d="M 343.263314 47.028307 
Q 343.271384 47.061723 343.016993 46.008348 
" clip-path="url(#p1d256dc146)" style="fill: none; stroke: #add8e6; stroke-linecap: round"/>
    <path d="M 344.022095 41.650622 
L 343.016993 46.008348 
L 340.133874 42.589631 
z
" clip-path="url(#p1d256dc146)" style="fill: #add8e6; stroke: #add8e6; stroke-linecap: round"/>
   </g>
   <g id="patch_68">
    <path d="M 155.047608 66.766579 
Q 155.047957 66.760698 154.981977 67.870882 
" clip-path="url(#p1d256dc146)" style="fill: none; stroke: #add8e6; stroke-linecap: round"/>
    <path d="M 152.748193 71.745183 
L 154.981977 67.870882 
L 156.741147 71.98249 
z
" clip-path="url(#p1d256dc146)" style="fill: #add8e6; stroke: #add8e6; stroke-linecap: round"/>
   </g>
   <g id="patch_69">
    <path d="M 93.453577 184.853723 
Q 93.451857 184.839987 93.589055 185.93562 
" clip-path="url(#p1d256dc146)" style="fill: none; stroke: #add8e6; stroke-linecap: round"/>
    <path d="M 92.101564 190.153127 
L 93.589055 185.93562 
L 96.070567 189.656118 
z
" clip-path="url(#p1d256dc146)" style="fill: #add8e6; stroke: #add8e6; stroke-linecap: round"/>
   </g>
   <g id="patch_70">
    <path d="M 116.261292 128.678198 
Q 116.261275 128.672313 116.264668 129.784456 
" clip-path="url(#p1d256dc146)" style="fill: none; stroke: #add8e6; stroke-linecap: round"/>
    <path d="M 114.276882 133.79054 
L 116.264668 129.784456 
L 118.276864 133.778335 
z
" clip-path="url(#p1d256dc146)" style="fill: #add8e6; stroke: #add8e6; stroke-linecap: round"/>
   </g>
   <g id="patch_71">
    <path d="M 142.283368 128.614467 
Q 142.283355 128.608581 142.28575 129.720727 
" clip-path="url(#p1d256dc146)" style="fill: none; stroke: #add8e6; stroke-linecap: round"/>
    <path d="M 140.294367 133.725024 
L 142.28575 129.720727 
L 144.294358 133.716412 
z
" clip-path="url(#p1d256dc146)" style="fill: #add8e6; stroke: #add8e6; stroke-linecap: round"/>
   </g>
   <g id="patch_72">
    <path d="M 92.12445 74.978682 
Q 92.125393 74.968855 92.019532 76.07195 
" clip-path="url(#p1d256dc146)" style="fill: none; stroke: #add8e6; stroke-linecap: round"/>
    <path d="M 89.646565 79.8626 
L 92.019532 76.07195 
L 93.628272 80.244713 
z
" clip-path="url(#p1d256dc146)" style="fill: #add8e6; stroke: #add8e6; stroke-linecap: round"/>
   </g>
   <g id="patch_73">
    <path d="M 96.592731 125.222821 
Q 96.592736 125.216935 96.591703 126.329083 
" clip-path="url(#p1d256dc146)" style="fill: none; stroke: #add8e6; stroke-linecap: round"/>
    <path d="M 94.587988 130.327223 
L 96.591703 126.329083 
L 98.587986 130.330939 
z
" clip-path="url(#p1d256dc146)" style="fill: #add8e6; stroke: #add8e6; stroke-linecap: round"/>
   </g>
   <g id="patch_74">
    <path d="M 293.788414 122.589562 
Q 293.788411 122.595447 293.789053 121.483299 
" clip-path="url(#p1d256dc146)" style="fill: none; stroke: #add8e6; stroke-linecap: round"/>
    <path d="M 295.791364 117.484455 
L 293.789053 121.483299 
L 291.791364 117.482145 
z
" clip-path="url(#p1d256dc146)" style="fill: #add8e6; stroke: #add8e6; stroke-linecap: round"/>
   </g>
   <g id="patch_75">
    <path d="M 170.447676 126.884125 
Q 170.447673 126.878239 170.448188 127.990387 
" clip-path="url(#p1d256dc146)" style="fill: none; stroke: #add8e6; stroke-linecap: round"/>
    <path d="M 168.45004 131.991312 
L 170.448188 127.990387 
L 172.45004 131.98946 
z
" clip-path="url(#p1d256dc146)" style="fill: #add8e6; stroke: #add8e6; stroke-linecap: round"/>
   </g>
   <g id="line2d_107">
    <path d="M 65.113686 123.906623 
L 65.856558 95.103669 
L 66.59943 83.96837 
L 67.342301 75.937852 
L 68.085173 69.57656 
L 68.828045 64.313351 
L 70.313788 55.995665 
L 71.799532 49.679144 
L 73.285275 44.734061 
L 74.771019 40.792665 
L 76.256762 37.615509 
L 77.742506 35.035458 
L 79.228249 32.930178 
L 80.713992 31.207053 
L 82.199736 29.79422 
L 83.685479 28.634886 
L 85.171223 27.683549 
L 87.399838 26.567856 
L 89.628453 25.741697 
L 91.857068 25.132666 
L 94.828555 24.566413 
L 98.542914 24.128266 
L 103.000144 23.845888 
L 109.68599 23.680663 
L 121.571937 23.664791 
L 168.372856 23.977761 
L 285.003717 24.946655 
L 322.890175 25.400512 
L 329.57602 25.682375 
L 334.033251 26.081923 
L 337.004738 26.538901 
L 339.233353 27.043933 
L 341.461968 27.751508 
L 343.690583 28.743792 
L 345.176327 29.619008 
L 346.66207 30.717228 
L 348.147814 32.097096 
L 349.633557 33.834459 
L 351.1193 36.028918 
L 352.605044 38.814105 
L 354.090787 42.374762 
L 355.576531 46.97761 
L 357.062274 53.033585 
L 357.805146 56.806647 
L 358.548018 61.245125 
L 359.290889 66.552051 
L 360.033761 73.058736 
L 360.776633 81.390662 
L 361.519505 93.109472 
L 362.262376 123.906623 
L 361.519505 154.703774 
L 360.776633 166.422584 
L 360.033761 174.75451 
L 359.290889 181.261195 
L 358.548018 186.568121 
L 357.062274 194.77966 
L 355.576531 200.835636 
L 354.090787 205.438484 
L 352.605044 208.999141 
L 351.1193 211.784328 
L 349.633557 213.978787 
L 348.147814 215.71615 
L 346.66207 217.096018 
L 345.176327 218.194238 
L 343.690583 219.069454 
L 341.461968 220.061738 
L 339.233353 220.769313 
L 336.261866 221.408331 
L 333.290379 221.817244 
L 328.833149 222.175927 
L 322.147303 222.431983 
L 309.518484 222.628992 
L 244.888644 223.224376 
L 129.743526 224.104382 
L 108.943118 224.123354 
L 102.257272 223.93327 
L 97.800042 223.615616 
L 94.085683 223.126847 
L 91.114197 222.498026 
L 88.885581 221.823438 
L 86.656966 220.909872 
L 84.428351 219.677548 
L 82.942608 218.627307 
L 81.456864 217.347545 
L 79.971121 215.7875 
L 78.485377 213.883415 
L 76.999634 211.553921 
L 75.51389 208.692954 
L 74.028147 205.158229 
L 72.542403 200.751101 
L 71.05666 195.177949 
L 69.570917 187.965744 
L 68.828045 183.499895 
L 68.085173 178.236686 
L 67.342301 171.875394 
L 66.59943 163.844876 
L 65.856558 152.709577 
L 65.113686 123.906623 
L 65.113686 123.906623 
" clip-path="url(#p1d256dc146)" style="fill: none; stroke: #00008b; stroke-width: 2; stroke-linecap: square"/>
   </g>
   <g id="patch_76">
    <path d="M 35.398817 244.213246 
L 35.398817 3.6 
" style="fill: none; stroke: #000000; stroke-width: 0.5; stroke-linejoin: miter; stroke-linecap: square"/>
   </g>
   <g id="patch_77">
    <path d="M 391.977245 244.213246 
L 391.977245 3.6 
" style="fill: none; stroke: #000000; stroke-width: 0.5; stroke-linejoin: miter; stroke-linecap: square"/>
   </g>
   <g id="patch_78">
    <path d="M 35.398817 244.213246 
L 391.977245 244.213246 
" style="fill: none; stroke: #000000; stroke-width: 0.5; stroke-linejoin: miter; stroke-linecap: square"/>
   </g>
   <g id="patch_79">
    <path d="M 35.398817 3.6 
L 391.977245 3.6 
" style="fill: none; stroke: #000000; stroke-width: 0.5; stroke-linejoin: miter; stroke-linecap: square"/>
   </g>
   <g id="text_11">
    <g id="patch_80">
     <path d="M 375.398817 243.10131 
L 383.581572 243.10131 
Q 388.981572 243.10131 388.981572 237.70131 
L 388.981572 221.759946 
Q 388.981572 216.359946 383.581572 216.359946 
L 375.398817 216.359946 
Q 369.998817 216.359946 369.998817 221.759946 
L 369.998817 237.70131 
Q 369.998817 243.10131 375.398817 243.10131 
z
" style="fill: #ffffff; opacity: 0.8"/>
    </g>
    <!-- $\theta$ -->
    <g transform="translate(375.398817 234.213246) scale(0.18 -0.18)">
     <defs>
      <path id="CMMI12-12" d="M 2835 3200 
C 2835 3850 2630 4480 2106 4480 
C 1210 4480 256 2615 256 1216 
C 256 923 320 -64 992 -64 
C 1862 -64 2835 1756 2835 3200 
z
M 896 2304 
C 992 2679 1126 3214 1382 3665 
C 1594 4047 1818 4352 2099 4352 
C 2310 4352 2451 4174 2451 3564 
C 2451 3334 2432 3017 2246 2304 
L 896 2304 
z
M 2202 2113 
C 2042 1490 1907 1088 1677 687 
C 1491 363 1267 64 998 64 
C 800 64 640 217 640 846 
C 640 1260 742 1693 845 2113 
L 2202 2113 
z
" transform="scale(0.015625)"/>
     </defs>
     <use xlink:href="#CMMI12-12" transform="scale(0.996264)"/>
    </g>
   </g>
   <g id="text_12">
    <g id="patch_81">
     <path d="M 43.398817 43.10131 
L 51.581572 43.10131 
Q 56.981572 43.10131 56.981572 37.70131 
L 56.981572 21.204397 
Q 56.981572 15.804397 51.581572 15.804397 
L 43.398817 15.804397 
Q 37.998817 15.804397 37.998817 21.204397 
L 37.998817 37.70131 
Q 37.998817 43.10131 43.398817 43.10131 
z
" style="fill: #ffffff; opacity: 0.8"/>
    </g>
    <!-- $\dot\theta$ -->
    <g transform="translate(43.398817 34.213246) scale(0.18 -0.18)">
     <defs>
      <path id="CMR17-5f" d="M 1056 3909 
C 1056 4062 934 4170 800 4170 
C 646 4170 538 4049 538 3909 
C 538 3756 659 3648 794 3648 
C 947 3648 1056 3769 1056 3909 
z
" transform="scale(0.015625)"/>
     </defs>
     <use xlink:href="#CMR17-5f" transform="translate(19.778385 26.296621) scale(0.996264)"/>
     <use xlink:href="#CMMI12-12" transform="scale(0.996264)"/>
    </g>
   </g>
  </g>
 </g>
 <defs>
  <clipPath id="p1d256dc146">
   <rect x="35.398817" y="3.6" width="356.578428" height="240.613246"/>
  </clipPath>
 </defs>
</svg>
