<?xml version="1.0" encoding="utf-8" standalone="no"?>
<!DOCTYPE svg PUBLIC "-//W3C//DTD SVG 1.1//EN"
  "http://www.w3.org/Graphics/SVG/1.1/DTD/svg11.dtd">
<svg xmlns:xlink="http://www.w3.org/1999/xlink" width="406.199339pt" height="263.711151pt" viewBox="0 0 406.199339 263.711151" xmlns="http://www.w3.org/2000/svg" version="1.1">
 <metadata>
  <rdf:RDF xmlns:dc="http://purl.org/dc/elements/1.1/" xmlns:cc="http://creativecommons.org/ns#" xmlns:rdf="http://www.w3.org/1999/02/22-rdf-syntax-ns#">
   <cc:Work>
    <dc:type rdf:resource="http://purl.org/dc/dcmitype/StillImage"/>
    <dc:date>2024-11-09T01:47:56.888123</dc:date>
    <dc:format>image/svg+xml</dc:format>
    <dc:creator>
     <cc:Agent>
      <dc:title>Matplotlib v3.9.2, https://matplotlib.org/</dc:title>
     </cc:Agent>
    </dc:creator>
   </cc:Work>
  </rdf:RDF>
 </metadata>
 <defs>
  <style type="text/css">*{stroke-linejoin: round; stroke-linecap: butt}</style>
 </defs>
 <g id="figure_1">
  <g id="patch_1">
   <path d="M -0 263.711151 
L 406.199339 263.711151 
L 406.199339 0 
L -0 0 
z
" style="fill: #ffffff"/>
  </g>
  <g id="axes_1">
   <g id="patch_2">
    <path d="M 35.398817 244.213246 
L 402.599339 244.213246 
L 402.599339 3.6 
L 35.398817 3.6 
z
" style="fill: #ffffff"/>
   </g>
   <g id="matplotlib.axis_1">
    <g id="xtick_1">
     <g id="line2d_1">
      <defs>
       <path id="m51877fa218" d="M 0 0 
L 0 -3 
" style="stroke: #000000; stroke-width: 0.5"/>
      </defs>
      <g>
       <use xlink:href="#m51877fa218" x="65.998861" y="244.213246" style="stroke: #000000; stroke-width: 0.5"/>
      </g>
     </g>
     <g id="line2d_2">
      <defs>
       <path id="m5ead2beaee" d="M 0 0 
L 0 3 
" style="stroke: #000000; stroke-width: 0.5"/>
      </defs>
      <g>
       <use xlink:href="#m5ead2beaee" x="65.998861" y="3.6" style="stroke: #000000; stroke-width: 0.5"/>
      </g>
     </g>
     <g id="text_1">
      <!-- $\mathdefault{−0.02}$ -->
      <g transform="translate(48.435208 257.399122) scale(0.14 -0.14)">
       <defs>
        <path id="CMSY10-0" d="M 4218 1472 
C 4326 1472 4442 1472 4442 1600 
C 4442 1728 4326 1728 4218 1728 
L 755 1728 
C 646 1728 531 1728 531 1600 
C 531 1472 646 1472 755 1472 
L 4218 1472 
z
" transform="scale(0.015625)"/>
        <path id="CMR17-30" d="M 2688 2025 
C 2688 2416 2682 3080 2413 3591 
C 2176 4039 1798 4198 1466 4198 
C 1158 4198 768 4058 525 3597 
C 269 3118 243 2524 243 2025 
C 243 1661 250 1106 448 619 
C 723 -39 1216 -128 1466 -128 
C 1760 -128 2208 -7 2470 600 
C 2662 1042 2688 1559 2688 2025 
z
M 1466 -26 
C 1056 -26 813 325 723 812 
C 653 1188 653 1738 653 2096 
C 653 2588 653 2997 736 3387 
C 858 3929 1216 4096 1466 4096 
C 1728 4096 2067 3923 2189 3400 
C 2272 3036 2278 2607 2278 2096 
C 2278 1680 2278 1169 2202 792 
C 2067 95 1690 -26 1466 -26 
z
" transform="scale(0.015625)"/>
        <path id="CMMI12-3a" d="M 1178 307 
C 1178 492 1024 619 870 619 
C 685 619 557 466 557 313 
C 557 128 710 0 864 0 
C 1050 0 1178 153 1178 307 
z
" transform="scale(0.015625)"/>
        <path id="CMR17-32" d="M 2669 989 
L 2554 989 
C 2490 536 2438 459 2413 420 
C 2381 369 1920 369 1830 369 
L 602 369 
C 832 619 1280 1072 1824 1597 
C 2214 1967 2669 2402 2669 3035 
C 2669 3790 2067 4224 1395 4224 
C 691 4224 262 3604 262 3030 
C 262 2780 448 2748 525 2748 
C 589 2748 781 2787 781 3010 
C 781 3207 614 3264 525 3264 
C 486 3264 448 3258 422 3245 
C 544 3790 915 4058 1306 4058 
C 1862 4058 2227 3617 2227 3035 
C 2227 2479 1901 2000 1536 1584 
L 262 146 
L 262 0 
L 2515 0 
L 2669 989 
z
" transform="scale(0.015625)"/>
       </defs>
       <use xlink:href="#CMSY10-0" transform="scale(0.996264)"/>
       <use xlink:href="#CMR17-30" transform="translate(77.487468 0) scale(0.996264)"/>
       <use xlink:href="#CMMI12-3a" transform="translate(123.177945 0) scale(0.996264)"/>
       <use xlink:href="#CMR17-30" transform="translate(150.275122 0) scale(0.996264)"/>
       <use xlink:href="#CMR17-32" transform="translate(195.965599 0) scale(0.996264)"/>
      </g>
     </g>
    </g>
    <g id="xtick_2">
     <g id="line2d_3">
      <g>
       <use xlink:href="#m51877fa218" x="142.498969" y="244.213246" style="stroke: #000000; stroke-width: 0.5"/>
      </g>
     </g>
     <g id="line2d_4">
      <g>
       <use xlink:href="#m5ead2beaee" x="142.498969" y="3.6" style="stroke: #000000; stroke-width: 0.5"/>
      </g>
     </g>
     <g id="text_2">
      <!-- $\mathdefault{−0.01}$ -->
      <g transform="translate(124.935316 257.399122) scale(0.14 -0.14)">
       <defs>
        <path id="CMR17-31" d="M 1702 4058 
C 1702 4192 1696 4192 1606 4192 
C 1357 3916 979 3827 621 3827 
C 602 3827 570 3827 563 3808 
C 557 3795 557 3782 557 3648 
C 755 3648 1088 3686 1344 3839 
L 1344 461 
C 1344 236 1331 160 781 160 
L 589 160 
L 589 0 
C 896 0 1216 0 1523 0 
C 1830 0 2150 0 2458 0 
L 2458 160 
L 2266 160 
C 1715 160 1702 230 1702 458 
L 1702 4058 
z
" transform="scale(0.015625)"/>
       </defs>
       <use xlink:href="#CMSY10-0" transform="scale(0.996264)"/>
       <use xlink:href="#CMR17-30" transform="translate(77.487468 0) scale(0.996264)"/>
       <use xlink:href="#CMMI12-3a" transform="translate(123.177945 0) scale(0.996264)"/>
       <use xlink:href="#CMR17-30" transform="translate(150.275122 0) scale(0.996264)"/>
       <use xlink:href="#CMR17-31" transform="translate(195.965599 0) scale(0.996264)"/>
      </g>
     </g>
    </g>
    <g id="xtick_3">
     <g id="line2d_5">
      <g>
       <use xlink:href="#m51877fa218" x="218.999078" y="244.213246" style="stroke: #000000; stroke-width: 0.5"/>
      </g>
     </g>
     <g id="line2d_6">
      <g>
       <use xlink:href="#m5ead2beaee" x="218.999078" y="3.6" style="stroke: #000000; stroke-width: 0.5"/>
      </g>
     </g>
     <g id="text_3">
      <!-- $\mathdefault{0.00}$ -->
      <g transform="translate(206.859543 257.399122) scale(0.14 -0.14)">
       <use xlink:href="#CMR17-30" transform="scale(0.996264)"/>
       <use xlink:href="#CMMI12-3a" transform="translate(45.690477 0) scale(0.996264)"/>
       <use xlink:href="#CMR17-30" transform="translate(72.787654 0) scale(0.996264)"/>
       <use xlink:href="#CMR17-30" transform="translate(118.478131 0) scale(0.996264)"/>
      </g>
     </g>
    </g>
    <g id="xtick_4">
     <g id="line2d_7">
      <g>
       <use xlink:href="#m51877fa218" x="295.499187" y="244.213246" style="stroke: #000000; stroke-width: 0.5"/>
      </g>
     </g>
     <g id="line2d_8">
      <g>
       <use xlink:href="#m5ead2beaee" x="295.499187" y="3.6" style="stroke: #000000; stroke-width: 0.5"/>
      </g>
     </g>
     <g id="text_4">
      <!-- $\mathdefault{0.01}$ -->
      <g transform="translate(283.359651 257.399122) scale(0.14 -0.14)">
       <use xlink:href="#CMR17-30" transform="scale(0.996264)"/>
       <use xlink:href="#CMMI12-3a" transform="translate(45.690477 0) scale(0.996264)"/>
       <use xlink:href="#CMR17-30" transform="translate(72.787654 0) scale(0.996264)"/>
       <use xlink:href="#CMR17-31" transform="translate(118.478131 0) scale(0.996264)"/>
      </g>
     </g>
    </g>
    <g id="xtick_5">
     <g id="line2d_9">
      <g>
       <use xlink:href="#m51877fa218" x="371.999295" y="244.213246" style="stroke: #000000; stroke-width: 0.5"/>
      </g>
     </g>
     <g id="line2d_10">
      <g>
       <use xlink:href="#m5ead2beaee" x="371.999295" y="3.6" style="stroke: #000000; stroke-width: 0.5"/>
      </g>
     </g>
     <g id="text_5">
      <!-- $\mathdefault{0.02}$ -->
      <g transform="translate(359.85976 257.399122) scale(0.14 -0.14)">
       <use xlink:href="#CMR17-30" transform="scale(0.996264)"/>
       <use xlink:href="#CMMI12-3a" transform="translate(45.690477 0) scale(0.996264)"/>
       <use xlink:href="#CMR17-30" transform="translate(72.787654 0) scale(0.996264)"/>
       <use xlink:href="#CMR17-32" transform="translate(118.478131 0) scale(0.996264)"/>
      </g>
     </g>
    </g>
    <g id="xtick_6">
     <g id="line2d_11">
      <defs>
       <path id="mabf858410a" d="M 0 0 
L 0 -1.5 
" style="stroke: #000000; stroke-width: 0.5"/>
      </defs>
      <g>
       <use xlink:href="#mabf858410a" x="35.398817" y="244.213246" style="stroke: #000000; stroke-width: 0.5"/>
      </g>
     </g>
     <g id="line2d_12">
      <defs>
       <path id="m8aa664e8e0" d="M 0 0 
L 0 1.5 
" style="stroke: #000000; stroke-width: 0.5"/>
      </defs>
      <g>
       <use xlink:href="#m8aa664e8e0" x="35.398817" y="3.6" style="stroke: #000000; stroke-width: 0.5"/>
      </g>
     </g>
    </g>
    <g id="xtick_7">
     <g id="line2d_13">
      <g>
       <use xlink:href="#mabf858410a" x="50.698839" y="244.213246" style="stroke: #000000; stroke-width: 0.5"/>
      </g>
     </g>
     <g id="line2d_14">
      <g>
       <use xlink:href="#m8aa664e8e0" x="50.698839" y="3.6" style="stroke: #000000; stroke-width: 0.5"/>
      </g>
     </g>
    </g>
    <g id="xtick_8">
     <g id="line2d_15">
      <g>
       <use xlink:href="#mabf858410a" x="81.298882" y="244.213246" style="stroke: #000000; stroke-width: 0.5"/>
      </g>
     </g>
     <g id="line2d_16">
      <g>
       <use xlink:href="#m8aa664e8e0" x="81.298882" y="3.6" style="stroke: #000000; stroke-width: 0.5"/>
      </g>
     </g>
    </g>
    <g id="xtick_9">
     <g id="line2d_17">
      <g>
       <use xlink:href="#mabf858410a" x="96.598904" y="244.213246" style="stroke: #000000; stroke-width: 0.5"/>
      </g>
     </g>
     <g id="line2d_18">
      <g>
       <use xlink:href="#m8aa664e8e0" x="96.598904" y="3.6" style="stroke: #000000; stroke-width: 0.5"/>
      </g>
     </g>
    </g>
    <g id="xtick_10">
     <g id="line2d_19">
      <g>
       <use xlink:href="#mabf858410a" x="111.898926" y="244.213246" style="stroke: #000000; stroke-width: 0.5"/>
      </g>
     </g>
     <g id="line2d_20">
      <g>
       <use xlink:href="#m8aa664e8e0" x="111.898926" y="3.6" style="stroke: #000000; stroke-width: 0.5"/>
      </g>
     </g>
    </g>
    <g id="xtick_11">
     <g id="line2d_21">
      <g>
       <use xlink:href="#mabf858410a" x="127.198948" y="244.213246" style="stroke: #000000; stroke-width: 0.5"/>
      </g>
     </g>
     <g id="line2d_22">
      <g>
       <use xlink:href="#m8aa664e8e0" x="127.198948" y="3.6" style="stroke: #000000; stroke-width: 0.5"/>
      </g>
     </g>
    </g>
    <g id="xtick_12">
     <g id="line2d_23">
      <g>
       <use xlink:href="#mabf858410a" x="157.798991" y="244.213246" style="stroke: #000000; stroke-width: 0.5"/>
      </g>
     </g>
     <g id="line2d_24">
      <g>
       <use xlink:href="#m8aa664e8e0" x="157.798991" y="3.6" style="stroke: #000000; stroke-width: 0.5"/>
      </g>
     </g>
    </g>
    <g id="xtick_13">
     <g id="line2d_25">
      <g>
       <use xlink:href="#mabf858410a" x="173.099013" y="244.213246" style="stroke: #000000; stroke-width: 0.5"/>
      </g>
     </g>
     <g id="line2d_26">
      <g>
       <use xlink:href="#m8aa664e8e0" x="173.099013" y="3.6" style="stroke: #000000; stroke-width: 0.5"/>
      </g>
     </g>
    </g>
    <g id="xtick_14">
     <g id="line2d_27">
      <g>
       <use xlink:href="#mabf858410a" x="188.399035" y="244.213246" style="stroke: #000000; stroke-width: 0.5"/>
      </g>
     </g>
     <g id="line2d_28">
      <g>
       <use xlink:href="#m8aa664e8e0" x="188.399035" y="3.6" style="stroke: #000000; stroke-width: 0.5"/>
      </g>
     </g>
    </g>
    <g id="xtick_15">
     <g id="line2d_29">
      <g>
       <use xlink:href="#mabf858410a" x="203.699056" y="244.213246" style="stroke: #000000; stroke-width: 0.5"/>
      </g>
     </g>
     <g id="line2d_30">
      <g>
       <use xlink:href="#m8aa664e8e0" x="203.699056" y="3.6" style="stroke: #000000; stroke-width: 0.5"/>
      </g>
     </g>
    </g>
    <g id="xtick_16">
     <g id="line2d_31">
      <g>
       <use xlink:href="#mabf858410a" x="234.2991" y="244.213246" style="stroke: #000000; stroke-width: 0.5"/>
      </g>
     </g>
     <g id="line2d_32">
      <g>
       <use xlink:href="#m8aa664e8e0" x="234.2991" y="3.6" style="stroke: #000000; stroke-width: 0.5"/>
      </g>
     </g>
    </g>
    <g id="xtick_17">
     <g id="line2d_33">
      <g>
       <use xlink:href="#mabf858410a" x="249.599121" y="244.213246" style="stroke: #000000; stroke-width: 0.5"/>
      </g>
     </g>
     <g id="line2d_34">
      <g>
       <use xlink:href="#m8aa664e8e0" x="249.599121" y="3.6" style="stroke: #000000; stroke-width: 0.5"/>
      </g>
     </g>
    </g>
    <g id="xtick_18">
     <g id="line2d_35">
      <g>
       <use xlink:href="#mabf858410a" x="264.899143" y="244.213246" style="stroke: #000000; stroke-width: 0.5"/>
      </g>
     </g>
     <g id="line2d_36">
      <g>
       <use xlink:href="#m8aa664e8e0" x="264.899143" y="3.6" style="stroke: #000000; stroke-width: 0.5"/>
      </g>
     </g>
    </g>
    <g id="xtick_19">
     <g id="line2d_37">
      <g>
       <use xlink:href="#mabf858410a" x="280.199165" y="244.213246" style="stroke: #000000; stroke-width: 0.5"/>
      </g>
     </g>
     <g id="line2d_38">
      <g>
       <use xlink:href="#m8aa664e8e0" x="280.199165" y="3.6" style="stroke: #000000; stroke-width: 0.5"/>
      </g>
     </g>
    </g>
    <g id="xtick_20">
     <g id="line2d_39">
      <g>
       <use xlink:href="#mabf858410a" x="310.799208" y="244.213246" style="stroke: #000000; stroke-width: 0.5"/>
      </g>
     </g>
     <g id="line2d_40">
      <g>
       <use xlink:href="#m8aa664e8e0" x="310.799208" y="3.6" style="stroke: #000000; stroke-width: 0.5"/>
      </g>
     </g>
    </g>
    <g id="xtick_21">
     <g id="line2d_41">
      <g>
       <use xlink:href="#mabf858410a" x="326.09923" y="244.213246" style="stroke: #000000; stroke-width: 0.5"/>
      </g>
     </g>
     <g id="line2d_42">
      <g>
       <use xlink:href="#m8aa664e8e0" x="326.09923" y="3.6" style="stroke: #000000; stroke-width: 0.5"/>
      </g>
     </g>
    </g>
    <g id="xtick_22">
     <g id="line2d_43">
      <g>
       <use xlink:href="#mabf858410a" x="341.399252" y="244.213246" style="stroke: #000000; stroke-width: 0.5"/>
      </g>
     </g>
     <g id="line2d_44">
      <g>
       <use xlink:href="#m8aa664e8e0" x="341.399252" y="3.6" style="stroke: #000000; stroke-width: 0.5"/>
      </g>
     </g>
    </g>
    <g id="xtick_23">
     <g id="line2d_45">
      <g>
       <use xlink:href="#mabf858410a" x="356.699274" y="244.213246" style="stroke: #000000; stroke-width: 0.5"/>
      </g>
     </g>
     <g id="line2d_46">
      <g>
       <use xlink:href="#m8aa664e8e0" x="356.699274" y="3.6" style="stroke: #000000; stroke-width: 0.5"/>
      </g>
     </g>
    </g>
    <g id="xtick_24">
     <g id="line2d_47">
      <g>
       <use xlink:href="#mabf858410a" x="387.299317" y="244.213246" style="stroke: #000000; stroke-width: 0.5"/>
      </g>
     </g>
     <g id="line2d_48">
      <g>
       <use xlink:href="#m8aa664e8e0" x="387.299317" y="3.6" style="stroke: #000000; stroke-width: 0.5"/>
      </g>
     </g>
    </g>
    <g id="xtick_25">
     <g id="line2d_49">
      <g>
       <use xlink:href="#mabf858410a" x="402.599339" y="244.213246" style="stroke: #000000; stroke-width: 0.5"/>
      </g>
     </g>
     <g id="line2d_50">
      <g>
       <use xlink:href="#m8aa664e8e0" x="402.599339" y="3.6" style="stroke: #000000; stroke-width: 0.5"/>
      </g>
     </g>
    </g>
   </g>
   <g id="matplotlib.axis_2">
    <g id="ytick_1">
     <g id="line2d_51">
      <defs>
       <path id="mc8fc1636b8" d="M 0 0 
L 3 0 
" style="stroke: #000000; stroke-width: 0.5"/>
      </defs>
      <g>
       <use xlink:href="#mc8fc1636b8" x="35.398817" y="218.406764" style="stroke: #000000; stroke-width: 0.5"/>
      </g>
     </g>
     <g id="line2d_52">
      <defs>
       <path id="m9691bcb87d" d="M 0 0 
L -3 0 
" style="stroke: #000000; stroke-width: 0.5"/>
      </defs>
      <g>
       <use xlink:href="#m9691bcb87d" x="402.599339" y="218.406764" style="stroke: #000000; stroke-width: 0.5"/>
      </g>
     </g>
     <g id="text_6">
      <!-- $\mathdefault{−1.5}$ -->
      <g transform="translate(3.6 223.249702) scale(0.14 -0.14)">
       <defs>
        <path id="CMR17-35" d="M 730 3692 
C 794 3666 1056 3584 1325 3584 
C 1920 3584 2246 3911 2432 4100 
C 2432 4157 2432 4192 2394 4192 
C 2387 4192 2374 4192 2323 4163 
C 2099 4058 1837 3973 1517 3973 
C 1325 3973 1037 3999 723 4139 
C 653 4171 640 4171 634 4171 
C 602 4171 595 4164 595 4037 
L 595 2203 
C 595 2089 595 2057 659 2057 
C 691 2057 704 2070 736 2114 
C 941 2401 1222 2522 1542 2522 
C 1766 2522 2246 2382 2246 1289 
C 2246 1085 2246 715 2054 421 
C 1894 159 1645 25 1370 25 
C 947 25 518 320 403 814 
C 429 807 480 795 506 795 
C 589 795 749 840 749 1038 
C 749 1210 627 1280 506 1280 
C 358 1280 262 1190 262 1011 
C 262 454 704 -128 1382 -128 
C 2042 -128 2669 440 2669 1264 
C 2669 2030 2170 2624 1549 2624 
C 1222 2624 947 2503 730 2274 
L 730 3692 
z
" transform="scale(0.015625)"/>
       </defs>
       <use xlink:href="#CMSY10-0" transform="scale(0.996264)"/>
       <use xlink:href="#CMR17-31" transform="translate(77.487468 0) scale(0.996264)"/>
       <use xlink:href="#CMMI12-3a" transform="translate(123.177945 0) scale(0.996264)"/>
       <use xlink:href="#CMR17-35" transform="translate(150.275122 0) scale(0.996264)"/>
      </g>
     </g>
    </g>
    <g id="ytick_2">
     <g id="line2d_53">
      <g>
       <use xlink:href="#mc8fc1636b8" x="35.398817" y="186.906717" style="stroke: #000000; stroke-width: 0.5"/>
      </g>
     </g>
     <g id="line2d_54">
      <g>
       <use xlink:href="#m9691bcb87d" x="402.599339" y="186.906717" style="stroke: #000000; stroke-width: 0.5"/>
      </g>
     </g>
     <g id="text_7">
      <!-- $\mathdefault{−1.0}$ -->
      <g transform="translate(3.6 191.749655) scale(0.14 -0.14)">
       <use xlink:href="#CMSY10-0" transform="scale(0.996264)"/>
       <use xlink:href="#CMR17-31" transform="translate(77.487468 0) scale(0.996264)"/>
       <use xlink:href="#CMMI12-3a" transform="translate(123.177945 0) scale(0.996264)"/>
       <use xlink:href="#CMR17-30" transform="translate(150.275122 0) scale(0.996264)"/>
      </g>
     </g>
    </g>
    <g id="ytick_3">
     <g id="line2d_55">
      <g>
       <use xlink:href="#mc8fc1636b8" x="35.398817" y="155.40667" style="stroke: #000000; stroke-width: 0.5"/>
      </g>
     </g>
     <g id="line2d_56">
      <g>
       <use xlink:href="#m9691bcb87d" x="402.599339" y="155.40667" style="stroke: #000000; stroke-width: 0.5"/>
      </g>
     </g>
     <g id="text_8">
      <!-- $\mathdefault{−0.5}$ -->
      <g transform="translate(3.6 160.249608) scale(0.14 -0.14)">
       <use xlink:href="#CMSY10-0" transform="scale(0.996264)"/>
       <use xlink:href="#CMR17-30" transform="translate(77.487468 0) scale(0.996264)"/>
       <use xlink:href="#CMMI12-3a" transform="translate(123.177945 0) scale(0.996264)"/>
       <use xlink:href="#CMR17-35" transform="translate(150.275122 0) scale(0.996264)"/>
      </g>
     </g>
    </g>
    <g id="ytick_4">
     <g id="line2d_57">
      <g>
       <use xlink:href="#mc8fc1636b8" x="35.398817" y="123.906623" style="stroke: #000000; stroke-width: 0.5"/>
      </g>
     </g>
     <g id="line2d_58">
      <g>
       <use xlink:href="#m9691bcb87d" x="402.599339" y="123.906623" style="stroke: #000000; stroke-width: 0.5"/>
      </g>
     </g>
     <g id="text_9">
      <!-- $\mathdefault{0.0}$ -->
      <g transform="translate(14.448235 128.749561) scale(0.14 -0.14)">
       <use xlink:href="#CMR17-30" transform="scale(0.996264)"/>
       <use xlink:href="#CMMI12-3a" transform="translate(45.690477 0) scale(0.996264)"/>
       <use xlink:href="#CMR17-30" transform="translate(72.787654 0) scale(0.996264)"/>
      </g>
     </g>
    </g>
    <g id="ytick_5">
     <g id="line2d_59">
      <g>
       <use xlink:href="#mc8fc1636b8" x="35.398817" y="92.406576" style="stroke: #000000; stroke-width: 0.5"/>
      </g>
     </g>
     <g id="line2d_60">
      <g>
       <use xlink:href="#m9691bcb87d" x="402.599339" y="92.406576" style="stroke: #000000; stroke-width: 0.5"/>
      </g>
     </g>
     <g id="text_10">
      <!-- $\mathdefault{0.5}$ -->
      <g transform="translate(14.448235 97.249514) scale(0.14 -0.14)">
       <use xlink:href="#CMR17-30" transform="scale(0.996264)"/>
       <use xlink:href="#CMMI12-3a" transform="translate(45.690477 0) scale(0.996264)"/>
       <use xlink:href="#CMR17-35" transform="translate(72.787654 0) scale(0.996264)"/>
      </g>
     </g>
    </g>
    <g id="ytick_6">
     <g id="line2d_61">
      <g>
       <use xlink:href="#mc8fc1636b8" x="35.398817" y="60.906529" style="stroke: #000000; stroke-width: 0.5"/>
      </g>
     </g>
     <g id="line2d_62">
      <g>
       <use xlink:href="#m9691bcb87d" x="402.599339" y="60.906529" style="stroke: #000000; stroke-width: 0.5"/>
      </g>
     </g>
     <g id="text_11">
      <!-- $\mathdefault{1.0}$ -->
      <g transform="translate(14.448235 65.749467) scale(0.14 -0.14)">
       <use xlink:href="#CMR17-31" transform="scale(0.996264)"/>
       <use xlink:href="#CMMI12-3a" transform="translate(45.690477 0) scale(0.996264)"/>
       <use xlink:href="#CMR17-30" transform="translate(72.787654 0) scale(0.996264)"/>
      </g>
     </g>
    </g>
    <g id="ytick_7">
     <g id="line2d_63">
      <g>
       <use xlink:href="#mc8fc1636b8" x="35.398817" y="29.406482" style="stroke: #000000; stroke-width: 0.5"/>
      </g>
     </g>
     <g id="line2d_64">
      <g>
       <use xlink:href="#m9691bcb87d" x="402.599339" y="29.406482" style="stroke: #000000; stroke-width: 0.5"/>
      </g>
     </g>
     <g id="text_12">
      <!-- $\mathdefault{1.5}$ -->
      <g transform="translate(14.448235 34.249421) scale(0.14 -0.14)">
       <use xlink:href="#CMR17-31" transform="scale(0.996264)"/>
       <use xlink:href="#CMMI12-3a" transform="translate(45.690477 0) scale(0.996264)"/>
       <use xlink:href="#CMR17-35" transform="translate(72.787654 0) scale(0.996264)"/>
      </g>
     </g>
    </g>
    <g id="ytick_8">
     <g id="line2d_65">
      <defs>
       <path id="m77f7c17a49" d="M 0 0 
L 1.5 0 
" style="stroke: #000000; stroke-width: 0.5"/>
      </defs>
      <g>
       <use xlink:href="#m77f7c17a49" x="35.398817" y="243.606801" style="stroke: #000000; stroke-width: 0.5"/>
      </g>
     </g>
     <g id="line2d_66">
      <defs>
       <path id="mb77fe8442d" d="M 0 0 
L -1.5 0 
" style="stroke: #000000; stroke-width: 0.5"/>
      </defs>
      <g>
       <use xlink:href="#mb77fe8442d" x="402.599339" y="243.606801" style="stroke: #000000; stroke-width: 0.5"/>
      </g>
     </g>
    </g>
    <g id="ytick_9">
     <g id="line2d_67">
      <g>
       <use xlink:href="#m77f7c17a49" x="35.398817" y="237.306792" style="stroke: #000000; stroke-width: 0.5"/>
      </g>
     </g>
     <g id="line2d_68">
      <g>
       <use xlink:href="#mb77fe8442d" x="402.599339" y="237.306792" style="stroke: #000000; stroke-width: 0.5"/>
      </g>
     </g>
    </g>
    <g id="ytick_10">
     <g id="line2d_69">
      <g>
       <use xlink:href="#m77f7c17a49" x="35.398817" y="231.006782" style="stroke: #000000; stroke-width: 0.5"/>
      </g>
     </g>
     <g id="line2d_70">
      <g>
       <use xlink:href="#mb77fe8442d" x="402.599339" y="231.006782" style="stroke: #000000; stroke-width: 0.5"/>
      </g>
     </g>
    </g>
    <g id="ytick_11">
     <g id="line2d_71">
      <g>
       <use xlink:href="#m77f7c17a49" x="35.398817" y="224.706773" style="stroke: #000000; stroke-width: 0.5"/>
      </g>
     </g>
     <g id="line2d_72">
      <g>
       <use xlink:href="#mb77fe8442d" x="402.599339" y="224.706773" style="stroke: #000000; stroke-width: 0.5"/>
      </g>
     </g>
    </g>
    <g id="ytick_12">
     <g id="line2d_73">
      <g>
       <use xlink:href="#m77f7c17a49" x="35.398817" y="212.106754" style="stroke: #000000; stroke-width: 0.5"/>
      </g>
     </g>
     <g id="line2d_74">
      <g>
       <use xlink:href="#mb77fe8442d" x="402.599339" y="212.106754" style="stroke: #000000; stroke-width: 0.5"/>
      </g>
     </g>
    </g>
    <g id="ytick_13">
     <g id="line2d_75">
      <g>
       <use xlink:href="#m77f7c17a49" x="35.398817" y="205.806745" style="stroke: #000000; stroke-width: 0.5"/>
      </g>
     </g>
     <g id="line2d_76">
      <g>
       <use xlink:href="#mb77fe8442d" x="402.599339" y="205.806745" style="stroke: #000000; stroke-width: 0.5"/>
      </g>
     </g>
    </g>
    <g id="ytick_14">
     <g id="line2d_77">
      <g>
       <use xlink:href="#m77f7c17a49" x="35.398817" y="199.506735" style="stroke: #000000; stroke-width: 0.5"/>
      </g>
     </g>
     <g id="line2d_78">
      <g>
       <use xlink:href="#mb77fe8442d" x="402.599339" y="199.506735" style="stroke: #000000; stroke-width: 0.5"/>
      </g>
     </g>
    </g>
    <g id="ytick_15">
     <g id="line2d_79">
      <g>
       <use xlink:href="#m77f7c17a49" x="35.398817" y="193.206726" style="stroke: #000000; stroke-width: 0.5"/>
      </g>
     </g>
     <g id="line2d_80">
      <g>
       <use xlink:href="#mb77fe8442d" x="402.599339" y="193.206726" style="stroke: #000000; stroke-width: 0.5"/>
      </g>
     </g>
    </g>
    <g id="ytick_16">
     <g id="line2d_81">
      <g>
       <use xlink:href="#m77f7c17a49" x="35.398817" y="180.606707" style="stroke: #000000; stroke-width: 0.5"/>
      </g>
     </g>
     <g id="line2d_82">
      <g>
       <use xlink:href="#mb77fe8442d" x="402.599339" y="180.606707" style="stroke: #000000; stroke-width: 0.5"/>
      </g>
     </g>
    </g>
    <g id="ytick_17">
     <g id="line2d_83">
      <g>
       <use xlink:href="#m77f7c17a49" x="35.398817" y="174.306698" style="stroke: #000000; stroke-width: 0.5"/>
      </g>
     </g>
     <g id="line2d_84">
      <g>
       <use xlink:href="#mb77fe8442d" x="402.599339" y="174.306698" style="stroke: #000000; stroke-width: 0.5"/>
      </g>
     </g>
    </g>
    <g id="ytick_18">
     <g id="line2d_85">
      <g>
       <use xlink:href="#m77f7c17a49" x="35.398817" y="168.006689" style="stroke: #000000; stroke-width: 0.5"/>
      </g>
     </g>
     <g id="line2d_86">
      <g>
       <use xlink:href="#mb77fe8442d" x="402.599339" y="168.006689" style="stroke: #000000; stroke-width: 0.5"/>
      </g>
     </g>
    </g>
    <g id="ytick_19">
     <g id="line2d_87">
      <g>
       <use xlink:href="#m77f7c17a49" x="35.398817" y="161.706679" style="stroke: #000000; stroke-width: 0.5"/>
      </g>
     </g>
     <g id="line2d_88">
      <g>
       <use xlink:href="#mb77fe8442d" x="402.599339" y="161.706679" style="stroke: #000000; stroke-width: 0.5"/>
      </g>
     </g>
    </g>
    <g id="ytick_20">
     <g id="line2d_89">
      <g>
       <use xlink:href="#m77f7c17a49" x="35.398817" y="149.10666" style="stroke: #000000; stroke-width: 0.5"/>
      </g>
     </g>
     <g id="line2d_90">
      <g>
       <use xlink:href="#mb77fe8442d" x="402.599339" y="149.10666" style="stroke: #000000; stroke-width: 0.5"/>
      </g>
     </g>
    </g>
    <g id="ytick_21">
     <g id="line2d_91">
      <g>
       <use xlink:href="#m77f7c17a49" x="35.398817" y="142.806651" style="stroke: #000000; stroke-width: 0.5"/>
      </g>
     </g>
     <g id="line2d_92">
      <g>
       <use xlink:href="#mb77fe8442d" x="402.599339" y="142.806651" style="stroke: #000000; stroke-width: 0.5"/>
      </g>
     </g>
    </g>
    <g id="ytick_22">
     <g id="line2d_93">
      <g>
       <use xlink:href="#m77f7c17a49" x="35.398817" y="136.506642" style="stroke: #000000; stroke-width: 0.5"/>
      </g>
     </g>
     <g id="line2d_94">
      <g>
       <use xlink:href="#mb77fe8442d" x="402.599339" y="136.506642" style="stroke: #000000; stroke-width: 0.5"/>
      </g>
     </g>
    </g>
    <g id="ytick_23">
     <g id="line2d_95">
      <g>
       <use xlink:href="#m77f7c17a49" x="35.398817" y="130.206632" style="stroke: #000000; stroke-width: 0.5"/>
      </g>
     </g>
     <g id="line2d_96">
      <g>
       <use xlink:href="#mb77fe8442d" x="402.599339" y="130.206632" style="stroke: #000000; stroke-width: 0.5"/>
      </g>
     </g>
    </g>
    <g id="ytick_24">
     <g id="line2d_97">
      <g>
       <use xlink:href="#m77f7c17a49" x="35.398817" y="117.606614" style="stroke: #000000; stroke-width: 0.5"/>
      </g>
     </g>
     <g id="line2d_98">
      <g>
       <use xlink:href="#mb77fe8442d" x="402.599339" y="117.606614" style="stroke: #000000; stroke-width: 0.5"/>
      </g>
     </g>
    </g>
    <g id="ytick_25">
     <g id="line2d_99">
      <g>
       <use xlink:href="#m77f7c17a49" x="35.398817" y="111.306604" style="stroke: #000000; stroke-width: 0.5"/>
      </g>
     </g>
     <g id="line2d_100">
      <g>
       <use xlink:href="#mb77fe8442d" x="402.599339" y="111.306604" style="stroke: #000000; stroke-width: 0.5"/>
      </g>
     </g>
    </g>
    <g id="ytick_26">
     <g id="line2d_101">
      <g>
       <use xlink:href="#m77f7c17a49" x="35.398817" y="105.006595" style="stroke: #000000; stroke-width: 0.5"/>
      </g>
     </g>
     <g id="line2d_102">
      <g>
       <use xlink:href="#mb77fe8442d" x="402.599339" y="105.006595" style="stroke: #000000; stroke-width: 0.5"/>
      </g>
     </g>
    </g>
    <g id="ytick_27">
     <g id="line2d_103">
      <g>
       <use xlink:href="#m77f7c17a49" x="35.398817" y="98.706585" style="stroke: #000000; stroke-width: 0.5"/>
      </g>
     </g>
     <g id="line2d_104">
      <g>
       <use xlink:href="#mb77fe8442d" x="402.599339" y="98.706585" style="stroke: #000000; stroke-width: 0.5"/>
      </g>
     </g>
    </g>
    <g id="ytick_28">
     <g id="line2d_105">
      <g>
       <use xlink:href="#m77f7c17a49" x="35.398817" y="86.106567" style="stroke: #000000; stroke-width: 0.5"/>
      </g>
     </g>
     <g id="line2d_106">
      <g>
       <use xlink:href="#mb77fe8442d" x="402.599339" y="86.106567" style="stroke: #000000; stroke-width: 0.5"/>
      </g>
     </g>
    </g>
    <g id="ytick_29">
     <g id="line2d_107">
      <g>
       <use xlink:href="#m77f7c17a49" x="35.398817" y="79.806557" style="stroke: #000000; stroke-width: 0.5"/>
      </g>
     </g>
     <g id="line2d_108">
      <g>
       <use xlink:href="#mb77fe8442d" x="402.599339" y="79.806557" style="stroke: #000000; stroke-width: 0.5"/>
      </g>
     </g>
    </g>
    <g id="ytick_30">
     <g id="line2d_109">
      <g>
       <use xlink:href="#m77f7c17a49" x="35.398817" y="73.506548" style="stroke: #000000; stroke-width: 0.5"/>
      </g>
     </g>
     <g id="line2d_110">
      <g>
       <use xlink:href="#mb77fe8442d" x="402.599339" y="73.506548" style="stroke: #000000; stroke-width: 0.5"/>
      </g>
     </g>
    </g>
    <g id="ytick_31">
     <g id="line2d_111">
      <g>
       <use xlink:href="#m77f7c17a49" x="35.398817" y="67.206539" style="stroke: #000000; stroke-width: 0.5"/>
      </g>
     </g>
     <g id="line2d_112">
      <g>
       <use xlink:href="#mb77fe8442d" x="402.599339" y="67.206539" style="stroke: #000000; stroke-width: 0.5"/>
      </g>
     </g>
    </g>
    <g id="ytick_32">
     <g id="line2d_113">
      <g>
       <use xlink:href="#m77f7c17a49" x="35.398817" y="54.60652" style="stroke: #000000; stroke-width: 0.5"/>
      </g>
     </g>
     <g id="line2d_114">
      <g>
       <use xlink:href="#mb77fe8442d" x="402.599339" y="54.60652" style="stroke: #000000; stroke-width: 0.5"/>
      </g>
     </g>
    </g>
    <g id="ytick_33">
     <g id="line2d_115">
      <g>
       <use xlink:href="#m77f7c17a49" x="35.398817" y="48.30651" style="stroke: #000000; stroke-width: 0.5"/>
      </g>
     </g>
     <g id="line2d_116">
      <g>
       <use xlink:href="#mb77fe8442d" x="402.599339" y="48.30651" style="stroke: #000000; stroke-width: 0.5"/>
      </g>
     </g>
    </g>
    <g id="ytick_34">
     <g id="line2d_117">
      <g>
       <use xlink:href="#m77f7c17a49" x="35.398817" y="42.006501" style="stroke: #000000; stroke-width: 0.5"/>
      </g>
     </g>
     <g id="line2d_118">
      <g>
       <use xlink:href="#mb77fe8442d" x="402.599339" y="42.006501" style="stroke: #000000; stroke-width: 0.5"/>
      </g>
     </g>
    </g>
    <g id="ytick_35">
     <g id="line2d_119">
      <g>
       <use xlink:href="#m77f7c17a49" x="35.398817" y="35.706492" style="stroke: #000000; stroke-width: 0.5"/>
      </g>
     </g>
     <g id="line2d_120">
      <g>
       <use xlink:href="#mb77fe8442d" x="402.599339" y="35.706492" style="stroke: #000000; stroke-width: 0.5"/>
      </g>
     </g>
    </g>
    <g id="ytick_36">
     <g id="line2d_121">
      <g>
       <use xlink:href="#m77f7c17a49" x="35.398817" y="23.106473" style="stroke: #000000; stroke-width: 0.5"/>
      </g>
     </g>
     <g id="line2d_122">
      <g>
       <use xlink:href="#mb77fe8442d" x="402.599339" y="23.106473" style="stroke: #000000; stroke-width: 0.5"/>
      </g>
     </g>
    </g>
    <g id="ytick_37">
     <g id="line2d_123">
      <g>
       <use xlink:href="#m77f7c17a49" x="35.398817" y="16.806464" style="stroke: #000000; stroke-width: 0.5"/>
      </g>
     </g>
     <g id="line2d_124">
      <g>
       <use xlink:href="#mb77fe8442d" x="402.599339" y="16.806464" style="stroke: #000000; stroke-width: 0.5"/>
      </g>
     </g>
    </g>
    <g id="ytick_38">
     <g id="line2d_125">
      <g>
       <use xlink:href="#m77f7c17a49" x="35.398817" y="10.506454" style="stroke: #000000; stroke-width: 0.5"/>
      </g>
     </g>
     <g id="line2d_126">
      <g>
       <use xlink:href="#mb77fe8442d" x="402.599339" y="10.506454" style="stroke: #000000; stroke-width: 0.5"/>
      </g>
     </g>
    </g>
    <g id="ytick_39">
     <g id="line2d_127">
      <g>
       <use xlink:href="#m77f7c17a49" x="35.398817" y="4.206445" style="stroke: #000000; stroke-width: 0.5"/>
      </g>
     </g>
     <g id="line2d_128">
      <g>
       <use xlink:href="#mb77fe8442d" x="402.599339" y="4.206445" style="stroke: #000000; stroke-width: 0.5"/>
      </g>
     </g>
    </g>
   </g>
   <g id="line2d_129">
    <path d="M 35.398817 123.906623 
L 402.599339 123.906623 
" clip-path="url(#p97f791c2cf)" style="fill: none; stroke: #000000; stroke-opacity: 0.5; stroke-linecap: square"/>
   </g>
   <g id="line2d_130">
    <path d="M 218.999078 244.213246 
L 218.999078 3.6 
" clip-path="url(#p97f791c2cf)" style="fill: none; stroke: #000000; stroke-opacity: 0.5; stroke-linecap: square"/>
   </g>
   <g id="LineCollection_1">
    <path d="M 182.700467 3.6 
L 185.509563 10.472857 
L 189.065879 18.133849 
L 192.4209 23.744982 
L 195.584075 27.66715 
L 198.956897 30.529744 
L 202.62629 32.358362 
L 202.62629 32.358362 
L 206.402134 33.042255 
L 206.402134 33.042255 
L 211.304408 32.939303 
L 215.474785 33.176005 
L 218.220503 33.902921 
L 220.355586 35.169845 
L 222.222881 37.451701 
L 222.222881 37.451701 
L 223.807721 41.477458 
L 223.807721 41.477458 
L 225.177448 48.749937 
L 225.990578 56.750659 
L 226.563499 64.761023 
L 226.990549 72.775694 
L 227.316031 80.792697 
L 227.564197 88.811095 
L 227.749513 96.830372 
L 227.880979 104.85021 
L 227.964194 112.870393 
L 228.002407 120.890762 
L 227.997044 128.911179 
L 227.947927 136.931519 
L 227.85325 144.951643 
L 227.709298 152.971382 
L 227.509764 160.990505 
L 227.244532 169.008658 
L 226.897293 177.025263 
L 226.44027 185.039242 
L 225.821258 193.048257 
L 225.146352 199.296248 
L 224.320537 204.352129 
L 223.272161 208.177969 
L 221.909751 210.97698 
L 220.151751 212.86795 
L 220.151751 212.86795 
L 217.650126 214.124922 
L 217.650126 214.124922 
L 214.997866 214.632719 
L 212.245458 214.64922 
L 212.245458 214.64922 
L 208.921431 214.155925 
L 205.596823 213.432028 
L 202.554715 212.621855 
L 198.000668 211.437594 
L 198.000668 211.437594 
L 187.1847 209.056619 
L 176.693218 207.255411 
L 166.071534 205.590097 
L 154.96801 204.019669 
L 143.302549 202.520799 
L 131.571143 201.170677 
L 120.052518 200.056474 
L 108.61292 199.203234 
L 97.609685 198.730433 
L 88.599057 198.784261 
L 80.931098 199.340121 
L 74.228645 200.424818 
L 67.813363 202.228932 
L 61.333477 205.177421 
L 56.010184 208.874889 
L 56.010184 208.874889 
L 50.879749 213.937266 
L 50.879749 213.937266 
L 45.631228 221.147627 
L 41.539699 228.695402 
L 38.208088 236.408632 
L 35.398817 244.213246 
L 35.398817 244.213246 
" clip-path="url(#p97f791c2cf)" style="fill: none; stroke: #add8e6"/>
    <path d="M 84.604125 210.188338 
L 79.015398 214.685983 
L 79.015398 214.685983 
L 72.879444 221.570234 
L 68.035265 228.919049 
L 64.072585 236.501369 
L 60.722991 244.213246 
L 60.722991 244.213246 
" clip-path="url(#p97f791c2cf)" style="fill: none; stroke: #add8e6"/>
    <path d="M 105.491503 207.31294 
L 98.56542 210.790908 
L 92.821009 215.037469 
L 92.821009 215.037469 
L 86.324242 221.766626 
L 81.17398 229.022447 
L 76.954731 236.544186 
L 73.385078 244.213246 
L 73.385078 244.213246 
" clip-path="url(#p97f791c2cf)" style="fill: none; stroke: #add8e6"/>
    <path d="M 106.44909 215.361286 
L 106.44909 215.361286 
L 99.641057 221.943048 
L 94.232859 229.114281 
L 89.799529 236.582022 
L 86.047165 244.213246 
L 86.047165 244.213246 
" clip-path="url(#p97f791c2cf)" style="fill: none; stroke: #add8e6"/>
    <path d="M 164.252547 207.313756 
L 157.288042 207.595251 
L 150.754584 208.49906 
L 144.21154 210.226117 
L 137.325463 213.21915 
L 131.60049 216.98265 
L 131.60049 216.98265 
L 125.852737 222.205032 
L 125.852737 222.205032 
L 120.077411 229.243506 
L 115.359357 236.634001 
L 111.371339 244.213246 
L 111.371339 244.213246 
" clip-path="url(#p97f791c2cf)" style="fill: none; stroke: #add8e6"/>
    <path d="M 156.717374 217.65633 
L 156.717374 217.65633 
L 151.369618 222.283073 
L 151.369618 222.283073 
L 145.459058 229.260854 
L 140.697371 236.637413 
L 136.695513 244.213246 
L 136.695513 244.213246 
" clip-path="url(#p97f791c2cf)" style="fill: none; stroke: #add8e6"/>
    <path d="M 184.752317 215.459542 
L 180.345713 218.116295 
L 180.345713 218.116295 
L 175.833907 222.07175 
L 175.833907 222.07175 
L 170.132944 229.105165 
L 165.700652 236.56784 
L 162.019687 244.213246 
L 162.019687 244.213246 
" clip-path="url(#p97f791c2cf)" style="fill: none; stroke: #add8e6"/>
    <path d="M 206.989288 215.353944 
L 204.929084 215.957831 
L 202.486864 217.228553 
L 200.142755 219.146929 
L 200.142755 219.146929 
L 197.266826 222.441534 
L 197.266826 222.441534 
L 193.473152 228.707296 
L 193.473152 228.707296 
L 190.108841 236.403937 
L 187.343861 244.213246 
L 187.343861 244.213246 
" clip-path="url(#p97f791c2cf)" style="fill: none; stroke: #add8e6"/>
    <path d="M 225.330121 244.213246 
L 225.330121 244.213246 
L 224.316009 236.881297 
L 223.157917 231.93114 
L 221.937091 229.104859 
L 220.71686 227.842518 
L 219.528601 227.7207 
L 218.385708 228.552054 
L 217.311242 230.315019 
L 216.320647 233.071205 
L 215.421247 236.913113 
L 214.613701 241.947222 
L 214.310182 244.213246 
" clip-path="url(#p97f791c2cf)" style="fill: none; stroke: #add8e6"/>
    <path d="M 250.654295 244.213246 
L 250.654295 244.213246 
L 245.038846 237.154482 
L 239.055481 230.332991 
L 233.285815 223.907557 
L 233.285815 223.907557 
L 230.944745 221.597689 
L 230.944745 221.597689 
L 228.2427 219.787399 
L 228.2427 219.787399 
L 226.004817 218.82128 
L 223.827621 218.43124 
L 222.051991 218.508044 
L 219.655689 219.219576 
" clip-path="url(#p97f791c2cf)" style="fill: none; stroke: #add8e6"/>
    <path d="M 288.640556 244.213246 
L 288.640556 244.213246 
L 277.274808 241.395533 
L 267.143242 237.969435 
L 257.319933 233.806858 
L 247.911874 229.192168 
" clip-path="url(#p97f791c2cf)" style="fill: none; stroke: #add8e6"/>
    <path d="M 402.599339 229.8497 
L 396.812082 231.319049 
L 385.352242 234.128779 
L 373.784621 236.742326 
L 362.093584 239.100209 
L 350.265414 241.128437 
L 338.290673 242.736221 
L 326.176615 243.809737 
L 313.96473 244.213246 
L 313.96473 244.213246 
" clip-path="url(#p97f791c2cf)" style="fill: none; stroke: #add8e6"/>
    <path d="M 402.599339 219.32222 
L 402.599339 219.32222 
L 391.490489 222.685361 
L 380.28852 225.909608 
L 368.971498 228.955715 
L 357.518998 231.768619 
L 345.908013 234.279344 
L 334.118256 236.397905 
L 322.154263 238.000866 
L 310.057152 238.938137 
L 297.917666 239.049207 
L 285.898687 238.194273 
L 274.771827 236.45734 
" clip-path="url(#p97f791c2cf)" style="fill: none; stroke: #add8e6"/>
    <path d="M 402.599339 202.728204 
L 402.599339 202.728204 
L 392.152167 206.902391 
L 381.601089 210.962409 
L 370.930306 214.883831 
L 360.1189 218.634083 
L 349.141443 222.166878 
L 337.970204 225.418446 
L 326.570207 228.306694 
L 314.924358 230.703912 
" clip-path="url(#p97f791c2cf)" style="fill: none; stroke: #add8e6"/>
    <path d="M 402.599339 186.134187 
L 402.599339 186.134187 
L 393.121963 191.203694 
L 383.475297 196.130117 
L 373.660023 200.912625 
L 363.672108 205.537041 
L 353.497681 209.984626 
L 343.11792 214.218806 
L 332.499798 218.18796 
L 321.606291 221.810393 
" clip-path="url(#p97f791c2cf)" style="fill: none; stroke: #add8e6"/>
    <path d="M 402.599339 169.54017 
L 402.599339 169.54017 
L 394.531763 175.563719 
L 386.10677 181.367683 
L 377.374005 186.977083 
L 368.374171 192.404498 
L 359.132713 197.649478 
L 349.644477 202.706292 
" clip-path="url(#p97f791c2cf)" style="fill: none; stroke: #add8e6"/>
    <path d="M 402.599339 152.946153 
L 402.599339 152.946153 
L 396.540999 159.903117 
L 389.748826 166.559109 
L 382.384841 172.948992 
L 374.563392 179.10456 
L 366.356384 185.04575 
L 357.819093 190.780589 
L 348.977447 196.311184 
L 339.830669 201.628665 
L 330.375271 206.703023 
L 320.583298 211.493491 
L 310.408423 215.917245 
L 299.791695 219.853019 
L 288.691155 223.10405 
L 277.112612 225.377921 
L 266.484174 226.30493 
L 257.428993 226.083843 
" clip-path="url(#p97f791c2cf)" style="fill: none; stroke: #add8e6"/>
    <path d="M 402.599339 128.055127 
L 402.599339 128.055127 
L 400.890244 135.976827 
L 397.75621 143.527363 
L 393.29739 150.974407 
L 387.817725 158.124742 
L 381.537056 164.988629 
" clip-path="url(#p97f791c2cf)" style="fill: none; stroke: #add8e6"/>
    <path d="M 211.761212 3.6 
L 212.642634 11.095867 
L 213.5017 16.935391 
L 214.521132 21.414111 
L 215.773437 24.713918 
L 217.25134 26.922004 
L 219.701275 28.713458 
L 222.135384 29.449041 
L 224.526915 29.56519 
L 227.03999 29.249355 
L 230.066721 28.486984 
L 230.066721 28.486984 
L 234.735308 26.89244 
L 239.690603 25.103307 
L 239.690603 25.103307 
L 245.929653 23.740154 
L 253.244936 22.593099 
L 261.893025 22.226427 
L 271.677546 22.888415 
L 282.860542 24.873566 
L 293.984223 28.040828 
L 304.569193 32.000521 
L 314.656182 36.505411 
L 324.311477 41.41235 
L 333.579864 46.627947 
L 342.500191 52.105994 
L 351.084939 57.808499 
L 359.323019 63.725362 
L 367.185923 69.862815 
L 374.620009 76.224501 
L 381.537056 82.824617 
L 387.817725 89.688504 
L 393.29739 96.838839 
L 397.75621 104.285883 
L 400.890244 111.836419 
L 402.599339 119.758119 
L 402.599339 119.758119 
" clip-path="url(#p97f791c2cf)" style="fill: none; stroke: #add8e6"/>
    <path d="M 353.500522 51.012577 
L 362.520639 56.419577 
L 371.260368 62.024625 
L 379.696484 67.826934 
L 387.783954 73.832849 
L 395.4516 80.069116 
L 402.599339 86.570085 
L 402.599339 86.570085 
" clip-path="url(#p97f791c2cf)" style="fill: none; stroke: #add8e6"/>
    <path d="M 292.083076 21.205545 
L 303.628499 23.742088 
L 314.769697 26.982678 
L 325.551176 30.739133 
L 336.013332 34.875759 
L 346.197199 39.304763 
L 356.138772 43.969681 
L 365.861111 48.830133 
L 375.376591 53.865646 
L 384.681702 59.067955 
L 393.762173 64.433626 
L 402.599339 69.976068 
L 402.599339 69.976068 
" clip-path="url(#p97f791c2cf)" style="fill: none; stroke: #add8e6"/>
    <path d="M 340.379519 27.958666 
L 351.173882 31.723938 
L 361.766935 35.728336 
L 372.187502 39.924988 
L 382.457291 44.279822 
L 392.591221 48.769984 
L 402.599339 53.382051 
L 402.599339 53.382051 
" clip-path="url(#p97f791c2cf)" style="fill: none; stroke: #add8e6"/>
    <path d="M 266.099316 14.772891 
L 276.398218 12.939271 
L 287.944084 11.960752 
L 300.129458 11.981748 
L 312.242016 12.933745 
L 324.171577 14.626502 
L 335.883677 16.888402 
L 347.391493 19.589229 
L 358.711777 22.623474 
L 369.866791 25.909973 
L 380.885368 29.393607 
L 391.78953 33.030302 
L 402.599339 36.788034 
L 402.599339 36.788034 
" clip-path="url(#p97f791c2cf)" style="fill: none; stroke: #add8e6"/>
    <path d="M 284.455028 7.211152 
L 296.266672 5.548844 
L 308.371462 4.852158 
L 320.557149 5.034656 
L 332.681492 5.95365 
L 344.676928 7.462414 
L 356.523526 9.434474 
L 368.225662 11.768325 
L 379.793813 14.380007 
L 391.244426 17.204039 
L 402.599339 20.194017 
L 402.599339 20.194017 
" clip-path="url(#p97f791c2cf)" style="fill: none; stroke: #add8e6"/>
    <path d="M 361.581152 3.6 
L 367.614894 4.641488 
L 379.387002 6.822691 
L 391.042613 9.259703 
L 402.599339 11.897008 
L 402.599339 11.897008 
" clip-path="url(#p97f791c2cf)" style="fill: none; stroke: #add8e6"/>
    <path d="M 219.528601 20.092546 
L 220.71686 19.970728 
L 221.937091 18.708387 
L 223.157917 15.882106 
L 224.316009 10.931949 
L 225.330121 3.6 
L 225.330121 3.6 
" clip-path="url(#p97f791c2cf)" style="fill: none; stroke: #add8e6"/>
    <path d="M 162.019687 3.6 
L 162.019687 3.6 
L 165.700652 11.245406 
L 170.132944 18.708081 
L 175.833907 25.741496 
L 175.833907 25.741496 
L 180.345713 29.696951 
L 180.345713 29.696951 
L 184.752317 32.353704 
L 189.988726 34.167564 
L 194.683857 34.885641 
L 199.202714 35.024038 
L 199.202714 35.024038 
L 202.68727 34.632089 
L 205.359899 34.15079 
" clip-path="url(#p97f791c2cf)" style="fill: none; stroke: #add8e6"/>
    <path d="M 136.695513 3.6 
L 136.695513 3.6 
L 140.697371 11.175833 
L 145.459058 18.552392 
L 151.369618 25.530173 
L 151.369618 25.530173 
L 156.717374 30.156916 
L 156.717374 30.156916 
L 162.06592 33.444954 
L 162.06592 33.444954 
L 167.472241 35.648703 
L 173.559518 37.064204 
L 179.587994 37.626955 
" clip-path="url(#p97f791c2cf)" style="fill: none; stroke: #add8e6"/>
    <path d="M 111.371339 3.6 
L 111.371339 3.6 
L 115.359357 11.179244 
L 120.077411 18.56974 
L 125.852737 25.608214 
L 125.852737 25.608214 
L 131.60049 30.830596 
L 131.60049 30.830596 
L 137.325463 34.594096 
L 144.21154 37.587129 
L 150.754584 39.314186 
" clip-path="url(#p97f791c2cf)" style="fill: none; stroke: #add8e6"/>
    <path d="M 86.047165 3.6 
L 86.047165 3.6 
L 89.799529 11.231224 
L 94.232859 18.698965 
L 99.641057 25.870198 
L 106.44909 32.45196 
L 106.44909 32.45196 
L 112.288438 36.449553 
L 119.177766 39.644531 
L 125.94253 41.626953 
L 132.951768 42.778877 
L 140.496027 43.277615 
L 148.908408 43.214024 
L 158.660751 42.561414 
L 169.340608 41.359491 
" clip-path="url(#p97f791c2cf)" style="fill: none; stroke: #add8e6"/>
    <path d="M 73.385078 3.6 
L 73.385078 3.6 
L 76.954731 11.26906 
L 81.17398 18.790799 
L 86.324242 26.046619 
L 92.821009 32.775777 
L 92.821009 32.775777 
L 98.56542 37.022337 
" clip-path="url(#p97f791c2cf)" style="fill: none; stroke: #add8e6"/>
    <path d="M 60.722991 3.6 
L 60.722991 3.6 
L 64.072585 11.311877 
L 68.035265 18.894196 
L 72.879444 26.243012 
L 79.015398 33.127263 
L 79.015398 33.127263 
L 84.604125 37.624908 
L 91.502641 41.392602 
L 98.347239 43.766172 
L 105.265087 45.185055 
L 112.718808 45.949853 
" clip-path="url(#p97f791c2cf)" style="fill: none; stroke: #add8e6"/>
    <path d="M 48.060904 3.6 
L 48.060904 3.6 
L 51.156202 11.35769 
L 54.822355 19.004654 
L 59.313633 26.45178 
L 65.034764 33.497325 
L 65.034764 33.497325 
" clip-path="url(#p97f791c2cf)" style="fill: none; stroke: #add8e6"/>
    <path d="M 35.398817 3.6 
L 35.398817 3.6 
L 38.208088 11.404614 
L 41.539699 19.117844 
L 45.631228 26.665619 
L 50.879749 33.87598 
L 50.879749 33.87598 
" clip-path="url(#p97f791c2cf)" style="fill: none; stroke: #add8e6"/>
    <path d="M 35.398817 36.788034 
L 35.398817 36.788034 
L 35.398817 36.788034 
L 40.162004 41.542564 
L 40.162004 41.542564 
L 45.217895 45.030736 
L 51.271987 47.719978 
L 57.263807 49.356293 
L 63.863036 50.354413 
L 71.423419 50.832323 
L 80.490651 50.836059 
L 91.769224 50.345066 
L 103.184071 49.552215 
" clip-path="url(#p97f791c2cf)" style="fill: none; stroke: #add8e6"/>
    <path d="M 35.398817 78.273076 
L 35.398817 78.273076 
L 39.70978 70.799022 
L 39.70978 70.799022 
L 43.868849 66.074604 
L 49.520685 61.846992 
L 55.449135 58.920329 
" clip-path="url(#p97f791c2cf)" style="fill: none; stroke: #add8e6"/>
    <path d="M 35.398817 111.46111 
L 35.398817 111.46111 
L 36.176416 103.458157 
L 37.425208 95.481802 
L 39.284067 87.558985 
L 42.004477 79.750707 
" clip-path="url(#p97f791c2cf)" style="fill: none; stroke: #add8e6"/>
    <path d="M 106.957499 197.851772 
L 95.605876 196.403295 
L 84.583542 194.747893 
L 75.636424 192.973634 
L 68.31188 190.979805 
L 62.230737 188.665299 
L 56.235175 185.391921 
L 50.437055 180.583604 
L 46.272447 175.335361 
L 46.272447 175.335361 
L 42.290431 167.78897 
L 39.602377 159.976257 
L 37.764942 152.051544 
L 36.532089 144.074301 
L 35.767773 136.070939 
L 35.398817 128.055127 
L 35.398817 128.055127 
" clip-path="url(#p97f791c2cf)" style="fill: none; stroke: #add8e6"/>
    <path d="M 64.257413 192.586099 
L 56.736622 190.840847 
L 50.851252 188.917616 
L 44.980395 186.157862 
L 39.444554 182.210085 
L 35.398817 177.837178 
L 35.398817 177.837178 
L 35.398817 177.837178 
" clip-path="url(#p97f791c2cf)" style="fill: none; stroke: #add8e6"/>
    <path d="M 56.161547 220.806939 
L 51.698459 228.262414 
L 48.060904 235.916237 
L 45.003455 243.68025 
L 44.811389 244.213246 
" clip-path="url(#p97f791c2cf)" style="fill: none; stroke: #add8e6"/>
    <path d="M 390.979305 105.343373 
L 393.813724 113.11887 
L 395.17178 121.021528 
L 394.950664 129.014585 
L 393.157515 136.926533 
L 389.937252 144.649144 
" clip-path="url(#p97f791c2cf)" style="fill: none; stroke: #add8e6"/>
    <path d="M 235.943693 23.568836 
L 235.943693 23.568836 
L 242.989429 17.958646 
L 250.654295 11.897008 
L 258.530276 5.846081 
L 261.393468 3.6 
" clip-path="url(#p97f791c2cf)" style="fill: none; stroke: #add8e6"/>
    <path d="M 47.259561 158.409298 
L 45.500836 150.477929 
L 44.328494 142.497585 
L 43.621086 134.492664 
L 43.313868 126.476384 
L 43.380553 118.457546 
L 43.826468 110.444005 
L 44.689866 102.445485 
L 46.052027 94.477593 
L 48.060904 86.570085 
" clip-path="url(#p97f791c2cf)" style="fill: none; stroke: #add8e6"/>
    <path d="M 343.529857 63.165415 
L 350.86813 69.57532 
L 357.715518 76.212316 
L 363.992608 83.081989 
L 369.592293 90.195535 
L 374.364527 97.560895 
L 378.14361 105.168571 
L 380.73924 112.984742 
L 381.989023 120.941251 
L 381.803891 128.940037 
L 380.196331 136.873279 
L 377.275165 144.649144 
L 373.21477 152.203933 
L 368.208817 159.508671 
L 362.418965 166.559285 
L 355.984505 173.365243 
L 349.005358 179.938252 
L 341.548598 186.288091 
L 333.660459 192.409989 
L 325.358291 198.283296 
L 316.632295 203.88583 
L 307.452446 209.165498 
L 297.766066 214.014371 
" clip-path="url(#p97f791c2cf)" style="fill: none; stroke: #add8e6"/>
    <path d="M 55.588921 93.929711 
L 57.694861 86.034611 
L 60.722991 78.273076 
L 65.114827 70.814218 
L 65.114827 70.814218 
L 69.600476 65.653937 
L 75.533624 61.028426 
L 81.798116 57.69192 
" clip-path="url(#p97f791c2cf)" style="fill: none; stroke: #add8e6"/>
    <path d="M 86.97832 189.635016 
L 80.667905 185.813471 
L 74.641532 180.379922 
L 70.252921 174.495063 
L 70.252921 174.495063 
L 66.391425 166.916959 
L 63.692525 159.10627 
L 61.808856 151.187091 
L 60.534469 143.213414 
L 59.750363 135.211517 
L 59.390334 127.196109 
L 59.425492 119.177062 
L 59.858276 111.162991 
L 60.722991 103.164102 
" clip-path="url(#p97f791c2cf)" style="fill: none; stroke: #add8e6"/>
    <path d="M 248.453293 31.433575 
L 248.453293 31.433575 
L 253.948827 34.439059 
L 253.948827 34.439059 
L 259.880309 38.858692 
L 259.880309 38.858692 
L 266.701751 45.463192 
L 272.4758 52.514017 
L 277.458892 59.822692 
L 281.769491 67.315142 
L 285.467627 74.94904 
L 288.613664 82.692183 
L 291.210728 90.523658 
L 293.250428 98.42605 
L 294.739231 106.381775 
L 295.676752 114.374117 
L 296.060403 122.386473 
L 295.888595 130.402145 
L 295.162123 138.40443 
L 293.883553 146.376758 
L 292.054689 154.302659 
L 289.672435 162.165301 
L 286.740662 169.947859 
L 283.258969 177.631356 
L 279.191282 185.187703 
L 274.471971 192.574958 
L 269.018351 199.729763 
L 262.638555 206.517719 
L 256.785864 211.466898 
L 251.043047 215.158742 
L 245.257885 217.707799 
L 237.992208 219.32222 
L 237.992208 219.32222 
L 237.992208 219.32222 
L 234.377012 219.246331 
" clip-path="url(#p97f791c2cf)" style="fill: none; stroke: #add8e6"/>
    <path d="M 260.151042 27.650523 
L 267.529749 29.981739 
L 267.529749 29.981739 
L 275.894377 33.672096 
L 275.894377 33.672096 
L 285.046507 38.893436 
L 293.385705 44.728625 
L 301.036137 50.967526 
L 308.071885 57.506654 
L 314.526755 64.302824 
L 320.405666 71.324301 
L 325.679773 78.553319 
L 330.307806 85.971485 
L 334.21465 93.562841 
L 337.334151 101.307559 
L 339.591926 109.178729 
L 340.915404 117.139619 
L 341.25938 125.143891 
L 340.612392 133.139992 
L 338.996133 141.07723 
L 336.465902 148.911664 
L 333.09694 156.60926 
L 328.961524 164.145162 
L 324.132016 171.502709 
L 318.672105 178.670037 
L 312.616977 185.631082 
L 305.986221 192.360021 
L 298.775333 198.816101 
L 290.928757 204.936438 
L 282.352522 210.623833 
L 273.747607 215.256655 
L 263.316382 219.32222 
L 263.316382 219.32222 
" clip-path="url(#p97f791c2cf)" style="fill: none; stroke: #add8e6"/>
    <path d="M 352.302805 82.659967 
L 357.507312 89.90231 
L 361.900047 97.370766 
L 365.347 105.049244 
L 367.697289 112.902825 
L 368.827785 120.871596 
L 368.673159 128.875122 
L 367.241877 136.826441 
L 364.613078 144.649144 
L 360.919178 152.285798 
L 356.315178 159.704787 
" clip-path="url(#p97f791c2cf)" style="fill: none; stroke: #add8e6"/>
    <path d="M 75.165107 166.198797 
L 72.547194 158.376091 
L 70.71218 150.452279 
L 69.473497 142.476493 
L 68.720477 134.473613 
L 68.392569 126.457923 
L 68.464867 118.439331 
L 68.942493 110.42679 
L 69.8617 102.431138 
L 71.298089 94.46898 
L 73.385078 86.570085 
L 76.348563 78.796977 
L 80.555944 71.291568 
L 80.555944 71.291568 
" clip-path="url(#p97f791c2cf)" style="fill: none; stroke: #add8e6"/>
    <path d="M 233.802624 32.729576 
L 233.802624 32.729576 
L 236.305159 34.913803 
L 236.305159 34.913803 
L 239.437052 38.590844 
L 239.437052 38.590844 
L 243.995659 45.967705 
L 247.335999 53.661006 
L 250.033065 61.475866 
L 252.270631 69.357612 
L 254.083381 77.286159 
L 255.537111 85.246845 
L 256.678935 93.230021 
L 257.537246 101.229045 
L 258.129018 109.238881 
L 258.463945 117.255361 
L 258.54681 125.274769 
L 258.378691 133.293564 
L 257.957245 141.308164 
L 257.27612 149.314716 
L 256.323385 157.308776 
L 255.078644 165.28479 
L 253.508031 173.235138 
L 251.555235 181.148218 
L 249.17702 189.008053 
L 246.295538 196.785388 
L 243.016003 203.760029 
L 237.992208 211.025212 
L 237.992208 211.025212 
L 235.576117 213.60204 
L 235.576117 213.60204 
" clip-path="url(#p97f791c2cf)" style="fill: none; stroke: #add8e6"/>
    <path d="M 335.189672 75.114849 
L 340.665431 82.272654 
L 345.454141 89.638403 
L 349.456523 97.20288 
L 352.568793 104.94557 
L 354.675852 112.832322 
L 355.687947 120.811777 
L 355.559186 128.819198 
L 354.295131 136.785726 
L 351.950991 144.649144 
L 348.62336 152.359251 
L 344.431428 159.883979 
L 339.473521 167.204817 
L 333.849823 174.314501 
L 327.634202 181.20741 
L 320.873934 187.877304 
L 313.58606 194.310102 
" clip-path="url(#p97f791c2cf)" style="fill: none; stroke: #add8e6"/>
    <path d="M 101.560973 186.114368 
L 96.487075 181.07122 
L 96.487075 181.07122 
L 91.421918 173.842044 
L 87.803747 166.206348 
L 85.217676 158.378251 
L 83.38978 150.45351 
L 82.148862 142.47783 
L 81.391733 134.475126 
L 81.061347 126.459505 
L 81.134095 118.44094 
L 81.614823 110.428495 
L 82.537801 102.433019 
L 83.973995 94.470769 
L 86.047165 86.570085 
L 88.963332 78.788535 
L 93.051203 71.251424 
L 93.051203 71.251424 
L 97.661907 65.347327 
L 103.777361 59.975154 
L 110.248812 56.031367 
L 117.070878 53.033725 
L 124.802154 50.545797 
" clip-path="url(#p97f791c2cf)" style="fill: none; stroke: #add8e6"/>
    <path d="M 180.874549 205.483459 
L 174.681774 202.728204 
L 174.681774 202.728204 
L 174.681774 202.728204 
L 167.402352 198.242526 
L 161.655661 193.096045 
L 156.849925 187.035001 
L 152.926391 180.117882 
L 149.730225 172.392802 
L 147.345918 164.534294 
L 145.58103 156.602361 
L 144.304491 148.628617 
L 143.433692 140.630568 
L 142.918525 132.618848 
L 142.731591 124.600754 
L 142.863327 116.582165 
L 143.3204 108.56885 
L 144.126829 100.56773 
L 145.328211 92.588626 
L 147.000522 84.647363 
L 149.266736 76.772159 
L 152.307811 69.015517 
L 156.408182 61.483073 
L 162.046051 54.420641 
" clip-path="url(#p97f791c2cf)" style="fill: none; stroke: #add8e6"/>
    <path d="M 191.757075 206.113425 
L 187.343861 202.728204 
L 187.343861 202.728204 
L 187.343861 202.728204 
L 182.032166 197.050812 
L 178.210837 191.076296 
L 174.660287 183.430948 
L 172.013336 175.610548 
L 170.038761 167.700317 
L 168.556014 159.741746 
L 167.458659 151.755238 
L 166.681533 143.752003 
L 166.184562 135.738874 
L 165.944463 127.720501 
L 165.950542 119.7005 
L 166.203013 111.68223 
L 166.713112 103.669389 
L 167.504876 95.666706 
L 168.619455 87.681162 
L 170.123761 79.724284 
L 172.127438 71.817225 
L 174.81778 64.003568 
L 178.44354 56.375468 
L 183.443256 49.189888 
L 183.443256 49.189888 
L 187.904659 44.746854 
" clip-path="url(#p97f791c2cf)" style="fill: none; stroke: #add8e6"/>
    <path d="M 200.005948 202.728204 
L 200.005948 202.728204 
L 196.419505 195.088626 
L 194.03795 187.240825 
L 192.301726 179.310392 
L 190.982462 171.341058 
L 189.966682 163.350557 
L 189.191299 155.347466 
L 188.618875 147.336532 
L 188.226603 139.320699 
L 188.000893 131.302001 
L 187.93461 123.28202 
L 188.02576 115.262151 
L 188.277138 107.243805 
L 188.696823 99.228621 
L 189.299689 91.218755 
L 190.110502 83.217393 
L 191.170005 75.229794 
L 192.547503 67.265758 
L 194.36986 59.346573 
L 196.899914 51.53047 
L 200.787939 44.06145 
" clip-path="url(#p97f791c2cf)" style="fill: none; stroke: #add8e6"/>
    <path d="M 212.668035 202.728204 
L 212.668035 202.728204 
L 211.569278 194.74335 
L 210.861384 186.738778 
L 210.355389 178.726674 
L 209.977565 170.710964 
L 209.691394 162.693276 
L 209.476343 154.674413 
L 209.320037 146.654823 
L 209.214825 138.634785 
L 209.156109 130.61449 
L 209.141501 122.594086 
L 209.170434 114.573704 
L 209.244067 106.553478 
L 209.365473 98.533568 
L 209.54016 90.514191 
L 209.777135 82.495674 
L 210.091029 74.47857 
L 210.506583 66.463919 
L 211.069439 58.454008 
L 211.87809 50.455298 
L 213.228979 42.624818 
L 213.228979 42.624818 
" clip-path="url(#p97f791c2cf)" style="fill: none; stroke: #add8e6"/>
    <path d="M 288.335099 188.929837 
L 282.536819 195.97382 
L 275.978469 202.728204 
L 268.488956 209.03107 
L 268.488956 209.03107 
L 261.391827 213.728804 
L 261.391827 213.728804 
" clip-path="url(#p97f791c2cf)" style="fill: none; stroke: #add8e6"/>
    <path d="M 295.507382 34.6386 
L 305.001488 39.645368 
L 313.96473 45.085042 
L 322.441636 50.857278 
L 330.457364 56.897954 
" clip-path="url(#p97f791c2cf)" style="fill: none; stroke: #add8e6"/>
    <path d="M 275.978469 45.085042 
L 282.536819 51.839426 
L 288.335099 58.883409 
L 293.473075 66.146936 
L 297.976984 73.590972 
L 301.879969 81.182851 
L 305.170214 88.900118 
L 307.820796 96.723014 
L 309.81851 104.629756 
L 311.144409 112.597695 
L 311.781066 120.602505 
L 311.718664 128.618435 
L 310.958376 136.619307 
L 309.51197 144.579683 
L 307.39753 152.475069 
L 304.63329 160.282591 
L 301.230457 167.980375 
L 297.217256 175.548675 
" clip-path="url(#p97f791c2cf)" style="fill: none; stroke: #add8e6"/>
    <path d="M 100.420362 166.231831 
L 97.905201 158.39273 
L 96.113857 150.464019 
L 94.891249 142.48697 
L 94.142604 134.483853 
L 93.815078 126.46814 
L 93.886674 118.449535 
L 94.361867 110.436901 
L 95.272448 102.440731 
L 96.683878 94.476416 
L 98.709252 86.570085 
L 101.53401 78.773175 
L 105.450328 71.19367 
L 110.889108 64.071225 
L 117.151906 58.546206 
" clip-path="url(#p97f791c2cf)" style="fill: none; stroke: #add8e6"/>
    <path d="M 131.300327 197.249503 
L 124.033426 194.431195 
L 124.033426 194.431195 
L 124.033426 194.431195 
L 116.424557 190.22495 
L 110.221767 185.226621 
L 105.38417 179.657735 
" clip-path="url(#p97f791c2cf)" style="fill: none; stroke: #add8e6"/>
    <path d="M 155.139344 198.077225 
L 149.3576 194.431195 
L 149.3576 194.431195 
L 142.236857 187.993385 
L 137.65224 181.915434 
L 133.686221 174.624251 
L 130.657697 166.867137 
L 128.429323 158.987488 
L 126.812327 151.041083 
L 125.688878 143.056855 
L 124.986699 135.051306 
L 124.664447 127.034998 
L 124.704027 119.01581 
L 125.10741 111.000923 
L 125.896972 102.99848 
L 127.11974 95.019796 
L 128.856897 87.083284 
L 131.24037 79.221907 
L 134.482295 71.500629 
L 138.905367 64.056829 
L 138.905367 64.056829 
L 143.772275 58.222616 
L 150.137839 52.898069 
" clip-path="url(#p97f791c2cf)" style="fill: none; stroke: #add8e6"/>
    <path d="M 244.949837 106.465698 
L 245.210564 114.483809 
L 245.314876 122.503596 
L 245.264898 130.523636 
L 245.059661 138.54253 
L 244.694907 146.55878 
L 244.162267 154.570645 
L 243.447554 162.575912 
L 242.527607 170.571495 
L 241.364346 178.552654 
L 239.89264 186.511247 
L 237.992208 194.431195 
" clip-path="url(#p97f791c2cf)" style="fill: none; stroke: #add8e6"/>
    <path d="M 273.751409 75.997063 
L 276.234182 83.845552 
L 278.246511 91.752657 
L 279.795199 99.704784 
L 280.89679 107.689339 
L 281.559701 115.695092 
L 281.787656 123.711459 
L 281.581698 131.728107 
L 280.94088 139.73471 
L 279.861649 147.720713 
L 278.335903 155.67495 
L 276.347637 163.584963 
L 273.891664 171.43742 
L 270.951835 179.215656 
L 267.467945 186.89442 
L 263.316382 194.431195 
" clip-path="url(#p97f791c2cf)" style="fill: none; stroke: #add8e6"/>
    <path d="M 327.611772 97.442883 
L 330.07934 105.288406 
L 331.708004 113.227737 
L 332.458714 121.223873 
L 332.311062 129.235113 
L 331.269058 137.218471 
L 329.359984 145.133678 
L 326.626817 152.946153 
" clip-path="url(#p97f791c2cf)" style="fill: none; stroke: #add8e6"/>
    <path d="M 237.992208 53.382051 
L 239.89264 61.301999 
L 241.364346 69.260592 
L 242.527607 77.241751 
L 243.447554 85.237334 
L 244.162267 93.242601 
" clip-path="url(#p97f791c2cf)" style="fill: none; stroke: #add8e6"/>
    <path d="M 126.796816 186.749732 
L 121.066865 179.740008 
L 116.8876 172.237735 
L 113.839567 164.48609 
L 111.619176 156.606835 
L 110.034266 148.658657 
L 108.964938 140.672039 
L 108.336205 132.66458 
L 108.107436 124.647603 
L 108.264435 116.629839 
L 108.816789 108.619807 
L 109.799626 100.628075 
L 111.280342 92.670523 
L 113.368197 84.773944 
L 116.238659 76.98835 
L 119.960153 69.744125 
L 124.423165 63.527582 
L 129.843346 58.145354 
L 136.695513 53.382051 
L 136.695513 53.382051 
L 136.695513 53.382051 
" clip-path="url(#p97f791c2cf)" style="fill: none; stroke: #add8e6"/>
    <path d="M 255.089959 46.612728 
L 259.572232 54.051509 
L 263.316382 61.679059 
L 266.465645 69.425053 
L 269.074301 77.255666 
" clip-path="url(#p97f791c2cf)" style="fill: none; stroke: #add8e6"/>
    <path d="M 200.005948 177.837178 
L 199.063929 169.841167 
L 198.350696 161.834965 
L 197.815939 153.822648 
L 197.429361 145.806539 
L 197.172313 137.788098 
L 197.033715 129.768344 
L 197.008005 121.748071 
L 197.094208 113.727997 
L 197.29579 105.708868 
L 197.62121 97.691592 
L 198.085419 89.677417 
L 198.712873 81.668261 
L 199.543596 73.667401 
" clip-path="url(#p97f791c2cf)" style="fill: none; stroke: #add8e6"/>
    <path d="M 174.681774 152.946153 
L 173.945012 144.94079 
L 173.464018 136.927036 
L 173.215608 128.908709 
L 173.188591 120.888754 
L 173.381878 112.869832 
L 173.804304 104.854804 
L 174.47612 96.847289 
" clip-path="url(#p97f791c2cf)" style="fill: none; stroke: #add8e6"/>
    <path d="M 238.044151 104.551463 
L 238.273926 112.570324 
L 238.382089 120.590312 
L 238.37196 128.610626 
L 238.243287 136.630505 
L 237.992208 144.649144 
" clip-path="url(#p97f791c2cf)" style="fill: none; stroke: #add8e6"/>
   </g>
   <g id="patch_3">
    <path d="M 227.924304 138.932634 
Q 227.924235 138.93852 227.937363 137.826449 
" clip-path="url(#p97f791c2cf)" style="fill: none; stroke: #add8e6; stroke-linecap: round"/>
    <path d="M 229.98444 133.850336 
L 227.937363 137.826449 
L 225.984719 133.80312 
z
" clip-path="url(#p97f791c2cf)" style="fill: #add8e6; stroke: #add8e6; stroke-linecap: round"/>
   </g>
   <g id="patch_4">
    <path d="M 71.779569 223.238788 
Q 71.669815 223.40529 72.175387 222.638317 
" clip-path="url(#p97f791c2cf)" style="fill: none; stroke: #add8e6; stroke-linecap: round"/>
    <path d="M 76.046693 220.399346 
L 72.175387 222.638317 
L 72.706994 218.19789 
z
" clip-path="url(#p97f791c2cf)" style="fill: #add8e6; stroke: #add8e6; stroke-linecap: round"/>
   </g>
   <g id="patch_5">
    <path d="M 85.16493 223.399895 
Q 85.036345 223.581049 85.5549 222.850496 
" clip-path="url(#p97f791c2cf)" style="fill: none; stroke: #add8e6; stroke-linecap: round"/>
    <path d="M 89.501089 220.746312 
L 85.5549 222.850496 
L 86.239266 218.431034 
z
" clip-path="url(#p97f791c2cf)" style="fill: #add8e6; stroke: #add8e6; stroke-linecap: round"/>
   </g>
   <g id="patch_6">
    <path d="M 93.21328 230.831716 
Q 93.125602 230.979404 93.608664 230.165709 
" clip-path="url(#p97f791c2cf)" style="fill: none; stroke: #add8e6; stroke-linecap: round"/>
    <path d="M 97.370375 227.747129 
L 93.608664 230.165709 
L 93.930826 225.705192 
z
" clip-path="url(#p97f791c2cf)" style="fill: #add8e6; stroke: #add8e6; stroke-linecap: round"/>
   </g>
   <g id="patch_7">
    <path d="M 124.586564 223.748135 
Q 124.410797 223.962345 124.94423 223.312242 
" clip-path="url(#p97f791c2cf)" style="fill: none; stroke: #add8e6; stroke-linecap: round"/>
    <path d="M 129.027669 221.48864 
L 124.94423 223.312242 
L 125.935412 218.95133 
z
" clip-path="url(#p97f791c2cf)" style="fill: #add8e6; stroke: #add8e6; stroke-linecap: round"/>
   </g>
   <g id="patch_8">
    <path d="M 144.373263 230.942911 
Q 144.268293 231.105525 144.769675 230.32881 
" clip-path="url(#p97f791c2cf)" style="fill: none; stroke: #add8e6; stroke-linecap: round"/>
    <path d="M 148.619346 228.052841 
L 144.769675 230.32881 
L 145.258702 225.883492 
z
" clip-path="url(#p97f791c2cf)" style="fill: #add8e6; stroke: #add8e6; stroke-linecap: round"/>
   </g>
   <g id="patch_9">
    <path d="M 169.113604 230.821434 
Q 169.025947 230.969022 169.509217 230.155339 
" clip-path="url(#p97f791c2cf)" style="fill: none; stroke: #add8e6; stroke-linecap: round"/>
    <path d="M 173.2714 227.737492 
L 169.509217 230.155339 
L 169.832249 225.694885 
z
" clip-path="url(#p97f791c2cf)" style="fill: #add8e6; stroke: #add8e6; stroke-linecap: round"/>
   </g>
   <g id="patch_10">
    <path d="M 192.673142 230.537503 
Q 192.632653 230.630131 193.039961 229.69832 
" clip-path="url(#p97f791c2cf)" style="fill: none; stroke: #add8e6; stroke-linecap: round"/>
    <path d="M 196.474624 226.834215 
L 193.039961 229.69832 
L 192.809476 225.232127 
z
" clip-path="url(#p97f791c2cf)" style="fill: #add8e6; stroke: #add8e6; stroke-linecap: round"/>
   </g>
   <g id="patch_11">
    <path d="M 220.71686 227.842518 
Q 220.419795 227.812063 221.234935 227.89563 
" clip-path="url(#p97f791c2cf)" style="fill: none; stroke: #add8e6; stroke-linecap: round"/>
    <path d="M 225.010111 230.293138 
L 221.234935 227.89563 
L 225.418047 226.313994 
z
" clip-path="url(#p97f791c2cf)" style="fill: #add8e6; stroke: #add8e6; stroke-linecap: round"/>
   </g>
   <g id="patch_12">
    <path d="M 243.72122 235.652288 
Q 243.543024 235.449132 244.102075 236.086492 
" clip-path="url(#p97f791c2cf)" style="fill: none; stroke: #add8e6; stroke-linecap: round"/>
    <path d="M 245.236165 240.412442 
L 244.102075 236.086492 
L 248.243289 237.77479 
z
" clip-path="url(#p97f791c2cf)" style="fill: #add8e6; stroke: #add8e6; stroke-linecap: round"/>
   </g>
   <g id="patch_13">
    <path d="M 265.30377 237.189968 
Q 264.687233 236.928714 265.100123 237.103674 
" clip-path="url(#p97f791c2cf)" style="fill: none; stroke: #add8e6; stroke-linecap: round"/>
    <path d="M 268.002785 240.505813 
L 265.100123 237.103674 
L 269.563431 236.822827 
z
" clip-path="url(#p97f791c2cf)" style="fill: #add8e6; stroke: #add8e6; stroke-linecap: round"/>
   </g>
   <g id="patch_14">
    <path d="M 371.823747 237.137801 
Q 370.86207 237.331755 370.996359 237.304671 
" clip-path="url(#p97f791c2cf)" style="fill: none; stroke: #add8e6; stroke-linecap: round"/>
    <path d="M 375.312812 238.474386 
L 370.996359 237.304671 
L 374.522003 234.553338 
z
" clip-path="url(#p97f791c2cf)" style="fill: #add8e6; stroke: #add8e6; stroke-linecap: round"/>
   </g>
   <g id="patch_15">
    <path d="M 367.028264 229.433002 
Q 366.106523 229.659395 366.270546 229.619109 
" clip-path="url(#p97f791c2cf)" style="fill: none; stroke: #add8e6; stroke-linecap: round"/>
    <path d="M 370.632142 230.60728 
L 366.270546 229.619109 
L 369.67804 226.722735 
z
" clip-path="url(#p97f791c2cf)" style="fill: #add8e6; stroke: #add8e6; stroke-linecap: round"/>
   </g>
   <g id="patch_16">
    <path d="M 369.043061 215.538477 
Q 368.227012 215.821548 368.467253 215.738213 
" clip-path="url(#p97f791c2cf)" style="fill: none; stroke: #add8e6; stroke-linecap: round"/>
    <path d="M 372.901794 216.316871 
L 368.467253 215.738213 
L 371.590904 212.537775 
z
" clip-path="url(#p97f791c2cf)" style="fill: #add8e6; stroke: #add8e6; stroke-linecap: round"/>
   </g>
   <g id="patch_17">
    <path d="M 371.843374 201.753736 
Q 371.1623 202.069074 371.495791 201.914667 
" clip-path="url(#p97f791c2cf)" style="fill: none; stroke: #add8e6; stroke-linecap: round"/>
    <path d="M 375.96591 202.048966 
L 371.495791 201.914667 
L 374.285302 198.419152 
z
" clip-path="url(#p97f791c2cf)" style="fill: #add8e6; stroke: #add8e6; stroke-linecap: round"/>
   </g>
   <g id="patch_18">
    <path d="M 384.424604 182.448204 
Q 383.922624 182.770646 384.361332 182.488847 
" clip-path="url(#p97f791c2cf)" style="fill: none; stroke: #add8e6; stroke-linecap: round"/>
    <path d="M 388.807737 182.009802 
L 384.361332 182.488847 
L 386.645939 178.644296 
z
" clip-path="url(#p97f791c2cf)" style="fill: #add8e6; stroke: #add8e6; stroke-linecap: round"/>
   </g>
   <g id="patch_19">
    <path d="M 364.695197 186.161635 
Q 364.220303 186.48064 364.673491 186.176216 
" clip-path="url(#p97f791c2cf)" style="fill: none; stroke: #add8e6; stroke-linecap: round"/>
    <path d="M 369.109122 185.60597 
L 364.673491 186.176216 
L 366.878673 182.285564 
z
" clip-path="url(#p97f791c2cf)" style="fill: #add8e6; stroke: #add8e6; stroke-linecap: round"/>
   </g>
   <g id="patch_20">
    <path d="M 396.730768 145.240038 
Q 396.642587 145.387317 397.128738 144.575355 
" clip-path="url(#p97f791c2cf)" style="fill: none; stroke: #add8e6; stroke-linecap: round"/>
    <path d="M 400.899474 142.17087 
L 397.128738 144.575355 
L 397.467592 140.116075 
z
" clip-path="url(#p97f791c2cf)" style="fill: #add8e6; stroke: #add8e6; stroke-linecap: round"/>
   </g>
   <g id="patch_21">
    <path d="M 344.16642 53.212803 
Q 344.647282 53.53222 344.19685 53.233016 
" clip-path="url(#p97f791c2cf)" style="fill: none; stroke: #add8e6; stroke-linecap: round"/>
    <path d="M 341.971576 49.353821 
L 344.19685 53.233016 
L 339.758329 52.685718 
z
" clip-path="url(#p97f791c2cf)" style="fill: #add8e6; stroke: #add8e6; stroke-linecap: round"/>
   </g>
   <g id="patch_22">
    <path d="M 381.303711 69.020492 
Q 381.718917 69.328832 381.236525 68.970599 
" clip-path="url(#p97f791c2cf)" style="fill: none; stroke: #add8e6; stroke-linecap: round"/>
    <path d="M 379.217588 64.980124 
L 381.236525 68.970599 
L 376.832783 68.191464 
z
" clip-path="url(#p97f791c2cf)" style="fill: #add8e6; stroke: #add8e6; stroke-linecap: round"/>
   </g>
   <g id="patch_23">
    <path d="M 357.926106 44.863216 
Q 358.569991 45.185111 358.213846 45.007064 
" clip-path="url(#p97f791c2cf)" style="fill: none; stroke: #add8e6; stroke-linecap: round"/>
    <path d="M 355.530353 41.429514 
L 358.213846 45.007064 
L 353.74171 45.007328 
z
" clip-path="url(#p97f791c2cf)" style="fill: #add8e6; stroke: #add8e6; stroke-linecap: round"/>
   </g>
   <g id="patch_24">
    <path d="M 374.030347 40.706434 
Q 374.755305 41.013847 374.450948 40.884787 
" clip-path="url(#p97f791c2cf)" style="fill: none; stroke: #add8e6; stroke-linecap: round"/>
    <path d="M 371.549146 37.481914 
L 374.450948 40.884787 
L 369.987568 41.164505 
z
" clip-path="url(#p97f791c2cf)" style="fill: #add8e6; stroke: #add8e6; stroke-linecap: round"/>
   </g>
   <g id="patch_25">
    <path d="M 360.631768 23.189143 
Q 361.5015 23.445384 361.298774 23.385657 
" clip-path="url(#p97f791c2cf)" style="fill: none; stroke: #add8e6; stroke-linecap: round"/>
    <path d="M 358.027056 20.336746 
L 361.298774 23.385657 
L 356.896614 24.173685 
z
" clip-path="url(#p97f791c2cf)" style="fill: #add8e6; stroke: #add8e6; stroke-linecap: round"/>
   </g>
   <g id="patch_26">
    <path d="M 358.486262 9.825918 
Q 359.448852 10.017895 359.315001 9.9912 
" clip-path="url(#p97f791c2cf)" style="fill: none; stroke: #add8e6; stroke-linecap: round"/>
    <path d="M 355.783428 7.247482 
L 359.315001 9.9912 
L 355.001083 11.170228 
z
" clip-path="url(#p97f791c2cf)" style="fill: #add8e6; stroke: #add8e6; stroke-linecap: round"/>
   </g>
   <g id="patch_27">
    <path d="M 381.341935 7.231438 
Q 382.300698 7.4319 382.165092 7.403547 
" clip-path="url(#p97f791c2cf)" style="fill: none; stroke: #add8e6; stroke-linecap: round"/>
    <path d="M 378.659077 4.627244 
L 382.165092 7.403547 
L 377.84044 8.542577 
z
" clip-path="url(#p97f791c2cf)" style="fill: #add8e6; stroke: #add8e6; stroke-linecap: round"/>
   </g>
   <g id="patch_28">
    <path d="M 223.61369 13.933949 
Q 223.675326 13.670488 223.482276 14.495666 
" clip-path="url(#p97f791c2cf)" style="fill: none; stroke: #add8e6; stroke-linecap: round"/>
    <path d="M 220.623662 17.9349 
L 223.482276 14.495666 
L 224.518494 18.846098 
z
" clip-path="url(#p97f791c2cf)" style="fill: #add8e6; stroke: #add8e6; stroke-linecap: round"/>
   </g>
   <g id="patch_29">
    <path d="M 171.393949 20.263812 
Q 171.560036 20.468719 171.022119 19.805077 
" clip-path="url(#p97f791c2cf)" style="fill: none; stroke: #add8e6; stroke-linecap: round"/>
    <path d="M 170.057099 15.438301 
L 171.022119 19.805077 
L 166.949686 17.957027 
z
" clip-path="url(#p97f791c2cf)" style="fill: #add8e6; stroke: #add8e6; stroke-linecap: round"/>
   </g>
   <g id="patch_30">
    <path d="M 146.749107 20.075374 
Q 146.935307 20.295195 146.398874 19.661903 
" clip-path="url(#p97f791c2cf)" style="fill: none; stroke: #add8e6; stroke-linecap: round"/>
    <path d="M 145.339598 15.317028 
L 146.398874 19.661903 
L 142.287409 17.902399 
z
" clip-path="url(#p97f791c2cf)" style="fill: #add8e6; stroke: #add8e6; stroke-linecap: round"/>
   </g>
   <g id="patch_31">
    <path d="M 121.343583 20.112843 
Q 121.51935 20.327053 120.985917 19.676951 
" clip-path="url(#p97f791c2cf)" style="fill: none; stroke: #add8e6; stroke-linecap: round"/>
    <path d="M 119.994735 15.316038 
L 120.985917 19.676951 
L 116.902478 17.853349 
z
" clip-path="url(#p97f791c2cf)" style="fill: #add8e6; stroke: #add8e6; stroke-linecap: round"/>
   </g>
   <g id="patch_32">
    <path d="M 95.439669 20.299186 
Q 95.58735 20.495011 95.061842 19.798191 
" clip-path="url(#p97f791c2cf)" style="fill: none; stroke: #add8e6; stroke-linecap: round"/>
    <path d="M 94.250178 15.400328 
L 95.061842 19.798191 
L 91.056553 17.808805 
z
" clip-path="url(#p97f791c2cf)" style="fill: #add8e6; stroke: #add8e6; stroke-linecap: round"/>
   </g>
   <g id="patch_33">
    <path d="M 82.333292 20.424067 
Q 82.461877 20.605221 81.943323 19.874668 
" clip-path="url(#p97f791c2cf)" style="fill: none; stroke: #add8e6; stroke-linecap: round"/>
    <path d="M 81.258956 15.455206 
L 81.943323 19.874668 
L 77.997133 17.770484 
z
" clip-path="url(#p97f791c2cf)" style="fill: #add8e6; stroke: #add8e6; stroke-linecap: round"/>
   </g>
   <g id="patch_34">
    <path d="M 69.13514 20.562751 
Q 69.244894 20.729252 68.739322 19.96228 
" clip-path="url(#p97f791c2cf)" style="fill: none; stroke: #add8e6; stroke-linecap: round"/>
    <path d="M 68.207715 15.521852 
L 68.739322 19.96228 
L 64.868016 17.723309 
z
" clip-path="url(#p97f791c2cf)" style="fill: #add8e6; stroke: #add8e6; stroke-linecap: round"/>
   </g>
   <g id="patch_35">
    <path d="M 52.020827 13.161149 
Q 52.072844 13.269646 51.641522 12.369984 
" clip-path="url(#p97f791c2cf)" style="fill: none; stroke: #add8e6; stroke-linecap: round"/>
    <path d="M 51.715731 7.898464 
L 51.641522 12.369984 
L 48.108831 9.627705 
z
" clip-path="url(#p97f791c2cf)" style="fill: #add8e6; stroke: #add8e6; stroke-linecap: round"/>
   </g>
   <g id="patch_36">
    <path d="M 39.000321 13.238765 
Q 39.040417 13.331593 38.637183 12.39804 
" clip-path="url(#p97f791c2cf)" style="fill: none; stroke: #add8e6; stroke-linecap: round"/>
    <path d="M 38.887126 7.932894 
L 38.637183 12.39804 
L 35.215032 9.518998 
z
" clip-path="url(#p97f791c2cf)" style="fill: #add8e6; stroke: #add8e6; stroke-linecap: round"/>
   </g>
   <g id="patch_37">
    <path d="M 41.808625 42.678604 
Q 42.249287 42.982627 41.769684 42.651739 
" clip-path="url(#p97f791c2cf)" style="fill: none; stroke: #add8e6; stroke-linecap: round"/>
    <path d="M 39.613008 38.733991 
L 41.769684 42.651739 
L 37.341481 42.026431 
z
" clip-path="url(#p97f791c2cf)" style="fill: #add8e6; stroke: #add8e6; stroke-linecap: round"/>
   </g>
   <g id="patch_38">
    <path d="M 41.031828 69.297266 
Q 41.410571 68.86704 41.050552 69.275997 
" clip-path="url(#p97f791c2cf)" style="fill: none; stroke: #add8e6; stroke-linecap: round"/>
    <path d="M 36.906296 70.956814 
L 41.050552 69.275997 
L 39.908652 73.599891 
z
" clip-path="url(#p97f791c2cf)" style="fill: #add8e6; stroke: #add8e6; stroke-linecap: round"/>
   </g>
   <g id="patch_39">
    <path d="M 36.485565 101.483542 
Q 36.488336 101.465845 36.318172 102.552726 
" clip-path="url(#p97f791c2cf)" style="fill: none; stroke: #add8e6; stroke-linecap: round"/>
    <path d="M 33.723532 106.195231 
L 36.318172 102.552726 
L 37.675392 106.813941 
z
" clip-path="url(#p97f791c2cf)" style="fill: #add8e6; stroke: #add8e6; stroke-linecap: round"/>
   </g>
   <g id="patch_40">
    <path d="M 41.640731 165.900643 
Q 41.618355 165.835609 41.959724 166.827784 
" clip-path="url(#p97f791c2cf)" style="fill: none; stroke: #add8e6; stroke-linecap: round"/>
    <path d="M 41.369905 171.260854 
L 41.959724 166.827784 
L 45.152289 169.959481 
z
" clip-path="url(#p97f791c2cf)" style="fill: #add8e6; stroke: #add8e6; stroke-linecap: round"/>
   </g>
   <g id="patch_41">
    <path d="M 43.350457 184.995504 
Q 42.781466 184.589739 43.122753 184.833121 
" clip-path="url(#p97f791c2cf)" style="fill: none; stroke: #add8e6; stroke-linecap: round"/>
    <path d="M 45.218235 188.783938 
L 43.122753 184.833121 
L 47.540696 185.527226 
z
" clip-path="url(#p97f791c2cf)" style="fill: #add8e6; stroke: #add8e6; stroke-linecap: round"/>
   </g>
   <g id="patch_42">
    <path d="M 50.840579 230.06749 
Q 50.788968 230.176085 51.217272 229.274886 
" clip-path="url(#p97f791c2cf)" style="fill: none; stroke: #add8e6; stroke-linecap: round"/>
    <path d="M 54.740638 226.520637 
L 51.217272 229.274886 
L 51.127892 224.803644 
z
" clip-path="url(#p97f791c2cf)" style="fill: #add8e6; stroke: #add8e6; stroke-linecap: round"/>
   </g>
   <g id="patch_43">
    <path d="M 395.116393 123.023695 
Q 395.088807 124.020876 395.092139 123.90045 
" clip-path="url(#p97f791c2cf)" style="fill: none; stroke: #add8e6; stroke-linecap: round"/>
    <path d="M 397.201985 119.957286 
L 395.092139 123.90045 
L 393.203515 119.846674 
z
" clip-path="url(#p97f791c2cf)" style="fill: #add8e6; stroke: #add8e6; stroke-linecap: round"/>
   </g>
   <g id="patch_44">
    <path d="M 244.557583 16.718496 
Q 244.905849 16.443076 244.377169 16.861174 
" clip-path="url(#p97f791c2cf)" style="fill: none; stroke: #add8e6; stroke-linecap: round"/>
    <path d="M 239.999112 17.773652 
L 244.377169 16.861174 
L 242.480318 20.911106 
z
" clip-path="url(#p97f791c2cf)" style="fill: #add8e6; stroke: #add8e6; stroke-linecap: round"/>
   </g>
   <g id="patch_45">
    <path d="M 43.330507 124.47559 
Q 43.330556 124.469705 43.321307 125.581816 
" clip-path="url(#p97f791c2cf)" style="fill: none; stroke: #add8e6; stroke-linecap: round"/>
    <path d="M 41.288113 129.565046 
L 43.321307 125.581816 
L 45.287974 129.598309 
z
" clip-path="url(#p97f791c2cf)" style="fill: #add8e6; stroke: #add8e6; stroke-linecap: round"/>
   </g>
   <g id="patch_46">
    <path d="M 379.49314 138.745106 
Q 379.465774 138.817954 379.83159 137.844184 
" clip-path="url(#p97f791c2cf)" style="fill: none; stroke: #add8e6; stroke-linecap: round"/>
    <path d="M 383.110531 134.803042 
L 379.83159 137.844184 
L 379.366041 133.396346 
z
" clip-path="url(#p97f791c2cf)" style="fill: #add8e6; stroke: #add8e6; stroke-linecap: round"/>
   </g>
   <g id="patch_47">
    <path d="M 61.737316 76.5504 
Q 61.821551 76.407341 61.33851 77.227712 
" clip-path="url(#p97f791c2cf)" style="fill: none; stroke: #add8e6; stroke-linecap: round"/>
    <path d="M 57.585526 79.659812 
L 61.33851 77.227712 
L 61.0324 81.689359 
z
" clip-path="url(#p97f791c2cf)" style="fill: #add8e6; stroke: #add8e6; stroke-linecap: round"/>
   </g>
   <g id="patch_48">
    <path d="M 61.493371 149.213139 
Q 61.490543 149.195447 61.664165 150.281778 
" clip-path="url(#p97f791c2cf)" style="fill: none; stroke: #add8e6; stroke-linecap: round"/>
    <path d="M 60.320515 154.547292 
L 61.664165 150.281778 
L 64.270386 153.916007 
z
" clip-path="url(#p97f791c2cf)" style="fill: #add8e6; stroke: #add8e6; stroke-linecap: round"/>
   </g>
   <g id="patch_49">
    <path d="M 296.017535 124.386477 
Q 296.017409 124.39236 296.041241 123.280465 
" clip-path="url(#p97f791c2cf)" style="fill: none; stroke: #add8e6; stroke-linecap: round"/>
    <path d="M 298.126498 119.324241 
L 296.041241 123.280465 
L 294.127417 119.238525 
z
" clip-path="url(#p97f791c2cf)" style="fill: #add8e6; stroke: #add8e6; stroke-linecap: round"/>
   </g>
   <g id="patch_50">
    <path d="M 341.00123 119.136778 
Q 341.001314 119.138736 340.953396 118.023691 
" clip-path="url(#p97f791c2cf)" style="fill: none; stroke: #add8e6; stroke-linecap: round"/>
    <path d="M 342.779814 113.941511 
L 340.953396 118.023691 
L 338.783502 114.113249 
z
" clip-path="url(#p97f791c2cf)" style="fill: #add8e6; stroke: #add8e6; stroke-linecap: round"/>
   </g>
   <g id="patch_51">
    <path d="M 368.789204 122.86857 
Q 368.789167 122.870528 368.810725 121.75466 
" clip-path="url(#p97f791c2cf)" style="fill: none; stroke: #add8e6; stroke-linecap: round"/>
    <path d="M 370.887616 117.794038 
L 368.810725 121.75466 
L 366.888362 117.716774 
z
" clip-path="url(#p97f791c2cf)" style="fill: #add8e6; stroke: #add8e6; stroke-linecap: round"/>
   </g>
   <g id="patch_52">
    <path d="M 68.410608 124.45719 
Q 68.410661 124.451306 68.400634 125.56341 
" clip-path="url(#p97f791c2cf)" style="fill: none; stroke: #add8e6; stroke-linecap: round"/>
    <path d="M 66.364652 129.545215 
L 68.400634 125.56341 
L 70.364489 129.581279 
z
" clip-path="url(#p97f791c2cf)" style="fill: #add8e6; stroke: #add8e6; stroke-linecap: round"/>
   </g>
   <g id="patch_53">
    <path d="M 258.484621 119.256297 
Q 258.484682 119.262182 258.473191 118.150093 
" clip-path="url(#p97f791c2cf)" style="fill: none; stroke: #add8e6; stroke-linecap: round"/>
    <path d="M 260.431754 114.129641 
L 258.473191 118.150093 
L 256.431968 114.170971 
z
" clip-path="url(#p97f791c2cf)" style="fill: #add8e6; stroke: #add8e6; stroke-linecap: round"/>
   </g>
   <g id="patch_54">
    <path d="M 355.246258 130.79138 
Q 355.243454 130.809056 355.415856 129.722511 
" clip-path="url(#p97f791c2cf)" style="fill: none; stroke: #add8e6; stroke-linecap: round"/>
    <path d="M 358.017987 126.085353 
L 355.415856 129.722511 
L 354.067408 125.458512 
z
" clip-path="url(#p97f791c2cf)" style="fill: #add8e6; stroke: #add8e6; stroke-linecap: round"/>
   </g>
   <g id="patch_55">
    <path d="M 81.254042 116.441741 
Q 81.254395 116.435861 81.187789 117.546009 
" clip-path="url(#p97f791c2cf)" style="fill: none; stroke: #add8e6; stroke-linecap: round"/>
    <path d="M 78.951819 121.419049 
L 81.187789 117.546009 
L 82.944639 121.658608 
z
" clip-path="url(#p97f791c2cf)" style="fill: #add8e6; stroke: #add8e6; stroke-linecap: round"/>
   </g>
   <g id="patch_56">
    <path d="M 142.871883 130.61824 
Q 142.871746 130.612356 142.897667 131.724202 
" clip-path="url(#p97f791c2cf)" style="fill: none; stroke: #add8e6; stroke-linecap: round"/>
    <path d="M 140.991441 135.769731 
L 142.897667 131.724202 
L 144.990355 135.6765 
z
" clip-path="url(#p97f791c2cf)" style="fill: #add8e6; stroke: #add8e6; stroke-linecap: round"/>
   </g>
   <g id="patch_57">
    <path d="M 165.945979 125.719417 
Q 165.945984 125.713531 165.945141 126.825679 
" clip-path="url(#p97f791c2cf)" style="fill: none; stroke: #add8e6; stroke-linecap: round"/>
    <path d="M 163.94211 130.824162 
L 165.945141 126.825679 
L 167.942109 130.827194 
z
" clip-path="url(#p97f791c2cf)" style="fill: #add8e6; stroke: #add8e6; stroke-linecap: round"/>
   </g>
   <g id="patch_58">
    <path d="M 187.984355 129.300922 
Q 187.984306 129.295036 187.993497 130.407147 
" clip-path="url(#p97f791c2cf)" style="fill: none; stroke: #add8e6; stroke-linecap: round"/>
    <path d="M 186.026623 134.423539 
L 187.993497 130.407147 
L 190.026487 134.390481 
z
" clip-path="url(#p97f791c2cf)" style="fill: #add8e6; stroke: #add8e6; stroke-linecap: round"/>
   </g>
   <g id="patch_59">
    <path d="M 209.152464 128.613305 
Q 209.152453 128.607419 209.154479 129.719566 
" clip-path="url(#p97f791c2cf)" style="fill: none; stroke: #add8e6; stroke-linecap: round"/>
    <path d="M 207.161767 133.723201 
L 209.154479 129.719566 
L 211.16176 133.715916 
z
" clip-path="url(#p97f791c2cf)" style="fill: #add8e6; stroke: #add8e6; stroke-linecap: round"/>
   </g>
   <g id="patch_60">
    <path d="M 281.14381 197.408467 
Q 280.897908 197.661719 281.43085 197.112846 
" clip-path="url(#p97f791c2cf)" style="fill: none; stroke: #add8e6; stroke-linecap: round"/>
    <path d="M 285.652209 195.636319 
L 281.43085 197.112846 
L 282.782443 192.849843 
z
" clip-path="url(#p97f791c2cf)" style="fill: #add8e6; stroke: #add8e6; stroke-linecap: round"/>
   </g>
   <g id="patch_61">
    <path d="M 315.618306 46.211023 
Q 316.084038 46.528157 315.625641 46.216018 
" clip-path="url(#p97f791c2cf)" style="fill: none; stroke: #add8e6; stroke-linecap: round"/>
    <path d="M 313.445054 42.311528 
L 315.625641 46.216018 
L 311.193697 45.617793 
z
" clip-path="url(#p97f791c2cf)" style="fill: #add8e6; stroke: #add8e6; stroke-linecap: round"/>
   </g>
   <g id="patch_62">
    <path d="M 310.146748 106.602288 
Q 310.14969 106.619967 309.96911 105.534776 
" clip-path="url(#p97f791c2cf)" style="fill: none; stroke: #add8e6; stroke-linecap: round"/>
    <path d="M 311.285393 101.260739 
L 309.96911 105.534776 
L 307.339649 101.917327 
z
" clip-path="url(#p97f791c2cf)" style="fill: #add8e6; stroke: #add8e6; stroke-linecap: round"/>
   </g>
   <g id="patch_63">
    <path d="M 94.00524 116.450289 
Q 94.005589 116.444409 93.939748 117.554601 
" clip-path="url(#p97f791c2cf)" style="fill: none; stroke: #add8e6; stroke-linecap: round"/>
    <path d="M 91.706451 121.429183 
L 93.939748 117.554601 
L 95.699435 121.665989 
z
" clip-path="url(#p97f791c2cf)" style="fill: #add8e6; stroke: #add8e6; stroke-linecap: round"/>
   </g>
   <g id="patch_64">
    <path d="M 114.864774 188.968046 
Q 114.093968 188.346916 114.193723 188.427301 
" clip-path="url(#p97f791c2cf)" style="fill: none; stroke: #add8e6; stroke-linecap: round"/>
    <path d="M 116.053429 192.494424 
L 114.193723 188.427301 
L 118.563246 189.379811 
z
" clip-path="url(#p97f791c2cf)" style="fill: #add8e6; stroke: #add8e6; stroke-linecap: round"/>
   </g>
   <g id="patch_65">
    <path d="M 124.674323 125.034117 
Q 124.674352 125.028232 124.668863 126.140367 
" clip-path="url(#p97f791c2cf)" style="fill: none; stroke: #add8e6; stroke-linecap: round"/>
    <path d="M 122.649145 130.130447 
L 124.668863 126.140367 
L 126.649096 130.15019 
z
" clip-path="url(#p97f791c2cf)" style="fill: #add8e6; stroke: #add8e6; stroke-linecap: round"/>
   </g>
   <g id="patch_66">
    <path d="M 244.562007 148.557834 
Q 244.561616 148.563714 244.63539 147.454022 
" clip-path="url(#p97f791c2cf)" style="fill: none; stroke: #add8e6; stroke-linecap: round"/>
    <path d="M 246.896324 143.595502 
L 244.63539 147.454022 
L 242.905135 143.330162 
z
" clip-path="url(#p97f791c2cf)" style="fill: #add8e6; stroke: #add8e6; stroke-linecap: round"/>
   </g>
   <g id="patch_67">
    <path d="M 281.422432 133.718029 
Q 281.421645 133.72786 281.510056 132.623221 
" clip-path="url(#p97f791c2cf)" style="fill: none; stroke: #add8e6; stroke-linecap: round"/>
    <path d="M 283.822805 128.795533 
L 281.510056 132.623221 
L 279.835555 128.476409 
z
" clip-path="url(#p97f791c2cf)" style="fill: #add8e6; stroke: #add8e6; stroke-linecap: round"/>
   </g>
   <g id="patch_68">
    <path d="M 332.421873 123.222771 
Q 332.421837 123.224731 332.442403 122.108846 
" clip-path="url(#p97f791c2cf)" style="fill: none; stroke: #add8e6; stroke-linecap: round"/>
    <path d="M 334.515774 118.146381 
L 332.442403 122.108846 
L 330.516453 118.072671 
z
" clip-path="url(#p97f791c2cf)" style="fill: #add8e6; stroke: #add8e6; stroke-linecap: round"/>
   </g>
   <g id="patch_69">
    <path d="M 241.652321 71.236397 
Q 241.654902 71.254105 241.496232 70.165468 
" clip-path="url(#p97f791c2cf)" style="fill: none; stroke: #add8e6; stroke-linecap: round"/>
    <path d="M 242.898413 65.918836 
L 241.496232 70.165468 
L 238.940235 66.495744 
z
" clip-path="url(#p97f791c2cf)" style="fill: #add8e6; stroke: #add8e6; stroke-linecap: round"/>
   </g>
   <g id="patch_70">
    <path d="M 108.14661 122.647077 
Q 108.146725 122.641193 108.124951 123.753129 
" clip-path="url(#p97f791c2cf)" style="fill: none; stroke: #add8e6; stroke-linecap: round"/>
    <path d="M 106.047024 127.713207 
L 108.124951 123.753129 
L 110.046258 127.791517 
z
" clip-path="url(#p97f791c2cf)" style="fill: #add8e6; stroke: #add8e6; stroke-linecap: round"/>
   </g>
   <g id="patch_71">
    <path d="M 264.06833 63.528567 
Q 264.102877 63.613537 263.716339 62.662801 
" clip-path="url(#p97f791c2cf)" style="fill: none; stroke: #add8e6; stroke-linecap: round"/>
    <path d="M 264.062552 58.204087 
L 263.716339 62.662801 
L 260.357095 59.710602 
z
" clip-path="url(#p97f791c2cf)" style="fill: #add8e6; stroke: #add8e6; stroke-linecap: round"/>
   </g>
   <g id="patch_72">
    <path d="M 197.0273 127.767192 
Q 197.027281 127.761306 197.030846 128.873449 
" clip-path="url(#p97f791c2cf)" style="fill: none; stroke: #add8e6; stroke-linecap: round"/>
    <path d="M 195.043679 132.879839 
L 197.030846 128.873449 
L 199.043659 132.867017 
z
" clip-path="url(#p97f791c2cf)" style="fill: #add8e6; stroke: #add8e6; stroke-linecap: round"/>
   </g>
   <g id="patch_73">
    <path d="M 173.208867 126.907636 
Q 173.208847 126.901751 173.212594 128.013893 
" clip-path="url(#p97f791c2cf)" style="fill: none; stroke: #add8e6; stroke-linecap: round"/>
    <path d="M 171.22608 132.020607 
L 173.212594 128.013893 
L 175.226057 132.007133 
z
" clip-path="url(#p97f791c2cf)" style="fill: #add8e6; stroke: #add8e6; stroke-linecap: round"/>
   </g>
   <g id="patch_74">
    <path d="M 238.379562 122.591474 
Q 238.379554 122.59736 238.380959 121.485212 
" clip-path="url(#p97f791c2cf)" style="fill: none; stroke: #add8e6; stroke-linecap: round"/>
    <path d="M 240.386009 117.487741 
L 238.380959 121.485212 
L 236.386012 117.48269 
z
" clip-path="url(#p97f791c2cf)" style="fill: #add8e6; stroke: #add8e6; stroke-linecap: round"/>
   </g>
   <g id="line2d_131">
    <path d="M 65.998861 123.906623 
L 66.763862 108.26852 
L 67.528863 102.057763 
L 68.293864 97.466153 
L 69.058865 93.735076 
L 70.588867 87.802973 
L 72.118869 83.152036 
L 73.648872 79.337945 
L 75.178874 76.125639 
L 76.708876 73.371422 
L 78.238878 70.979204 
L 79.76888 68.880677 
L 82.063883 66.175878 
L 84.358887 63.895148 
L 86.65389 61.949738 
L 88.948893 60.274176 
L 92.008898 58.375474 
L 95.068902 56.780408 
L 98.128906 55.42346 
L 101.953912 53.987882 
L 105.778917 52.775433 
L 110.368924 51.540881 
L 115.723931 50.321364 
L 122.608941 48.99027 
L 131.788954 47.464819 
L 147.088976 45.194164 
L 170.039008 41.764158 
L 183.044027 39.586308 
L 193.754042 37.570921 
L 202.934055 35.61828 
L 210.584066 33.768149 
L 216.704075 32.074238 
L 221.294081 30.599722 
L 232.004096 26.993795 
L 236.594103 25.733205 
L 240.419108 24.892823 
L 244.244114 24.263359 
L 248.069119 23.853368 
L 251.894125 23.66489 
L 255.71913 23.695561 
L 259.544136 23.94011 
L 263.369141 24.391434 
L 267.194146 25.041367 
L 271.784153 26.07122 
L 276.374159 27.359414 
L 280.964166 28.89124 
L 285.554173 30.652921 
L 290.144179 32.631947 
L 295.499187 35.200955 
L 300.854194 38.036503 
L 306.209202 41.127847 
L 311.564209 44.468437 
L 316.919217 48.056621 
L 322.274225 51.89667 
L 327.629232 56.00036 
L 332.98424 60.389515 
L 338.339248 65.100285 
L 342.929254 69.437253 
L 347.519261 74.10962 
L 351.344266 78.322684 
L 355.169271 82.912049 
L 358.229276 86.942497 
L 361.28928 91.415017 
L 363.584283 95.180012 
L 365.879287 99.473441 
L 367.409289 102.78517 
L 368.939291 106.692804 
L 369.704292 109.012937 
L 370.469293 111.757427 
L 371.234294 115.323997 
L 371.999295 123.906623 
L 371.234294 132.489249 
L 370.469293 136.055819 
L 369.704292 138.800309 
L 368.17429 143.170089 
L 366.644288 146.74117 
L 365.114286 149.84509 
L 362.819282 153.936637 
L 360.524279 157.566929 
L 357.464275 161.914187 
L 354.40427 165.854589 
L 350.579265 170.3601 
L 346.754259 174.508908 
L 342.164253 179.120263 
L 337.574246 183.407515 
L 332.219239 188.069409 
L 326.864231 192.415966 
L 321.509224 196.480927 
L 316.154216 200.284471 
L 310.799208 203.837175 
L 305.444201 207.142383 
L 300.089193 210.19769 
L 294.734186 212.995909 
L 289.379178 215.525744 
L 284.789171 217.469352 
L 280.199165 219.19363 
L 275.609158 220.685837 
L 271.019152 221.932015 
L 266.429145 222.917342 
L 262.60414 223.528237 
L 258.779135 223.938835 
L 254.954129 224.14113 
L 251.129124 224.128318 
L 247.304118 223.89561 
L 243.479113 223.441388 
L 239.654107 222.768802 
L 235.829102 221.888031 
L 231.239095 220.585961 
L 225.884088 218.81425 
L 217.469076 215.96949 
L 212.114068 214.447217 
L 205.229058 212.725126 
L 196.814046 210.866421 
L 186.869032 208.919611 
L 175.394016 206.916514 
L 161.623996 204.750366 
L 121.84394 198.684997 
L 114.95893 197.329342 
L 109.603923 196.080492 
L 105.013916 194.810391 
L 101.188911 193.558097 
L 97.363905 192.069943 
L 94.303901 190.658636 
L 91.243897 188.994562 
L 88.948893 187.53907 
L 86.65389 185.863508 
L 84.358887 183.918098 
L 82.063883 181.637368 
L 79.76888 178.932569 
L 78.238878 176.834042 
L 76.708876 174.441823 
L 75.178874 171.687607 
L 73.648872 168.475301 
L 72.118869 164.66121 
L 70.588867 160.010273 
L 69.058865 154.07817 
L 68.293864 150.347093 
L 67.528863 145.755483 
L 66.763862 139.544726 
L 65.998861 123.906623 
L 65.998861 123.906623 
" clip-path="url(#p97f791c2cf)" style="fill: none; stroke: #00008b; stroke-width: 2; stroke-linecap: square"/>
   </g>
   <g id="patch_75">
    <path d="M 35.398817 244.213246 
L 35.398817 3.6 
" style="fill: none; stroke: #000000; stroke-width: 0.5; stroke-linejoin: miter; stroke-linecap: square"/>
   </g>
   <g id="patch_76">
    <path d="M 402.599339 244.213246 
L 402.599339 3.6 
" style="fill: none; stroke: #000000; stroke-width: 0.5; stroke-linejoin: miter; stroke-linecap: square"/>
   </g>
   <g id="patch_77">
    <path d="M 35.398817 244.213246 
L 402.599339 244.213246 
" style="fill: none; stroke: #000000; stroke-width: 0.5; stroke-linejoin: miter; stroke-linecap: square"/>
   </g>
   <g id="patch_78">
    <path d="M 35.398817 3.6 
L 402.599339 3.6 
" style="fill: none; stroke: #000000; stroke-width: 0.5; stroke-linejoin: miter; stroke-linecap: square"/>
   </g>
   <g id="text_13">
    <g id="patch_79">
     <path d="M 375.398817 243.10131 
L 383.581572 243.10131 
Q 388.981572 243.10131 388.981572 237.70131 
L 388.981572 221.759946 
Q 388.981572 216.359946 383.581572 216.359946 
L 375.398817 216.359946 
Q 369.998817 216.359946 369.998817 221.759946 
L 369.998817 237.70131 
Q 369.998817 243.10131 375.398817 243.10131 
z
" style="fill: #ffffff; opacity: 0.8"/>
    </g>
    <!-- $\theta$ -->
    <g transform="translate(375.398817 234.213246) scale(0.18 -0.18)">
     <defs>
      <path id="CMMI12-12" d="M 2835 3200 
C 2835 3850 2630 4480 2106 4480 
C 1210 4480 256 2615 256 1216 
C 256 923 320 -64 992 -64 
C 1862 -64 2835 1756 2835 3200 
z
M 896 2304 
C 992 2679 1126 3214 1382 3665 
C 1594 4047 1818 4352 2099 4352 
C 2310 4352 2451 4174 2451 3564 
C 2451 3334 2432 3017 2246 2304 
L 896 2304 
z
M 2202 2113 
C 2042 1490 1907 1088 1677 687 
C 1491 363 1267 64 998 64 
C 800 64 640 217 640 846 
C 640 1260 742 1693 845 2113 
L 2202 2113 
z
" transform="scale(0.015625)"/>
     </defs>
     <use xlink:href="#CMMI12-12" transform="scale(0.996264)"/>
    </g>
   </g>
   <g id="text_14">
    <g id="patch_80">
     <path d="M 43.398817 43.10131 
L 51.581572 43.10131 
Q 56.981572 43.10131 56.981572 37.70131 
L 56.981572 21.204397 
Q 56.981572 15.804397 51.581572 15.804397 
L 43.398817 15.804397 
Q 37.998817 15.804397 37.998817 21.204397 
L 37.998817 37.70131 
Q 37.998817 43.10131 43.398817 43.10131 
z
" style="fill: #ffffff; opacity: 0.8"/>
    </g>
    <!-- $\dot\theta$ -->
    <g transform="translate(43.398817 34.213246) scale(0.18 -0.18)">
     <defs>
      <path id="CMR17-5f" d="M 1056 3909 
C 1056 4062 934 4170 800 4170 
C 646 4170 538 4049 538 3909 
C 538 3756 659 3648 794 3648 
C 947 3648 1056 3769 1056 3909 
z
" transform="scale(0.015625)"/>
     </defs>
     <use xlink:href="#CMR17-5f" transform="translate(19.778385 26.296621) scale(0.996264)"/>
     <use xlink:href="#CMMI12-12" transform="scale(0.996264)"/>
    </g>
   </g>
  </g>
 </g>
 <defs>
  <clipPath id="p97f791c2cf">
   <rect x="35.398817" y="3.6" width="367.200522" height="240.613246"/>
  </clipPath>
 </defs>
</svg>
