<?xml version="1.0" encoding="UTF-8" standalone="no"?>
<!-- Created with Inkscape (http://www.inkscape.org/) -->

<svg
   width="210mm"
   height="297mm"
   viewBox="0 0 210 297"
   version="1.1"
   id="svg1"
   inkscape:version="1.4 (e7c3feb, 2024-10-09)"
   sodipodi:docname="pvtol.svg"
   xmlns:inkscape="http://www.inkscape.org/namespaces/inkscape"
   xmlns:sodipodi="http://sodipodi.sourceforge.net/DTD/sodipodi-0.dtd"
   xmlns="http://www.w3.org/2000/svg"
   xmlns:svg="http://www.w3.org/2000/svg">
  <sodipodi:namedview
     id="namedview1"
     pagecolor="#ffffff"
     bordercolor="#000000"
     borderopacity="0.25"
     inkscape:showpageshadow="2"
     inkscape:pageopacity="0.0"
     inkscape:pagecheckerboard="0"
     inkscape:deskcolor="#d1d1d1"
     inkscape:document-units="mm"
     inkscape:zoom="3.9469388"
     inkscape:cx="378.90124"
     inkscape:cy="207.62926"
     inkscape:window-width="2752"
     inkscape:window-height="1124"
     inkscape:window-x="0"
     inkscape:window-y="0"
     inkscape:window-maximized="1"
     inkscape:current-layer="layer1"
     showgrid="false" />
  <defs
     id="defs1" />
  <g
     inkscape:label="Layer 1"
     inkscape:groupmode="layer"
     id="layer1">
    <path
       id="path3"
       style="fill:#625fff;fill-opacity:1;stroke:#000000;stroke-width:0.5;stroke-dasharray:none"
       d="m 59.859613,44.960763 a 15.530567,1.5454741 0 0 1 -15.53056,1.54547 15.530567,1.5454741 0 0 1 -15.53057,-1.54547 15.530567,1.5454741 0 0 1 15.53057,-1.54547 15.530567,1.5454741 0 0 1 15.53056,1.54547 z" />
    <path
       id="path3-5"
       style="fill:#625fff;fill-opacity:1;stroke:#000000;stroke-width:0.5;stroke-dasharray:none"
       d="m 90.785696,44.960763 a 15.530567,1.5454741 0 0 1 -15.530563,1.54547 15.530567,1.5454741 0 0 1 -15.53057,-1.54547 15.530567,1.5454741 0 0 1 15.53057,-1.54547 15.530567,1.5454741 0 0 1 15.530563,1.54547 z" />
    <path
       id="path3-9"
       style="fill:#625fff;fill-opacity:1;stroke:#000000;stroke-width:0.5;stroke-dasharray:none"
       d="m 139.81178,45.18469 a 15.530567,1.5454741 0 0 1 -15.53057,1.545474 15.530567,1.5454741 0 0 1 -15.53057,-1.545474 15.530567,1.5454741 0 0 1 15.53057,-1.545474 15.530567,1.5454741 0 0 1 15.53057,1.545474 z" />
    <path
       id="path3-5-1"
       style="fill:#625fff;fill-opacity:1;stroke:#000000;stroke-width:0.5;stroke-dasharray:none"
       d="m 170.73785,45.226255 a 15.530567,1.5454741 0 0 1 -15.53057,1.545474 15.530567,1.5454741 0 0 1 -15.53057,-1.545474 15.530567,1.5454741 0 0 1 15.53057,-1.545474 15.530567,1.5454741 0 0 1 15.53057,1.545474 z" />
    <path
       id="rect2-2-7"
       style="stroke:#000000;stroke-width:0.1;stroke-dasharray:none"
       d="m 140.83215,49.061104 h -1.44475 v -2.87228 l -0.51767,-0.0042 v -2.22467 l 1.22484,-0.734715 1.23382,0.734715 v 2.22467 l -0.49624,0.0042 z"
       sodipodi:nodetypes="cccccccccc" />
    <path
       id="rect1-5"
       style="stroke:#000000;stroke-width:0.1;stroke-dasharray:none"
       d="M 96.793394,51.173678 H 60.336753 v -2.5205 h 36.456641 z"
       sodipodi:nodetypes="ccccc" />
    <path
       id="rect1-5-5"
       style="stroke:#000000;stroke-width:0.1;stroke-dasharray:none"
       d="M 139.77586,51.107079 H 103.2455 v -2.5205 h 36.53036 z"
       sodipodi:nodetypes="ccccc" />
    <path
       id="path2"
       style="fill:#000000;fill-opacity:1;stroke:#000000;stroke-width:0.1;stroke-dasharray:none"
       d="m 100.00489,53.666605 c -2.062273,3e-6 -3.734074,-1.671798 -3.734072,-3.734069 -2e-6,-2.062271 1.671799,-3.734072 3.734072,-3.73407 2.06227,-2e-6 3.73407,1.671799 3.73407,3.73407 0,2.062271 -1.6718,3.734072 -3.73407,3.734069 v -0.668549 c 1.69304,-10e-7 3.06552,-1.372481 3.06552,-3.06552 0,-1.693039 -1.37248,-3.065519 -3.06552,-3.06552 -1.693042,10e-7 -3.065521,1.372481 -3.065522,3.06552 10e-7,1.693039 1.37248,3.065519 3.065522,3.06552 z"
       sodipodi:nodetypes="ccccccccccc" />
    <path
       id="path2-6"
       style="stroke:#000000;stroke-width:0.1;stroke-dasharray:none;stroke-opacity:1"
       d="m 103.73896,49.932536 a 3.734066,3.734066 0 0 1 -3.73407,3.734066 v -3.734066 z" />
    <path
       id="path2-6-6"
       style="fill:#000000;fill-opacity:1;stroke:#000000;stroke-width:0.1;stroke-dasharray:none;stroke-opacity:1"
       d="m 96.270819,49.932536 a 3.734066,3.734066 0 0 1 3.734071,-3.734066 v 3.734066 z" />
    <path
       id="rect4-9"
       style="fill:#000000;fill-opacity:1;stroke:#000000;stroke-width:0.4"
       d="m 137.74171,47.760181 0.92978,-0.26663 h 2.86184 l 1.02593,0.26663 v 3.610906 l -1.08442,0.529167 h -2.60685 l -1.12628,-0.529167 z"
       sodipodi:nodetypes="ccccccccc" />
    <path
       id="rect2-2-7-6"
       style="stroke:#000000;stroke-width:0.1;stroke-dasharray:none"
       d="m 60.503918,49.009499 h -1.44475 v -2.87228 l -0.51767,-0.0042 v -2.22467 l 1.22484,-0.734715 1.23382,0.734715 v 2.22467 l -0.49624,0.0042 z"
       sodipodi:nodetypes="cccccccccc" />
    <path
       id="rect4-9-0"
       style="fill:#000000;fill-opacity:1;stroke:#000000;stroke-width:0.4"
       d="m 57.413478,47.708576 0.92978,-0.26663 h 2.86184 l 1.02593,0.26663 v 3.610906 l -1.08442,0.529167 h -2.60685 l -1.12628,-0.529167 z"
       sodipodi:nodetypes="ccccccccc" />
  </g>
</svg>
