<?xml version="1.0" encoding="UTF-8" standalone="no"?>
<!-- Created with Inkscape (http://www.inkscape.org/) -->

<svg
   width="210mm"
   height="297mm"
   viewBox="0 0 210 297"
   version="1.1"
   id="svg1"
   inkscape:version="1.4 (e7c3feb, 2024-10-09)"
   sodipodi:docname="pvtol.svg"
   xmlns:inkscape="http://www.inkscape.org/namespaces/inkscape"
   xmlns:sodipodi="http://sodipodi.sourceforge.net/DTD/sodipodi-0.dtd"
   xmlns="http://www.w3.org/2000/svg"
   xmlns:svg="http://www.w3.org/2000/svg">
  <sodipodi:namedview
     id="namedview1"
     pagecolor="#ffffff"
     bordercolor="#000000"
     borderopacity="0.25"
     inkscape:showpageshadow="2"
     inkscape:pageopacity="0.0"
     inkscape:pagecheckerboard="0"
     inkscape:deskcolor="#d1d1d1"
     inkscape:document-units="mm"
     inkscape:zoom="22.627417"
     inkscape:cx="388.75405"
     inkscape:cy="190.16753"
     inkscape:window-width="3440"
     inkscape:window-height="1405"
     inkscape:window-x="0"
     inkscape:window-y="0"
     inkscape:window-maximized="1"
     inkscape:current-layer="layer1"
     showgrid="false" />
  <defs
     id="defs1" />
  <g
     inkscape:label="Layer 1"
     inkscape:groupmode="layer"
     id="layer1">
    <path
       id="path3"
       style="fill:#625fff;fill-opacity:1;stroke:#000000;stroke-width:0.5;stroke-dasharray:none"
       d="m 59.859613,44.960763 a 15.530567,1.5454741 0 0 1 -15.53056,1.54547 15.530567,1.5454741 0 0 1 -15.53057,-1.54547 15.530567,1.5454741 0 0 1 15.53057,-1.54547 15.530567,1.5454741 0 0 1 15.53056,1.54547 z" />
    <path
       id="path3-5"
       style="fill:#625fff;fill-opacity:1;stroke:#000000;stroke-width:0.5;stroke-dasharray:none"
       d="m 90.785696,44.960763 a 15.530567,1.5454741 0 0 1 -15.530563,1.54547 15.530567,1.5454741 0 0 1 -15.53057,-1.54547 15.530567,1.5454741 0 0 1 15.53057,-1.54547 15.530567,1.5454741 0 0 1 15.530563,1.54547 z" />
    <path
       id="path3-9"
       style="fill:#625fff;fill-opacity:1;stroke:#000000;stroke-width:0.5;stroke-dasharray:none"
       d="m 139.81178,45.18469 a 15.530567,1.5454741 0 0 1 -15.53057,1.545474 15.530567,1.5454741 0 0 1 -15.53057,-1.545474 15.530567,1.5454741 0 0 1 15.53057,-1.545474 15.530567,1.5454741 0 0 1 15.53057,1.545474 z" />
    <path
       id="path3-5-1"
       style="fill:#625fff;fill-opacity:1;stroke:#000000;stroke-width:0.5;stroke-dasharray:none"
       d="m 170.73785,45.226255 a 15.530567,1.5454741 0 0 1 -15.53057,1.545474 15.530567,1.5454741 0 0 1 -15.53057,-1.545474 15.530567,1.5454741 0 0 1 15.53057,-1.545474 15.530567,1.5454741 0 0 1 15.53057,1.545474 z" />
    <path
       id="rect2-2-7"
       style="stroke:#000000;stroke-width:0.1;stroke-dasharray:none"
       d="m 140.83215,49.061104 h -1.44475 v -2.87228 l -0.51767,-0.0042 v -2.22467 l 1.22484,-0.734715 1.23382,0.734715 v 2.22467 l -0.49624,0.0042 z"
       sodipodi:nodetypes="cccccccccc" />
    <path
       id="rect1-5"
       style="stroke:#000000;stroke-width:0.1;stroke-dasharray:none"
       d="M 96.793394,51.173678 H 60.336753 v -2.5205 h 36.456641 z"
       sodipodi:nodetypes="ccccc" />
    <path
       id="rect1-5-5"
       style="stroke:#000000;stroke-width:0.1;stroke-dasharray:none"
       d="M 139.77586,51.107079 H 103.2455 v -2.5205 h 36.53036 z"
       sodipodi:nodetypes="ccccc" />
    <path
       id="rect4-9"
       style="fill:#000000;fill-opacity:1;stroke:#000000;stroke-width:0.4"
       d="m 137.74171,47.760181 0.92978,-0.26663 h 2.86184 l 1.02593,0.26663 v 3.610906 l -1.08442,0.529167 h -2.60685 l -1.12628,-0.529167 z"
       sodipodi:nodetypes="ccccccccc" />
    <path
       id="rect2-2-7-6"
       style="stroke:#000000;stroke-width:0.1;stroke-dasharray:none"
       d="m 60.503918,49.009499 h -1.44475 v -2.87228 l -0.51767,-0.0042 v -2.22467 l 1.22484,-0.734715 1.23382,0.734715 v 2.22467 l -0.49624,0.0042 z"
       sodipodi:nodetypes="cccccccccc" />
    <path
       id="rect4-9-0"
       style="fill:#000000;fill-opacity:1;stroke:#000000;stroke-width:0.4"
       d="m 57.413478,47.708576 0.92978,-0.26663 h 2.86184 l 1.02593,0.26663 v 3.610906 l -1.08442,0.529167 h -2.60685 l -1.12628,-0.529167 z"
       sodipodi:nodetypes="ccccccccc" />
    <path
       id="path1"
       style="stroke:#000000;stroke-width:0.546968"
       d="M 103.72652,50 A 3.726516,3.726516 0 0 1 100,53.726516 3.726516,3.726516 0 0 1 96.273484,50 3.726516,3.726516 0 0 1 100,46.273484 3.726516,3.726516 0 0 1 103.72652,50 Z" />
    <path
       id="path2-6-5"
       style="fill:#ffffff;fill-opacity:1;stroke:#000000;stroke-width:0.0782459;stroke-dasharray:none;stroke-opacity:1"
       d="m 99.960873,52.960877 a 2.9217496,2.9217511 0 0 1 -2.92175,-2.921754 h 2.92175 z" />
    <path
       id="path2-6-5-3"
       style="fill:#ffffff;fill-opacity:1;stroke:#000000;stroke-width:0.0782459;stroke-dasharray:none;stroke-opacity:1"
       d="m 100.03912,47.039123 a 2.9217496,2.9217511 0 0 1 2.92175,2.921754 h -2.92175 z" />
  </g>
</svg>
